{
.appVersion = "1357";
DisplayStrings = (
ll,
"/periodcentered.loclCAT",
"/f_f_i.ss01",
"/fi.ss01",
"/f_f_l.ss01",
"/Gbreve.ss01",
"/O.ss01",
"/Oacute.ss01/Obreve.ss01/Ocaron.ss01/Ocircumflex.ss01/O.ss01/Ocircumflexacute.ss01/Ocircumflexdotbelow.ss01/Ocircumflexgrave.ss01/Ocircumflexhookabove.ss01/Ocircumflextilde.ss01/Odblgrave.ss01/Odieresis.ss01/Odieresismacron.ss01/Odotaccentmacron.ss01/Odotbelow.ss01/Ograve.ss01/Ohookabove.ss01/Ohorn.ss01/Ohornacute.ss01/Ohorndotbelow.ss01/Ohorngrave.ss01/Ohornhookabove.ss01/Ohorntilde.ss01/Ohungarumlaut.ss01/Oinvertedbreve.ss01/Omacron.ss01/Oogonek.ss01/Oslash.ss01/Oslashacute.ss01/Otilde.ss01/Otildemacron.ss01",
"/ecircumflexgrave/Scaron.ss01",
"/Cacute.ss01/Ccaron.ss01/Ccedilla.ss01/Ccircumflex.ss01/Cdotaccent.ss01",
"/f_f.ss01",
"/fl.ss01"
);
classes = (
{

glyphs = (
{
color = 3;
glyphname = .notdef;
lastChange = "2021-10-18 12:38:53 +0000";
layers = (
{
background = {
paths = (
{
closed = 1;
nodes = (
"469 13 LINE",
"478 21 LINE",
"478 634 LINE",
"469 643 LINE",
"48 643 LINE",
"40 633 LINE",
"40 22 LINE",
"48 13 LINE"
);
},
{
closed = 1;
nodes = (
"144 163 LINE",
"234 329 LINE",
"144 492 LINE",
"163 527 LINE",
"253 363 LINE",
"344 527 LINE",
"363 492 LINE",
"273 327 LINE",
"363 163 LINE",
"344 129 LINE",
"253 292 LINE",
"163 129 LINE"
);
},
{
closed = 1;
nodes = (
"57 29 LINE",
"57 626 LINE",
"461 626 LINE",
"461 29 LINE"
);
},
{
closed = 1;
nodes = (
"427 62 LINE",
"427 590 LINE",
"92 590 LINE",
"92 62 LINE"
);
}
);
};
layerId = "C36B7B90-196F-45C3-8412-B02CF16DA361";
paths = (
{
closed = 1;
nodes = (
"469 13 LINE",
"478 21 LINE",
"478 634 LINE",
"469 643 LINE",
"48 643 LINE",
"40 633 LINE",
"40 22 LINE",
"48 13 LINE"
);
},
{
closed = 1;
nodes = (
"144 163 LINE",
"234 329 LINE",
"144 492 LINE",
"163 527 LINE",
"253 363 LINE",
"344 527 LINE",
"363 492 LINE",
"273 327 LINE",
"363 163 LINE",
"344 129 LINE",
"253 292 LINE",
"163 129 LINE"
);
},
{
closed = 1;
nodes = (
"57 626 LINE",
"461 626 LINE",
"461 29 LINE",
"57 29 LINE"
);
},
{
closed = 1;
nodes = (
"427 62 LINE",
"427 590 LINE",
"92 590 LINE",
"92 62 LINE"
);
}
);
width = 518;
}
);
note = .notdef;
},
{
glyphname = A;
lastChange = "2021-10-18 12:39:05 +0000";
layers = (
{
anchors = (
{
name = bottom;
position = "{354, 0}";
},
{
name = ogonek;
position = "{626, 30}";
},
{
name = top;
position = "{504, 630}";
}
);
background = {
paths = (
{
closed = 1;
nodes = (
"318 27 LINE",
"309 27 OFFCURVE",
"299 26 OFFCURVE",
"288 26 CURVE SMOOTH",
"257 26 OFFCURVE",
"225 32 OFFCURVE",
"225 68 CURVE SMOOTH",
"225 85 OFFCURVE",
"232 109 OFFCURVE",
"250 142 CURVE SMOOTH",
"269 177 OFFCURVE",
"287 211 OFFCURVE",
"307 246 CURVE",
"325 246 OFFCURVE",
"346 245 OFFCURVE",
"371 245 CURVE SMOOTH",
"397 245 OFFCURVE",
"422 242 OFFCURVE",
"446 253 CURVE SMOOTH",
"464 262 OFFCURVE",
"496 281 OFFCURVE",
"506 300 CURVE SMOOTH",
"509 305 OFFCURVE",
"509 308 OFFCURVE",
"507 308 CURVE SMOOTH",
"506 308 OFFCURVE",
"505 308 OFFCURVE",
"503 306 CURVE SMOOTH",
"492 297 OFFCURVE",
"429 287 OFFCURVE",
"383 285 CURVE SMOOTH",
"327 282 LINE",
"375 362 OFFCURVE",
"424 442 OFFCURVE",
"476 524 CURVE",
"492 447 OFFCURVE",
"532 150 OFFCURVE",
"532 68 CURVE SMOOTH",
"532 24 OFFCURVE",
"474 28 OFFCURVE",
"447 29 CURVE",
"437 13 LINE",
"467 15 OFFCURVE",
"496 16 OFFCURVE",
"525 16 CURVE SMOOTH",
"558 16 OFFCURVE",
"591 15 OFFCURVE",
"626 13 CURVE SMOOTH",
"648 12 OFFCURVE",
"658 14 OFFCURVE",
"688 14 CURVE SMOOTH",
"700 14 OFFCURVE",
"714 14 OFFCURVE",
"734 13 CURVE",
"743 29 LINE",
"736 29 OFFCURVE",
"728 28 OFFCURVE",
"719 28 CURVE SMOOTH",
"685 28 OFFCURVE",
"642 41 OFFCURVE",
"623 142 CURVE SMOOTH",
"595 292 OFFCURVE",
"582 431 OFFCURVE",
"570 584 CURVE SMOOTH",
"568 612 OFFCURVE",
"574 632 OFFCURVE",
"559 632 CURVE SMOOTH",
"528 631 OFFCURVE",
"503 631 OFFCURVE",
"474 630 CURVE SMOOTH",
"463 630 OFFCURVE",
"447 629 OFFCURVE",
"427 629 CURVE SMOOTH",
"397 629 OFFCURVE",
"358 630 OFFCURVE",
"307 633 CURVE",
"301 616 LINE",
"325 617 OFFCURVE",
"357 619 OFFCURVE",
"381 619 CURVE SMOOTH",
"419 618 OFFCURVE",
"431 602 OFFCURVE",
"431 580 CURVE SMOOTH",
"431 564 OFFCURVE",
"425 547 OFFCURVE",
"417 530 CURVE SMOOTH",
"399 492 OFFCURVE",
"335 382 OFFCURVE",
"273 279 CURVE",
"216 276 OFFCURVE",
"170 274 OFFCURVE",
"134 268 CURVE",
"123 265 OFFCURVE",
"98 254 OFFCURVE",
"98 248 CURVE SMOOTH",
"98 245 OFFCURVE",
"104 244 OFFCURVE",
"121 245 CURVE SMOOTH",
"153 247 OFFCURVE",
"177 248 OFFCURVE",
"200 248 CURVE SMOOTH",
"216 248 OFFCURVE",
"233 248 OFFCURVE",
"253 247 CURVE",
"216 185 OFFCURVE",
"180 128 OFFCURVE",
"158 97 CURVE SMOOTH",
"117 38 OFFCURVE",
"80 28 OFFCURVE",
"31 28 CURVE SMOOTH",
"13 28 OFFCURVE",
"-7 29 OFFCURVE",
"-29 30 CURVE",
"-40 13 LINE",
"14 13 OFFCURVE",
"70 17 OFFCURVE",
"123 17 CURVE SMOOTH",
"136 17 OFFCURVE",
"149 17 OFFCURVE",
"161 16 CURVE SMOOTH",
"306 10 LINE"
);
}
);
};
layerId = "C36B7B90-196F-45C3-8412-B02CF16DA361";
paths = (
{
closed = 1;
nodes = (
"318 27 LINE",
"309 27 OFFCURVE",
"299 26 OFFCURVE",
"288 26 CURVE SMOOTH",
"257 26 OFFCURVE",
"225 32 OFFCURVE",
"225 68 CURVE SMOOTH",
"225 85 OFFCURVE",
"232 109 OFFCURVE",
"250 142 CURVE SMOOTH",
"269 177 OFFCURVE",
"287 211 OFFCURVE",
"307 246 CURVE",
"325 246 OFFCURVE",
"346 245 OFFCURVE",
"371 245 CURVE SMOOTH",
"397 245 OFFCURVE",
"422 242 OFFCURVE",
"446 253 CURVE SMOOTH",
"464 262 OFFCURVE",
"496 281 OFFCURVE",
"506 300 CURVE SMOOTH",
"509 305 OFFCURVE",
"509 308 OFFCURVE",
"507 308 CURVE SMOOTH",
"506 308 OFFCURVE",
"505 308 OFFCURVE",
"503 306 CURVE SMOOTH",
"492 297 OFFCURVE",
"429 287 OFFCURVE",
"383 285 CURVE SMOOTH",
"327 282 LINE",
"375 362 OFFCURVE",
"424 442 OFFCURVE",
"476 524 CURVE",
"492 447 OFFCURVE",
"532 150 OFFCURVE",
"532 68 CURVE SMOOTH",
"532 24 OFFCURVE",
"474 28 OFFCURVE",
"447 29 CURVE",
"437 13 LINE",
"467 15 OFFCURVE",
"496 16 OFFCURVE",
"525 16 CURVE SMOOTH",
"558 16 OFFCURVE",
"591 15 OFFCURVE",
"626 13 CURVE SMOOTH",
"648 12 OFFCURVE",
"658 14 OFFCURVE",
"688 14 CURVE SMOOTH",
"700 14 OFFCURVE",
"714 14 OFFCURVE",
"734 13 CURVE",
"743 29 LINE",
"736 29 OFFCURVE",
"728 28 OFFCURVE",
"719 28 CURVE SMOOTH",
"685 28 OFFCURVE",
"642 41 OFFCURVE",
"623 142 CURVE SMOOTH",
"595 292 OFFCURVE",
"582 431 OFFCURVE",
"570 584 CURVE SMOOTH",
"568 612 OFFCURVE",
"574 632 OFFCURVE",
"559 632 CURVE SMOOTH",
"528 631 OFFCURVE",
"503 631 OFFCURVE",
"474 630 CURVE SMOOTH",
"463 630 OFFCURVE",
"447 629 OFFCURVE",
"427 629 CURVE SMOOTH",
"397 629 OFFCURVE",
"358 630 OFFCURVE",
"307 633 CURVE",
"301 616 LINE",
"325 617 OFFCURVE",
"357 619 OFFCURVE",
"381 619 CURVE SMOOTH",
"419 618 OFFCURVE",
"431 602 OFFCURVE",
"431 580 CURVE SMOOTH",
"431 564 OFFCURVE",
"425 547 OFFCURVE",
"417 530 CURVE SMOOTH",
"399 492 OFFCURVE",
"335 382 OFFCURVE",
"273 279 CURVE",
"216 276 OFFCURVE",
"170 274 OFFCURVE",
"134 268 CURVE",
"123 265 OFFCURVE",
"98 254 OFFCURVE",
"98 248 CURVE SMOOTH",
"98 246 OFFCURVE",
"101 245 OFFCURVE",
"110 245 CURVE SMOOTH",
"121 245 LINE SMOOTH",
"153 247 OFFCURVE",
"177 248 OFFCURVE",
"200 248 CURVE SMOOTH",
"216 248 OFFCURVE",
"233 248 OFFCURVE",
"253 247 CURVE",
"216 185 OFFCURVE",
"180 128 OFFCURVE",
"158 97 CURVE SMOOTH",
"117 38 OFFCURVE",
"80 28 OFFCURVE",
"31 28 CURVE SMOOTH",
"13 28 OFFCURVE",
"-7 29 OFFCURVE",
"-29 30 CURVE",
"-40 13 LINE",
"14 13 OFFCURVE",
"70 17 OFFCURVE",
"123 17 CURVE SMOOTH",
"136 17 OFFCURVE",
"149 16 OFFCURVE",
"161 16 CURVE SMOOTH",
"306 10 LINE"
);
}
);
width = 708;
}
);
leftKerningGroup = A;
note = A;
rightKerningGroup = A;
unicode = 0041;
},
{
glyphname = AE;
lastChange = "2021-10-18 12:39:05 +0000";
layers = (
{
anchors = (
{
name = bottom;
position = "{466, 0}";
},
{
name = top;
position = "{669, 630}";
}
);
background = {
paths = (
{
closed = 1;
nodes = (
"846 8 OFFCURVE",
"860 10 OFFCURVE",
"868 15 CURVE SMOOTH",
"914 44 OFFCURVE",
"934 156 OFFCURVE",
"946 186 CURVE",
"947 191 OFFCURVE",
"943 197 OFFCURVE",
"939 197 CURVE SMOOTH",
"938 197 OFFCURVE",
"937 196 OFFCURVE",
"936 194 CURVE SMOOTH",
"897 106 OFFCURVE",
"825 46 OFFCURVE",
"725 46 CURVE SMOOTH",
"624 46 OFFCURVE",
"612 78 OFFCURVE",
"615 125 CURVE SMOOTH",
"621 203 OFFCURVE",
"625 249 OFFCURVE",
"632 308 CURVE",
"662 307 OFFCURVE",
"700 306 OFFCURVE",
"757 306 CURVE SMOOTH",
"783 306 OFFCURVE",
"809 311 OFFCURVE",
"832 322 CURVE SMOOTH",
"849 330 OFFCURVE",
"880 349 OFFCURVE",
"889 369 CURVE SMOOTH",
"892 374 OFFCURVE",
"892 377 OFFCURVE",
"890 377 CURVE SMOOTH",
"889 377 OFFCURVE",
"888 377 OFFCURVE",
"886 375 CURVE SMOOTH",
"874 366 OFFCURVE",
"813 355 OFFCURVE",
"768 353 CURVE SMOOTH",
"757 353 OFFCURVE",
"747 352 OFFCURVE",
"737 352 CURVE SMOOTH",
"701 352 OFFCURVE",
"669 355 OFFCURVE",
"638 353 CURVE",
"644 400 OFFCURVE",
"650 450 OFFCURVE",
"660 508 CURVE SMOOTH",
"674 593 OFFCURVE",
"727 598 OFFCURVE",
"794 598 CURVE SMOOTH",
"833 598 LINE SMOOTH",
"889 598 OFFCURVE",
"928 551 OFFCURVE",
"922 458 CURVE SMOOTH",
"921 448 OFFCURVE",
"926 443 OFFCURVE",
"930 443 CURVE SMOOTH",
"933 443 OFFCURVE",
"935 445 OFFCURVE",
"935 448 CURVE SMOOTH",
"939 502 OFFCURVE",
"938 525 OFFCURVE",
"943 572 CURVE SMOOTH",
"944 581 OFFCURVE",
"945 588 OFFCURVE",
"945 595 CURVE SMOOTH",
"945 627 OFFCURVE",
"931 638 OFFCURVE",
"895 636 CURVE SMOOTH",
"803 631 OFFCURVE",
"729 631 OFFCURVE",
"637 630 CURVE SMOOTH",
"594 629 OFFCURVE",
"551 629 OFFCURVE",
"507 629 CURVE SMOOTH",
"438 629 OFFCURVE",
"369 630 OFFCURVE",
"302 633 CURVE",
"297 634 OFFCURVE",
"293 629 OFFCURVE",
"293 624 CURVE SMOOTH",
"293 620 OFFCURVE",
"295 617 OFFCURVE",
"300 617 CURVE SMOOTH",
"302 617 LINE SMOOTH",
"327 617 OFFCURVE",
"352 619 OFFCURVE",
"376 619 CURVE SMOOTH",
"417 619 OFFCURVE",
"430 600 OFFCURVE",
"430 576 CURVE SMOOTH",
"430 562 OFFCURVE",
"425 546 OFFCURVE",
"419 531 CURVE SMOOTH",
"403 492 OFFCURVE",
"380 442 OFFCURVE",
"325 339 CURVE",
"270 336 OFFCURVE",
"223 334 OFFCURVE",
"187 329 CURVE",
"176 325 OFFCURVE",
"153 315 OFFCURVE",
"153 309 CURVE SMOOTH",
"153 306 OFFCURVE",
"160 304 OFFCURVE",
"177 305 CURVE SMOOTH",
"211 307 OFFCURVE",
"235 308 OFFCURVE",
"260 308 CURVE SMOOTH",
"275 308 OFFCURVE",
"290 307 OFFCURVE",
"308 307 CURVE",
"274 245 OFFCURVE",
"210 131 OFFCURVE",
"190 100 CURVE SMOOTH",
"152 40 OFFCURVE",
"110 29 OFFCURVE",
"56 29 CURVE SMOOTH",
"38 29 OFFCURVE",
"19 30 OFFCURVE",
"-2 31 CURVE SMOOTH",
"-9 31 OFFCURVE",
"-12 26 OFFCURVE",
"-12 22 CURVE SMOOTH",
"-12 18 OFFCURVE",
"-10 15 OFFCURVE",
"-6 15 CURVE SMOOTH",
"-5 15 LINE SMOOTH",
"39 17 OFFCURVE",
"85 18 OFFCURVE",
"130 18 CURVE SMOOTH",
"154 18 OFFCURVE",
"178 18 OFFCURVE",
"200 17 CURVE SMOOTH",
"228 16 OFFCURVE",
"278 15 OFFCURVE",
"344 12 CURVE",
"350 10 OFFCURVE",
"361 22 OFFCURVE",
"361 26 CURVE SMOOTH",
"361 27 OFFCURVE",
"360 28 OFFCURVE",
"359 28 CURVE SMOOTH",
"356 28 LINE SMOOTH",
"347 28 OFFCURVE",
"337 27 OFFCURVE",
"326 27 CURVE SMOOTH",
"294 27 OFFCURVE",
"259 34 OFFCURVE",
"259 75 CURVE SMOOTH",
"259 91 OFFCURVE",
"265 114 OFFCURVE",
"279 144 CURVE SMOOTH",
"295 179 OFFCURVE",
"344 272 OFFCURVE",
"361 306 CURVE",
"389 305 OFFCURVE",
"500 311 OFFCURVE",
"538 311 CURVE",
"530 256 OFFCURVE",
"520 197 OFFCURVE",
"507 144 CURVE SMOOTH",
"483 43 OFFCURVE",
"464 31 OFFCURVE",
"451 31 CURVE SMOOTH",
"448 31 OFFCURVE",
"445 32 OFFCURVE",
"443 32 CURVE SMOOTH",
"438 32 OFFCURVE",
"430 23 OFFCURVE",
"430 18 CURVE SMOOTH",
"430 16 OFFCURVE",
"431 15 OFFCURVE",
"433 15 CURVE SMOOTH",
"434 15 LINE SMOOTH",
"449 15 OFFCURVE",
"459 14 OFFCURVE",
"466 14 CURVE SMOOTH",
"488 14 OFFCURVE",
"477 16 OFFCURVE",
"500 17 CURVE SMOOTH",
"543 18 OFFCURVE",
"576 20 OFFCURVE",
"611 20 CURVE SMOOTH",
"630 20 OFFCURVE",
"650 20 OFFCURVE",
"672 18 CURVE SMOOTH",
"743 13 OFFCURVE",
"793 8 OFFCURVE",
"825 8 CURVE SMOOTH"
);
},
{
closed = 1;
nodes = (
"421 422 OFFCURVE",
"418 412 OFFCURVE",
"462 496 CURVE SMOOTH",
"488 542 OFFCURVE",
"520 603 OFFCURVE",
"540 603 CURVE SMOOTH",
"553 603 OFFCURVE",
"561 578 OFFCURVE",
"559 510 CURVE SMOOTH",
"558 483 OFFCURVE",
"552 417 OFFCURVE",
"544 349 CURVE",
"521 349 OFFCURVE",
"435 345 OFFCURVE",
"380 342 CURVE"
);
}
);
};
layerId = "C36B7B90-196F-45C3-8412-B02CF16DA361";
paths = (
{
closed = 1;
nodes = (
"846 8 OFFCURVE",
"860 10 OFFCURVE",
"868 15 CURVE SMOOTH",
"914 44 OFFCURVE",
"934 156 OFFCURVE",
"946 186 CURVE",
"947 191 OFFCURVE",
"943 197 OFFCURVE",
"939 197 CURVE SMOOTH",
"938 197 OFFCURVE",
"937 196 OFFCURVE",
"936 194 CURVE SMOOTH",
"897 106 OFFCURVE",
"825 46 OFFCURVE",
"725 46 CURVE SMOOTH",
"624 46 OFFCURVE",
"612 78 OFFCURVE",
"615 125 CURVE SMOOTH",
"621 203 OFFCURVE",
"625 249 OFFCURVE",
"632 308 CURVE",
"662 307 OFFCURVE",
"700 306 OFFCURVE",
"757 306 CURVE SMOOTH",
"783 306 OFFCURVE",
"809 311 OFFCURVE",
"832 322 CURVE SMOOTH",
"849 330 OFFCURVE",
"880 349 OFFCURVE",
"889 369 CURVE SMOOTH",
"892 374 OFFCURVE",
"892 377 OFFCURVE",
"890 377 CURVE SMOOTH",
"889 377 OFFCURVE",
"888 377 OFFCURVE",
"886 375 CURVE SMOOTH",
"874 366 OFFCURVE",
"813 355 OFFCURVE",
"768 353 CURVE SMOOTH",
"757 353 OFFCURVE",
"747 352 OFFCURVE",
"737 352 CURVE SMOOTH",
"710 352 OFFCURVE",
"685 354 OFFCURVE",
"661 354 CURVE SMOOTH",
"654 354 OFFCURVE",
"646 354 OFFCURVE",
"638 353 CURVE",
"644 400 OFFCURVE",
"650 450 OFFCURVE",
"660 508 CURVE SMOOTH",
"674 593 OFFCURVE",
"727 598 OFFCURVE",
"794 598 CURVE SMOOTH",
"833 598 LINE SMOOTH",
"889 598 OFFCURVE",
"928 551 OFFCURVE",
"922 458 CURVE SMOOTH",
"921 448 OFFCURVE",
"926 443 OFFCURVE",
"930 443 CURVE SMOOTH",
"933 443 OFFCURVE",
"935 445 OFFCURVE",
"935 448 CURVE SMOOTH",
"939 502 OFFCURVE",
"938 525 OFFCURVE",
"943 572 CURVE SMOOTH",
"944 581 OFFCURVE",
"945 588 OFFCURVE",
"945 595 CURVE SMOOTH",
"945 627 OFFCURVE",
"931 638 OFFCURVE",
"895 636 CURVE SMOOTH",
"803 631 OFFCURVE",
"729 631 OFFCURVE",
"637 630 CURVE SMOOTH",
"594 629 OFFCURVE",
"551 629 OFFCURVE",
"507 629 CURVE SMOOTH",
"438 629 OFFCURVE",
"369 630 OFFCURVE",
"302 633 CURVE",
"297 634 OFFCURVE",
"293 629 OFFCURVE",
"293 624 CURVE SMOOTH",
"293 620 OFFCURVE",
"295 617 OFFCURVE",
"300 617 CURVE SMOOTH",
"302 617 LINE SMOOTH",
"327 617 OFFCURVE",
"352 619 OFFCURVE",
"376 619 CURVE SMOOTH",
"417 619 OFFCURVE",
"430 600 OFFCURVE",
"430 576 CURVE SMOOTH",
"430 562 OFFCURVE",
"425 546 OFFCURVE",
"419 531 CURVE SMOOTH",
"403 492 OFFCURVE",
"380 442 OFFCURVE",
"325 339 CURVE",
"270 336 OFFCURVE",
"223 334 OFFCURVE",
"187 329 CURVE",
"176 325 OFFCURVE",
"153 315 OFFCURVE",
"153 309 CURVE SMOOTH",
"153 307 OFFCURVE",
"158 305 OFFCURVE",
"169 305 CURVE SMOOTH",
"177 305 LINE SMOOTH",
"211 307 OFFCURVE",
"235 308 OFFCURVE",
"260 308 CURVE SMOOTH",
"275 308 OFFCURVE",
"290 307 OFFCURVE",
"308 307 CURVE",
"274 245 OFFCURVE",
"210 131 OFFCURVE",
"190 100 CURVE SMOOTH",
"152 40 OFFCURVE",
"110 29 OFFCURVE",
"56 29 CURVE SMOOTH",
"38 29 OFFCURVE",
"19 30 OFFCURVE",
"-2 31 CURVE SMOOTH",
"-9 31 OFFCURVE",
"-12 26 OFFCURVE",
"-12 22 CURVE SMOOTH",
"-12 18 OFFCURVE",
"-10 15 OFFCURVE",
"-6 15 CURVE SMOOTH",
"-5 15 LINE SMOOTH",
"39 15 OFFCURVE",
"85 18 OFFCURVE",
"130 18 CURVE SMOOTH",
"154 18 OFFCURVE",
"178 18 OFFCURVE",
"200 17 CURVE SMOOTH",
"228 16 OFFCURVE",
"278 15 OFFCURVE",
"344 12 CURVE",
"350 10 OFFCURVE",
"361 22 OFFCURVE",
"361 26 CURVE SMOOTH",
"361 27 OFFCURVE",
"360 28 OFFCURVE",
"359 28 CURVE SMOOTH",
"356 28 LINE SMOOTH",
"347 28 OFFCURVE",
"337 27 OFFCURVE",
"326 27 CURVE SMOOTH",
"294 27 OFFCURVE",
"259 34 OFFCURVE",
"259 75 CURVE SMOOTH",
"259 91 OFFCURVE",
"265 114 OFFCURVE",
"279 144 CURVE SMOOTH",
"295 179 OFFCURVE",
"344 272 OFFCURVE",
"361 306 CURVE",
"389 305 OFFCURVE",
"500 311 OFFCURVE",
"538 311 CURVE",
"530 256 OFFCURVE",
"520 197 OFFCURVE",
"507 144 CURVE SMOOTH",
"483 43 OFFCURVE",
"464 31 OFFCURVE",
"451 31 CURVE SMOOTH",
"448 31 OFFCURVE",
"445 32 OFFCURVE",
"443 32 CURVE SMOOTH",
"438 32 OFFCURVE",
"430 23 OFFCURVE",
"430 18 CURVE SMOOTH",
"430 16 OFFCURVE",
"431 15 OFFCURVE",
"433 15 CURVE SMOOTH",
"434 15 LINE SMOOTH",
"449 15 OFFCURVE",
"459 14 OFFCURVE",
"466 14 CURVE SMOOTH",
"488 14 OFFCURVE",
"477 16 OFFCURVE",
"500 17 CURVE SMOOTH",
"543 18 OFFCURVE",
"576 20 OFFCURVE",
"611 20 CURVE SMOOTH",
"630 20 OFFCURVE",
"650 20 OFFCURVE",
"672 18 CURVE SMOOTH",
"743 13 OFFCURVE",
"793 8 OFFCURVE",
"825 8 CURVE SMOOTH"
);
},
{
closed = 1;
nodes = (
"421 422 OFFCURVE",
"418 412 OFFCURVE",
"462 496 CURVE SMOOTH",
"488 542 OFFCURVE",
"520 603 OFFCURVE",
"540 603 CURVE SMOOTH",
"553 603 OFFCURVE",
"561 578 OFFCURVE",
"559 510 CURVE SMOOTH",
"558 483 OFFCURVE",
"552 417 OFFCURVE",
"544 349 CURVE",
"521 349 OFFCURVE",
"435 345 OFFCURVE",
"380 342 CURVE"
);
}
);
width = 931;
}
);
leftKerningGroup = A;
note = AE;
rightKerningGroup = E;
unicode = 00C6;
},
{
glyphname = B;
lastChange = "2021-10-18 12:38:38 +0000";
layers = (
{
background = {
paths = (
{
closed = 1;
nodes = (
"470 1 OFFCURVE",
"506 36 OFFCURVE",
"530 52 CURVE SMOOTH",
"607 106 LINE SMOOTH",
"648 134 OFFCURVE",
"666 170 OFFCURVE",
"666 205 CURVE SMOOTH",
"666 242 OFFCURVE",
"647 278 OFFCURVE",
"613 307 CURVE SMOOTH",
"571 343 OFFCURVE",
"504 368 OFFCURVE",
"455 367 CURVE",
"474 377 OFFCURVE",
"497 387 OFFCURVE",
"506 392 CURVE SMOOTH",
"580 431 OFFCURVE",
"649 487 OFFCURVE",
"653 544 CURVE SMOOTH",
"659 621 OFFCURVE",
"588 637 OFFCURVE",
"512 637 CURVE SMOOTH",
"494 637 OFFCURVE",
"476 636 OFFCURVE",
"459 635 CURVE SMOOTH",
"424 632 OFFCURVE",
"385 629 OFFCURVE",
"361 629 CURVE SMOOTH",
"299 628 OFFCURVE",
"232 632 OFFCURVE",
"161 633 CURVE SMOOTH",
"143 632 LINE",
"133 616 LINE",
"156 616 LINE SMOOTH",
"184 616 OFFCURVE",
"236 615 OFFCURVE",
"252 612 CURVE SMOOTH",
"277 608 OFFCURVE",
"283 583 OFFCURVE",
"283 557 CURVE SMOOTH",
"283 540 OFFCURVE",
"280 523 OFFCURVE",
"279 511 CURVE SMOOTH",
"274 454 OFFCURVE",
"245 282 OFFCURVE",
"202 142 CURVE SMOOTH",
"171 40 OFFCURVE",
"170 28 OFFCURVE",
"95 28 CURVE SMOOTH",
"78 28 OFFCURVE",
"56 29 OFFCURVE",
"30 29 CURVE",
"27 30 OFFCURVE",
"21 30 OFFCURVE",
"21 30 CURVE",
"10 13 LINE",
"20 13 LINE SMOOTH",
"84 12 OFFCURVE",
"158 15 OFFCURVE",
"186 16 CURVE SMOOTH",
"199 16 OFFCURVE",
"211 17 OFFCURVE",
"223 17 CURVE SMOOTH",
"285 17 OFFCURVE",
"340 11 OFFCURVE",
"403 6 CURVE SMOOTH"
);
},
{
closed = 1;
nodes = (
"361 35 OFFCURVE",
"305 59 OFFCURVE",
"304 117 CURVE SMOOTH",
"301 226 OFFCURVE",
"364 470 OFFCURVE",
"381 530 CURVE SMOOTH",
"397 589 OFFCURVE",
"438 616 OFFCURVE",
"475 616 CURVE SMOOTH",
"514 616 OFFCURVE",
"550 586 OFFCURVE",
"550 531 CURVE SMOOTH",
"550 526 OFFCURVE",
"549 522 OFFCURVE",
"549 517 CURVE SMOOTH",
"542 456 OFFCURVE",
"495 383 OFFCURVE",
"400 357 CURVE SMOOTH",
"393 355 OFFCURVE",
"388 351 OFFCURVE",
"388 348 CURVE SMOOTH",
"388 346 OFFCURVE",
"390 345 OFFCURVE",
"394 345 CURVE SMOOTH",
"396 345 LINE SMOOTH",
"461 351 OFFCURVE",
"520 295 OFFCURVE",
"548 233 CURVE SMOOTH",
"557 213 OFFCURVE",
"562 191 OFFCURVE",
"562 169 CURVE SMOOTH",
"562 124 OFFCURVE",
"542 79 OFFCURVE",
"499 54 CURVE SMOOTH",
"477 42 OFFCURVE",
"447 35 OFFCURVE",
"417 35 CURVE SMOOTH"
);
}
);
};
layerId = "C36B7B90-196F-45C3-8412-B02CF16DA361";
paths = (
{
closed = 1;
nodes = (
"470 1 OFFCURVE",
"506 36 OFFCURVE",
"530 52 CURVE SMOOTH",
"607 106 LINE SMOOTH",
"648 134 OFFCURVE",
"666 170 OFFCURVE",
"666 205 CURVE SMOOTH",
"666 242 OFFCURVE",
"647 278 OFFCURVE",
"613 307 CURVE SMOOTH",
"571 343 OFFCURVE",
"504 368 OFFCURVE",
"455 367 CURVE",
"474 377 OFFCURVE",
"497 387 OFFCURVE",
"506 392 CURVE SMOOTH",
"580 431 OFFCURVE",
"649 487 OFFCURVE",
"653 544 CURVE SMOOTH",
"659 621 OFFCURVE",
"588 637 OFFCURVE",
"512 637 CURVE SMOOTH",
"494 637 OFFCURVE",
"476 636 OFFCURVE",
"459 635 CURVE SMOOTH",
"424 632 OFFCURVE",
"385 629 OFFCURVE",
"361 629 CURVE SMOOTH",
"299 628 OFFCURVE",
"232 632 OFFCURVE",
"161 633 CURVE SMOOTH",
"143 632 LINE",
"133 616 LINE",
"156 616 LINE SMOOTH",
"184 616 OFFCURVE",
"236 615 OFFCURVE",
"252 612 CURVE SMOOTH",
"277 608 OFFCURVE",
"283 583 OFFCURVE",
"283 557 CURVE SMOOTH",
"283 540 OFFCURVE",
"280 523 OFFCURVE",
"279 511 CURVE SMOOTH",
"274 454 OFFCURVE",
"245 282 OFFCURVE",
"202 142 CURVE SMOOTH",
"171 40 OFFCURVE",
"170 28 OFFCURVE",
"95 28 CURVE SMOOTH",
"78 28 OFFCURVE",
"56 29 OFFCURVE",
"30 29 CURVE",
"27 30 OFFCURVE",
"21 30 OFFCURVE",
"21 30 CURVE",
"10 13 LINE",
"20 13 LINE SMOOTH",
"84 12 OFFCURVE",
"158 15 OFFCURVE",
"186 16 CURVE SMOOTH",
"199 16 OFFCURVE",
"211 17 OFFCURVE",
"223 17 CURVE SMOOTH",
"285 17 OFFCURVE",
"340 11 OFFCURVE",
"403 6 CURVE SMOOTH"
);
},
{
closed = 1;
nodes = (
"361 35 OFFCURVE",
"305 59 OFFCURVE",
"304 117 CURVE SMOOTH",
"301 226 OFFCURVE",
"364 470 OFFCURVE",
"381 530 CURVE SMOOTH",
"397 589 OFFCURVE",
"438 616 OFFCURVE",
"475 616 CURVE SMOOTH",
"514 616 OFFCURVE",
"550 586 OFFCURVE",
"550 531 CURVE SMOOTH",
"550 526 OFFCURVE",
"549 522 OFFCURVE",
"549 517 CURVE SMOOTH",
"542 456 OFFCURVE",
"495 383 OFFCURVE",
"400 357 CURVE SMOOTH",
"393 355 OFFCURVE",
"388 351 OFFCURVE",
"388 348 CURVE SMOOTH",
"388 346 OFFCURVE",
"390 345 OFFCURVE",
"394 345 CURVE SMOOTH",
"396 345 LINE SMOOTH",
"461 351 OFFCURVE",
"520 295 OFFCURVE",
"548 233 CURVE SMOOTH",
"557 213 OFFCURVE",
"562 191 OFFCURVE",
"562 169 CURVE SMOOTH",
"562 124 OFFCURVE",
"542 79 OFFCURVE",
"499 54 CURVE SMOOTH",
"477 42 OFFCURVE",
"447 35 OFFCURVE",
"417 35 CURVE SMOOTH"
);
}
);
width = 654;
}
);
leftKerningGroup = H;
leftMetricsKey = H;
note = B;
unicode = 0042;
},
{
glyphname = C;
lastChange = "2021-10-18 12:39:05 +0000";
layers = (
{
anchors = (
{
name = bottom;
position = "{355, 0}";
},
{
name = top;
position = "{544, 630}";
}
);
background = {
paths = (
{
closed = 1;
nodes = (
"410 -3 OFFCURVE",
"456 2 OFFCURVE",
"498 13 CURVE SMOOTH",
"540 24 OFFCURVE",
"562 52 OFFCURVE",
"586 86 CURVE SMOOTH",
"608 119 OFFCURVE",
"679 192 OFFCURVE",
"679 192 CURVE",
"671 205 LINE",
"658 190 OFFCURVE",
"646 175 OFFCURVE",
"631 162 CURVE SMOOTH",
"573 110 OFFCURVE",
"481 78 OFFCURVE",
"407 78 CURVE SMOOTH",
"248 78 OFFCURVE",
"174 157 OFFCURVE",
"174 289 CURVE SMOOTH",
"174 297 OFFCURVE",
"174 306 OFFCURVE",
"175 315 CURVE SMOOTH",
"187 479 OFFCURVE",
"347 584 OFFCURVE",
"500 584 CURVE SMOOTH",
"553 584 OFFCURVE",
"630 583 OFFCURVE",
"625 511 CURVE SMOOTH",
"623 487 OFFCURVE",
"602 432 OFFCURVE",
"602 432 CURVE",
"614 423 LINE",
"644 502 LINE SMOOTH",
"652 523 OFFCURVE",
"660 544 OFFCURVE",
"669 564 CURVE SMOOTH",
"673 573 OFFCURVE",
"675 581 OFFCURVE",
"675 591 CURVE SMOOTH",
"675 641 OFFCURVE",
"606 648 OFFCURVE",
"570 648 CURVE SMOOTH",
"566 648 LINE SMOOTH",
"366 638 OFFCURVE",
"106 481 OFFCURVE",
"90 254 CURVE SMOOTH",
"87 217 OFFCURVE",
"93 179 OFFCURVE",
"107 146 CURVE SMOOTH",
"150 40 OFFCURVE",
"256 -3 OFFCURVE",
"367 -3 CURVE SMOOTH"
);
}
);
};
layerId = "C36B7B90-196F-45C3-8412-B02CF16DA361";
paths = (
{
closed = 1;
nodes = (
"410 -3 OFFCURVE",
"456 2 OFFCURVE",
"498 13 CURVE SMOOTH",
"540 24 OFFCURVE",
"562 52 OFFCURVE",
"586 86 CURVE SMOOTH",
"608 119 OFFCURVE",
"679 192 OFFCURVE",
"679 192 CURVE",
"671 205 LINE",
"658 190 OFFCURVE",
"646 175 OFFCURVE",
"631 162 CURVE SMOOTH",
"573 110 OFFCURVE",
"481 78 OFFCURVE",
"407 78 CURVE SMOOTH",
"248 78 OFFCURVE",
"174 157 OFFCURVE",
"174 289 CURVE SMOOTH",
"174 297 OFFCURVE",
"174 306 OFFCURVE",
"175 315 CURVE SMOOTH",
"187 479 OFFCURVE",
"347 584 OFFCURVE",
"500 584 CURVE SMOOTH",
"553 584 OFFCURVE",
"630 583 OFFCURVE",
"625 511 CURVE SMOOTH",
"623 487 OFFCURVE",
"602 432 OFFCURVE",
"602 432 CURVE",
"614 423 LINE",
"644 502 LINE SMOOTH",
"652 523 OFFCURVE",
"660 544 OFFCURVE",
"669 564 CURVE SMOOTH",
"673 573 OFFCURVE",
"675 581 OFFCURVE",
"675 591 CURVE SMOOTH",
"675 641 OFFCURVE",
"606 648 OFFCURVE",
"570 648 CURVE SMOOTH",
"566 648 LINE SMOOTH",
"366 648 OFFCURVE",
"106 481 OFFCURVE",
"90 254 CURVE SMOOTH",
"87 217 OFFCURVE",
"93 179 OFFCURVE",
"107 146 CURVE SMOOTH",
"150 40 OFFCURVE",
"256 -3 OFFCURVE",
"367 -3 CURVE SMOOTH"
);
}
);
width = 649;
}
);
leftKerningGroup = O;
leftMetricsKey = "=O-10";
note = C;
rightKerningGroup = C;
unicode = 0043;
},
{
glyphname = D;
lastChange = "2021-10-18 12:39:05 +0000";
layers = (
{
anchors = (
{
name = bottom;
position = "{381, 0}";
},
{
name = center;
position = "{309, 347}";
},
{
name = top;
position = "{546, 630}";
}
);
background = {
paths = (
{
closed = 1;
nodes = (
"491 4 OFFCURVE",
"550 21 OFFCURVE",
"632 96 CURVE SMOOTH",
"708 166 LINE SMOOTH",
"759 213 OFFCURVE",
"808 293 OFFCURVE",
"808 385 CURVE SMOOTH",
"808 439 OFFCURVE",
"792 496 OFFCURVE",
"750 553 CURVE SMOOTH",
"698 624 OFFCURVE",
"633 641 OFFCURVE",
"564 641 CURVE SMOOTH",
"506 641 OFFCURVE",
"445 629 OFFCURVE",
"386 629 CURVE SMOOTH",
"365 629 LINE SMOOTH",
"303 628 OFFCURVE",
"236 632 OFFCURVE",
"163 633 CURVE SMOOTH",
"145 632 LINE",
"135 616 LINE",
"158 616 LINE SMOOTH",
"185 616 OFFCURVE",
"239 615 OFFCURVE",
"256 612 CURVE SMOOTH",
"281 608 OFFCURVE",
"287 583 OFFCURVE",
"287 557 CURVE SMOOTH",
"287 540 OFFCURVE",
"284 523 OFFCURVE",
"283 511 CURVE SMOOTH",
"278 454 OFFCURVE",
"249 282 OFFCURVE",
"206 142 CURVE SMOOTH",
"175 40 OFFCURVE",
"174 28 OFFCURVE",
"99 28 CURVE SMOOTH",
"82 28 OFFCURVE",
"60 29 OFFCURVE",
"34 29 CURVE",
"31 30 OFFCURVE",
"21 30 OFFCURVE",
"21 30 CURVE",
"10 13 LINE",
"29 13 LINE SMOOTH",
"92 13 OFFCURVE",
"162 15 OFFCURVE",
"190 16 CURVE SMOOTH",
"211 16 OFFCURVE",
"227 16 OFFCURVE",
"235 15 CURVE",
"312 13 OFFCURVE",
"369 4 OFFCURVE",
"421 4 CURVE SMOOTH"
);
},
{
closed = 1;
nodes = (
"367 45 OFFCURVE",
"317 73 OFFCURVE",
"317 160 CURVE SMOOTH",
"317 177 OFFCURVE",
"319 195 OFFCURVE",
"323 216 CURVE SMOOTH",
"332 271 OFFCURVE",
"358 455 OFFCURVE",
"400 549 CURVE SMOOTH",
"420 594 OFFCURVE",
"453 612 OFFCURVE",
"490 612 CURVE SMOOTH",
"516 612 OFFCURVE",
"543 603 OFFCURVE",
"569 588 CURVE SMOOTH",
"657 536 OFFCURVE",
"702 443 OFFCURVE",
"702 347 CURVE SMOOTH",
"702 256 OFFCURVE",
"663 163 OFFCURVE",
"582 98 CURVE SMOOTH",
"553 74 OFFCURVE",
"485 45 OFFCURVE",
"425 45 CURVE SMOOTH"
);
}
);
};
layerId = "C36B7B90-196F-45C3-8412-B02CF16DA361";
paths = (
{
closed = 1;
nodes = (
"491 4 OFFCURVE",
"550 21 OFFCURVE",
"632 96 CURVE SMOOTH",
"708 166 LINE SMOOTH",
"759 213 OFFCURVE",
"808 293 OFFCURVE",
"808 385 CURVE SMOOTH",
"808 439 OFFCURVE",
"792 496 OFFCURVE",
"750 553 CURVE SMOOTH",
"698 624 OFFCURVE",
"633 641 OFFCURVE",
"564 641 CURVE SMOOTH",
"506 641 OFFCURVE",
"445 629 OFFCURVE",
"386 629 CURVE SMOOTH",
"365 629 LINE SMOOTH",
"315 629 OFFCURVE",
"263 634 OFFCURVE",
"206 634 CURVE SMOOTH",
"192 634 OFFCURVE",
"178 634 OFFCURVE",
"163 633 CURVE SMOOTH",
"145 632 LINE",
"135 616 LINE",
"158 616 LINE SMOOTH",
"185 616 OFFCURVE",
"239 615 OFFCURVE",
"256 612 CURVE SMOOTH",
"281 608 OFFCURVE",
"287 583 OFFCURVE",
"287 557 CURVE SMOOTH",
"287 540 OFFCURVE",
"284 523 OFFCURVE",
"283 511 CURVE SMOOTH",
"278 454 OFFCURVE",
"249 282 OFFCURVE",
"206 142 CURVE SMOOTH",
"175 40 OFFCURVE",
"174 28 OFFCURVE",
"99 28 CURVE SMOOTH",
"82 28 OFFCURVE",
"60 29 OFFCURVE",
"34 29 CURVE",
"31 30 OFFCURVE",
"21 30 OFFCURVE",
"21 30 CURVE",
"10 13 LINE",
"29 13 LINE SMOOTH",
"92 13 OFFCURVE",
"162 15 OFFCURVE",
"190 16 CURVE SMOOTH",
"211 16 OFFCURVE",
"227 16 OFFCURVE",
"235 15 CURVE",
"312 13 OFFCURVE",
"369 4 OFFCURVE",
"421 4 CURVE SMOOTH"
);
},
{
closed = 1;
nodes = (
"367 45 OFFCURVE",
"317 73 OFFCURVE",
"317 160 CURVE SMOOTH",
"317 177 OFFCURVE",
"319 195 OFFCURVE",
"323 216 CURVE SMOOTH",
"332 271 OFFCURVE",
"358 455 OFFCURVE",
"400 549 CURVE SMOOTH",
"420 594 OFFCURVE",
"453 612 OFFCURVE",
"490 612 CURVE SMOOTH",
"516 612 OFFCURVE",
"543 603 OFFCURVE",
"569 588 CURVE SMOOTH",
"657 536 OFFCURVE",
"702 443 OFFCURVE",
"702 347 CURVE SMOOTH",
"702 256 OFFCURVE",
"663 163 OFFCURVE",
"582 98 CURVE SMOOTH",
"553 74 OFFCURVE",
"485 45 OFFCURVE",
"425 45 CURVE SMOOTH"
);
}
);
width = 762;
}
);
leftKerningGroup = H;
leftMetricsKey = H;
note = D;
rightKerningGroup = O;
rightMetricsKey = O;
unicode = 0044;
},
{
glyphname = Eth;
lastChange = "2021-10-18 12:38:38 +0000";
layers = (
{
background = {
paths = (
{
closed = 1;
nodes = (
"446 4 OFFCURVE",
"505 21 OFFCURVE",
"587 96 CURVE SMOOTH",
"663 166 LINE SMOOTH",
"714 213 OFFCURVE",
"763 293 OFFCURVE",
"763 385 CURVE SMOOTH",
"763 439 OFFCURVE",
"747 496 OFFCURVE",
"705 553 CURVE SMOOTH",
"653 624 OFFCURVE",
"588 641 OFFCURVE",
"519 641 CURVE SMOOTH",
"461 641 OFFCURVE",
"400 629 OFFCURVE",
"341 629 CURVE SMOOTH",
"320 629 LINE SMOOTH",
"258 628 OFFCURVE",
"191 632 OFFCURVE",
"118 633 CURVE SMOOTH",
"100 632 LINE",
"90 616 LINE",
"113 616 LINE SMOOTH",
"140 616 OFFCURVE",
"194 615 OFFCURVE",
"211 612 CURVE SMOOTH",
"236 608 OFFCURVE",
"242 583 OFFCURVE",
"242 557 CURVE SMOOTH",
"242 540 OFFCURVE",
"239 523 OFFCURVE",
"238 511 CURVE SMOOTH",
"233 454 OFFCURVE",
"204 282 OFFCURVE",
"161 142 CURVE SMOOTH",
"130 40 OFFCURVE",
"129 28 OFFCURVE",
"54 28 CURVE SMOOTH",
"37 28 OFFCURVE",
"15 29 OFFCURVE",
"-11 29 CURVE",
"-14 30 OFFCURVE",
"-24 30 OFFCURVE",
"-24 30 CURVE",
"-35 13 LINE",
"-16 13 LINE SMOOTH",
"47 13 OFFCURVE",
"117 15 OFFCURVE",
"145 16 CURVE SMOOTH",
"166 16 OFFCURVE",
"182 16 OFFCURVE",
"190 15 CURVE",
"267 13 OFFCURVE",
"324 4 OFFCURVE",
"376 4 CURVE SMOOTH"
);
},
{
closed = 1;
nodes = (
"341 217 LINE SMOOTH",
"347 217 OFFCURVE",
"367 251 OFFCURVE",
"357 251 CURVE SMOOTH",
"114 251 LINE SMOOTH",
"109 251 OFFCURVE",
"92 217 OFFCURVE",
"97 217 CURVE SMOOTH"
);
},
{
closed = 1;
nodes = (
"314 43 OFFCURVE",
"286 49 OFFCURVE",
"268 63 CURVE",
"266 71 OFFCURVE",
"265 83 OFFCURVE",
"265 97 CURVE SMOOTH",
"265 126 OFFCURVE",
"269 167 OFFCURVE",
"278 216 CURVE SMOOTH",
"287 271 OFFCURVE",
"313 455 OFFCURVE",
"355 549 CURVE SMOOTH",
"375 594 OFFCURVE",
"408 612 OFFCURVE",
"445 612 CURVE SMOOTH",
"471 612 OFFCURVE",
"498 603 OFFCURVE",
"524 588 CURVE SMOOTH",
"612 536 OFFCURVE",
"657 443 OFFCURVE",
"657 347 CURVE SMOOTH",
"657 256 OFFCURVE",
"618 163 OFFCURVE",
"537 98 CURVE SMOOTH",
"506 73 OFFCURVE",
"416 43 OFFCURVE",
"345 43 CURVE SMOOTH"
);
}
);
};
layerId = "C36B7B90-196F-45C3-8412-B02CF16DA361";
paths = (
{
closed = 1;
nodes = (
"446 4 OFFCURVE",
"505 21 OFFCURVE",
"587 96 CURVE SMOOTH",
"663 166 LINE SMOOTH",
"714 213 OFFCURVE",
"763 293 OFFCURVE",
"763 385 CURVE SMOOTH",
"763 439 OFFCURVE",
"747 496 OFFCURVE",
"705 553 CURVE SMOOTH",
"653 624 OFFCURVE",
"588 641 OFFCURVE",
"519 641 CURVE SMOOTH",
"461 641 OFFCURVE",
"400 629 OFFCURVE",
"341 629 CURVE SMOOTH",
"320 629 LINE SMOOTH",
"258 628 OFFCURVE",
"191 632 OFFCURVE",
"118 633 CURVE SMOOTH",
"100 632 LINE",
"90 616 LINE",
"113 616 LINE SMOOTH",
"140 616 OFFCURVE",
"194 615 OFFCURVE",
"211 612 CURVE SMOOTH",
"236 608 OFFCURVE",
"242 583 OFFCURVE",
"242 557 CURVE SMOOTH",
"242 540 OFFCURVE",
"239 523 OFFCURVE",
"238 511 CURVE SMOOTH",
"233 454 OFFCURVE",
"204 282 OFFCURVE",
"161 142 CURVE SMOOTH",
"130 40 OFFCURVE",
"129 28 OFFCURVE",
"54 28 CURVE SMOOTH",
"37 28 OFFCURVE",
"15 29 OFFCURVE",
"-11 29 CURVE",
"-14 30 OFFCURVE",
"-24 30 OFFCURVE",
"-24 30 CURVE",
"-35 13 LINE",
"-16 13 LINE SMOOTH",
"47 13 OFFCURVE",
"117 15 OFFCURVE",
"145 16 CURVE SMOOTH",
"166 16 OFFCURVE",
"182 16 OFFCURVE",
"190 15 CURVE",
"267 13 OFFCURVE",
"324 4 OFFCURVE",
"376 4 CURVE SMOOTH"
);
},
{
closed = 1;
nodes = (
"341 217 LINE SMOOTH",
"347 217 OFFCURVE",
"367 251 OFFCURVE",
"357 251 CURVE SMOOTH",
"114 251 LINE SMOOTH",
"109 251 OFFCURVE",
"92 217 OFFCURVE",
"97 217 CURVE SMOOTH"
);
},
{
closed = 1;
nodes = (
"314 43 OFFCURVE",
"286 49 OFFCURVE",
"268 63 CURVE",
"266 71 OFFCURVE",
"265 83 OFFCURVE",
"265 97 CURVE SMOOTH",
"265 126 OFFCURVE",
"269 167 OFFCURVE",
"278 216 CURVE SMOOTH",
"287 271 OFFCURVE",
"313 455 OFFCURVE",
"355 549 CURVE SMOOTH",
"375 594 OFFCURVE",
"408 612 OFFCURVE",
"445 612 CURVE SMOOTH",
"471 612 OFFCURVE",
"498 603 OFFCURVE",
"524 588 CURVE SMOOTH",
"612 536 OFFCURVE",
"657 443 OFFCURVE",
"657 347 CURVE SMOOTH",
"657 256 OFFCURVE",
"618 163 OFFCURVE",
"537 98 CURVE SMOOTH",
"506 73 OFFCURVE",
"416 43 OFFCURVE",
"345 43 CURVE SMOOTH"
);
}
);
width = 755;
}
);
leftKerningGroup = H;
rightKerningGroup = O;
unicode = 00D0;
},
{
glyphname = E;
lastChange = "2021-10-18 12:39:05 +0000";
layers = (
{
anchors = (
{
name = bottom;
position = "{359, 10}";
},
{
name = ogonek;
position = "{531, 18}";
},
{
name = top;
position = "{473, 630}";
},
{
name = topleft;
position = "{20, 630}";
}
);
background = {
paths = (
{
closed = 1;
nodes = (
"531 6 OFFCURVE",
"544 8 OFFCURVE",
"552 13 CURVE SMOOTH",
"601 44 OFFCURVE",
"632 159 OFFCURVE",
"646 189 CURVE",
"636 196 LINE",
"592 109 OFFCURVE",
"512 44 OFFCURVE",
"412 44 CURVE SMOOTH",
"327 44 OFFCURVE",
"306 67 OFFCURVE",
"306 102 CURVE SMOOTH",
"306 109 OFFCURVE",
"307 116 OFFCURVE",
"308 123 CURVE SMOOTH",
"319 202 OFFCURVE",
"328 261 OFFCURVE",
"339 321 CURVE",
"375 321 OFFCURVE",
"418 319 OFFCURVE",
"490 319 CURVE SMOOTH",
"508 319 OFFCURVE",
"524 320 OFFCURVE",
"540 328 CURVE SMOOTH",
"558 336 OFFCURVE",
"589 355 OFFCURVE",
"600 375 CURVE SMOOTH",
"604 381 OFFCURVE",
"603 385 OFFCURVE",
"597 381 CURVE SMOOTH",
"585 372 OFFCURVE",
"523 361 OFFCURVE",
"477 359 CURVE SMOOTH",
"428 357 OFFCURVE",
"384 354 OFFCURVE",
"345 352 CURVE",
"354 399 OFFCURVE",
"365 448 OFFCURVE",
"380 508 CURVE SMOOTH",
"405 609 OFFCURVE",
"473 595 OFFCURVE",
"560 597 CURVE SMOOTH",
"608 597 OFFCURVE",
"641 563 OFFCURVE",
"641 495 CURVE SMOOTH",
"641 486 OFFCURVE",
"640 476 OFFCURVE",
"639 466 CURVE SMOOTH",
"639 463 OFFCURVE",
"637 448 OFFCURVE",
"637 448 CURVE",
"651 439 LINE",
"651 439 OFFCURVE",
"653 455 OFFCURVE",
"654 459 CURVE SMOOTH",
"659 504 OFFCURVE",
"660 528 OFFCURVE",
"668 572 CURVE SMOOTH",
"670 583 OFFCURVE",
"671 593 OFFCURVE",
"671 600 CURVE SMOOTH",
"671 628 OFFCURVE",
"658 638 OFFCURVE",
"624 636 CURVE SMOOTH",
"524 631 OFFCURVE",
"446 629 OFFCURVE",
"344 629 CURVE SMOOTH",
"288 629 OFFCURVE",
"229 632 OFFCURVE",
"165 633 CURVE SMOOTH",
"146 632 LINE",
"136 616 LINE",
"158 616 LINE SMOOTH",
"185 616 OFFCURVE",
"239 615 OFFCURVE",
"255 612 CURVE SMOOTH",
"280 608 OFFCURVE",
"286 583 OFFCURVE",
"286 558 CURVE SMOOTH",
"286 541 OFFCURVE",
"284 523 OFFCURVE",
"282 511 CURVE SMOOTH",
"279 480 OFFCURVE",
"270 418 OFFCURVE",
"255 345 CURVE",
"246 344 OFFCURVE",
"236 344 OFFCURVE",
"232 342 CURVE",
"221 339 OFFCURVE",
"196 328 OFFCURVE",
"196 322 CURVE SMOOTH",
"196 319 OFFCURVE",
"202 318 OFFCURVE",
"219 319 CURVE SMOOTH",
"228 320 OFFCURVE",
"241 320 OFFCURVE",
"251 321 CURVE",
"239 263 OFFCURVE",
"223 200 OFFCURVE",
"206 142 CURVE SMOOTH",
"175 42 OFFCURVE",
"173 28 OFFCURVE",
"102 28 CURVE SMOOTH",
"82 28 OFFCURVE",
"57 29 OFFCURVE",
"25 30 CURVE SMOOTH",
"20 30 OFFCURVE",
"10 20 OFFCURVE",
"10 15 CURVE SMOOTH",
"10 14 OFFCURVE",
"11 13 OFFCURVE",
"13 13 CURVE SMOOTH",
"14 13 LINE SMOOTH",
"79 12 OFFCURVE",
"160 15 OFFCURVE",
"189 16 CURVE SMOOTH",
"226 18 OFFCURVE",
"255 19 OFFCURVE",
"284 19 CURVE SMOOTH",
"307 19 OFFCURVE",
"330 18 OFFCURVE",
"357 16 CURVE SMOOTH",
"428 11 OFFCURVE",
"477 6 OFFCURVE",
"509 6 CURVE SMOOTH"
);
}
);
};
layerId = "C36B7B90-196F-45C3-8412-B02CF16DA361";
paths = (
{
closed = 1;
nodes = (
"531 6 OFFCURVE",
"544 8 OFFCURVE",
"552 13 CURVE SMOOTH",
"601 44 OFFCURVE",
"632 159 OFFCURVE",
"646 189 CURVE",
"636 196 LINE",
"592 109 OFFCURVE",
"512 44 OFFCURVE",
"412 44 CURVE SMOOTH",
"327 44 OFFCURVE",
"306 67 OFFCURVE",
"306 102 CURVE SMOOTH",
"306 109 OFFCURVE",
"307 116 OFFCURVE",
"308 123 CURVE SMOOTH",
"319 202 OFFCURVE",
"328 261 OFFCURVE",
"339 321 CURVE",
"375 321 OFFCURVE",
"418 319 OFFCURVE",
"490 319 CURVE SMOOTH",
"508 319 OFFCURVE",
"524 320 OFFCURVE",
"540 328 CURVE SMOOTH",
"558 336 OFFCURVE",
"589 355 OFFCURVE",
"600 375 CURVE SMOOTH",
"604 381 OFFCURVE",
"603 385 OFFCURVE",
"597 381 CURVE SMOOTH",
"585 372 OFFCURVE",
"523 361 OFFCURVE",
"477 359 CURVE SMOOTH",
"428 357 OFFCURVE",
"384 354 OFFCURVE",
"345 352 CURVE",
"354 399 OFFCURVE",
"365 448 OFFCURVE",
"380 508 CURVE SMOOTH",
"405 609 OFFCURVE",
"473 595 OFFCURVE",
"560 597 CURVE SMOOTH",
"608 597 OFFCURVE",
"641 563 OFFCURVE",
"641 495 CURVE SMOOTH",
"641 486 OFFCURVE",
"640 476 OFFCURVE",
"639 466 CURVE SMOOTH",
"639 463 OFFCURVE",
"637 448 OFFCURVE",
"637 448 CURVE",
"651 439 LINE",
"651 439 OFFCURVE",
"653 455 OFFCURVE",
"654 459 CURVE SMOOTH",
"659 504 OFFCURVE",
"660 528 OFFCURVE",
"668 572 CURVE SMOOTH",
"670 583 OFFCURVE",
"671 593 OFFCURVE",
"671 600 CURVE SMOOTH",
"671 628 OFFCURVE",
"658 638 OFFCURVE",
"624 636 CURVE SMOOTH",
"524 631 OFFCURVE",
"446 629 OFFCURVE",
"344 629 CURVE SMOOTH",
"298 629 OFFCURVE",
"250 634 OFFCURVE",
"198 634 CURVE SMOOTH",
"187 634 OFFCURVE",
"176 634 OFFCURVE",
"165 633 CURVE SMOOTH",
"146 632 LINE",
"136 616 LINE",
"158 616 LINE SMOOTH",
"185 616 OFFCURVE",
"239 615 OFFCURVE",
"255 612 CURVE SMOOTH",
"280 608 OFFCURVE",
"286 583 OFFCURVE",
"286 558 CURVE SMOOTH",
"286 541 OFFCURVE",
"284 523 OFFCURVE",
"282 511 CURVE SMOOTH",
"279 480 OFFCURVE",
"270 418 OFFCURVE",
"255 345 CURVE",
"246 344 OFFCURVE",
"236 344 OFFCURVE",
"232 342 CURVE",
"221 339 OFFCURVE",
"196 328 OFFCURVE",
"196 322 CURVE SMOOTH",
"196 320 OFFCURVE",
"199 319 OFFCURVE",
"208 319 CURVE SMOOTH",
"219 319 LINE SMOOTH",
"228 320 OFFCURVE",
"241 320 OFFCURVE",
"251 321 CURVE",
"239 263 OFFCURVE",
"223 200 OFFCURVE",
"206 142 CURVE SMOOTH",
"175 42 OFFCURVE",
"173 28 OFFCURVE",
"102 28 CURVE SMOOTH",
"82 28 OFFCURVE",
"57 29 OFFCURVE",
"25 30 CURVE SMOOTH",
"20 30 OFFCURVE",
"10 20 OFFCURVE",
"10 15 CURVE SMOOTH",
"10 14 OFFCURVE",
"11 13 OFFCURVE",
"13 13 CURVE SMOOTH",
"14 13 LINE SMOOTH",
"79 13 OFFCURVE",
"160 15 OFFCURVE",
"189 16 CURVE SMOOTH",
"226 18 OFFCURVE",
"255 19 OFFCURVE",
"284 19 CURVE SMOOTH",
"307 19 OFFCURVE",
"330 18 OFFCURVE",
"357 16 CURVE SMOOTH",
"428 11 OFFCURVE",
"477 6 OFFCURVE",
"509 6 CURVE SMOOTH"
);
}
);
width = 649;
}
);
leftKerningGroup = H;
leftMetricsKey = H;
note = E;
rightKerningGroup = E;
unicode = 0045;
},
{
glyphname = F;
lastChange = "2021-10-18 12:39:05 +0000";
layers = (
{
background = {
paths = (
{
closed = 1;
nodes = (
"29 13 LINE SMOOTH",
"92 12 OFFCURVE",
"163 15 OFFCURVE",
"191 16 CURVE SMOOTH",
"212 17 OFFCURVE",
"239 17 OFFCURVE",
"268 17 CURVE SMOOTH",
"325 17 OFFCURVE",
"391 16 OFFCURVE",
"434 13 CURVE SMOOTH",
"448 13 LINE",
"458 29 LINE",
"438 28 LINE SMOOTH",
"429 28 OFFCURVE",
"416 27 OFFCURVE",
"404 27 CURVE SMOOTH",
"382 27 OFFCURVE",
"358 28 OFFCURVE",
"348 30 CURVE SMOOTH",
"336 32 OFFCURVE",
"313 42 OFFCURVE",
"308 75 CURVE SMOOTH",
"307 82 OFFCURVE",
"306 90 OFFCURVE",
"306 99 CURVE SMOOTH",
"306 150 OFFCURVE",
"321 238 OFFCURVE",
"338 322 CURVE",
"371 321 OFFCURVE",
"414 319 OFFCURVE",
"486 319 CURVE SMOOTH",
"505 319 OFFCURVE",
"523 320 OFFCURVE",
"541 328 CURVE SMOOTH",
"558 337 OFFCURVE",
"591 355 OFFCURVE",
"601 375 CURVE",
"605 381 OFFCURVE",
"604 385 OFFCURVE",
"598 381 CURVE SMOOTH",
"587 372 OFFCURVE",
"523 361 OFFCURVE",
"478 359 CURVE SMOOTH",
"428 356 OFFCURVE",
"383 354 OFFCURVE",
"344 352 CURVE",
"361 431 OFFCURVE",
"377 502 OFFCURVE",
"386 530 CURVE SMOOTH",
"405 597 OFFCURVE",
"463 595 OFFCURVE",
"560 597 CURVE SMOOTH",
"608 597 OFFCURVE",
"642 562 OFFCURVE",
"642 493 CURVE SMOOTH",
"642 484 OFFCURVE",
"641 475 OFFCURVE",
"640 465 CURVE",
"639 462 OFFCURVE",
"637 446 OFFCURVE",
"637 446 CURVE",
"651 437 LINE",
"651 437 OFFCURVE",
"654 456 OFFCURVE",
"654 460 CURVE",
"661 505 OFFCURVE",
"661 529 OFFCURVE",
"669 572 CURVE SMOOTH",
"671 583 OFFCURVE",
"672 593 OFFCURVE",
"672 601 CURVE SMOOTH",
"672 628 OFFCURVE",
"660 638 OFFCURVE",
"625 636 CURVE SMOOTH",
"526 631 OFFCURVE",
"449 629 OFFCURVE",
"349 629 CURVE SMOOTH",
"291 629 OFFCURVE",
"228 633 OFFCURVE",
"162 633 CURVE SMOOTH",
"146 632 LINE",
"136 616 LINE",
"160 616 LINE SMOOTH",
"187 616 OFFCURVE",
"240 615 OFFCURVE",
"257 612 CURVE SMOOTH",
"282 608 OFFCURVE",
"288 583 OFFCURVE",
"288 557 CURVE SMOOTH",
"288 540 OFFCURVE",
"285 523 OFFCURVE",
"284 511 CURVE SMOOTH",
"281 480 OFFCURVE",
"271 418 OFFCURVE",
"257 345 CURVE",
"248 344 OFFCURVE",
"238 344 OFFCURVE",
"233 342 CURVE SMOOTH",
"222 339 OFFCURVE",
"198 328 OFFCURVE",
"198 322 CURVE SMOOTH",
"198 319 OFFCURVE",
"204 318 OFFCURVE",
"221 319 CURVE SMOOTH",
"229 320 OFFCURVE",
"242 320 OFFCURVE",
"252 321 CURVE",
"240 263 OFFCURVE",
"225 200 OFFCURVE",
"207 142 CURVE SMOOTH",
"177 42 OFFCURVE",
"175 28 OFFCURVE",
"104 28 CURVE SMOOTH",
"86 28 OFFCURVE",
"62 29 OFFCURVE",
"32 30 CURVE SMOOTH",
"21 30 LINE",
"10 13 LINE"
);
}
);
};
layerId = "C36B7B90-196F-45C3-8412-B02CF16DA361";
paths = (
{
closed = 1;
nodes = (
"29 13 LINE SMOOTH",
"92 12 OFFCURVE",
"163 15 OFFCURVE",
"191 16 CURVE SMOOTH",
"212 17 OFFCURVE",
"239 17 OFFCURVE",
"268 17 CURVE SMOOTH",
"325 17 OFFCURVE",
"391 16 OFFCURVE",
"434 13 CURVE SMOOTH",
"448 13 LINE",
"458 29 LINE",
"438 28 LINE SMOOTH",
"429 28 OFFCURVE",
"416 27 OFFCURVE",
"404 27 CURVE SMOOTH",
"382 27 OFFCURVE",
"358 28 OFFCURVE",
"348 30 CURVE SMOOTH",
"336 32 OFFCURVE",
"313 42 OFFCURVE",
"308 75 CURVE SMOOTH",
"307 82 OFFCURVE",
"306 90 OFFCURVE",
"306 99 CURVE SMOOTH",
"306 150 OFFCURVE",
"321 238 OFFCURVE",
"338 322 CURVE",
"371 321 OFFCURVE",
"414 319 OFFCURVE",
"486 319 CURVE SMOOTH",
"505 319 OFFCURVE",
"523 320 OFFCURVE",
"541 328 CURVE SMOOTH",
"558 337 OFFCURVE",
"591 355 OFFCURVE",
"601 375 CURVE",
"605 381 OFFCURVE",
"604 385 OFFCURVE",
"598 381 CURVE SMOOTH",
"587 372 OFFCURVE",
"523 361 OFFCURVE",
"478 359 CURVE SMOOTH",
"428 356 OFFCURVE",
"383 354 OFFCURVE",
"344 352 CURVE",
"361 431 OFFCURVE",
"377 502 OFFCURVE",
"386 530 CURVE SMOOTH",
"405 597 OFFCURVE",
"463 595 OFFCURVE",
"560 597 CURVE SMOOTH",
"608 597 OFFCURVE",
"642 562 OFFCURVE",
"642 493 CURVE SMOOTH",
"642 484 OFFCURVE",
"641 475 OFFCURVE",
"640 465 CURVE",
"639 462 OFFCURVE",
"637 446 OFFCURVE",
"637 446 CURVE",
"651 437 LINE",
"651 437 OFFCURVE",
"654 456 OFFCURVE",
"654 460 CURVE",
"661 505 OFFCURVE",
"661 529 OFFCURVE",
"669 572 CURVE SMOOTH",
"671 583 OFFCURVE",
"672 593 OFFCURVE",
"672 601 CURVE SMOOTH",
"672 628 OFFCURVE",
"660 638 OFFCURVE",
"625 636 CURVE SMOOTH",
"526 631 OFFCURVE",
"449 629 OFFCURVE",
"349 629 CURVE SMOOTH",
"291 629 OFFCURVE",
"228 633 OFFCURVE",
"162 633 CURVE SMOOTH",
"146 632 LINE",
"136 616 LINE",
"160 616 LINE SMOOTH",
"187 616 OFFCURVE",
"240 615 OFFCURVE",
"257 612 CURVE SMOOTH",
"282 608 OFFCURVE",
"288 583 OFFCURVE",
"288 557 CURVE SMOOTH",
"288 540 OFFCURVE",
"285 523 OFFCURVE",
"284 511 CURVE SMOOTH",
"281 480 OFFCURVE",
"271 418 OFFCURVE",
"257 345 CURVE",
"248 344 OFFCURVE",
"238 344 OFFCURVE",
"233 342 CURVE SMOOTH",
"222 339 OFFCURVE",
"198 328 OFFCURVE",
"198 322 CURVE SMOOTH",
"198 320 OFFCURVE",
"201 319 OFFCURVE",
"210 319 CURVE SMOOTH",
"221 319 LINE SMOOTH",
"229 320 OFFCURVE",
"242 320 OFFCURVE",
"252 321 CURVE",
"240 263 OFFCURVE",
"225 200 OFFCURVE",
"207 142 CURVE SMOOTH",
"177 42 OFFCURVE",
"175 28 OFFCURVE",
"104 28 CURVE SMOOTH",
"86 28 OFFCURVE",
"62 29 OFFCURVE",
"32 30 CURVE SMOOTH",
"21 30 LINE",
"10 13 LINE"
);
}
);
width = 597;
}
);
leftKerningGroup = H;
leftMetricsKey = H;
note = F;
rightKerningGroup = F;
unicode = 0046;
},
{
glyphname = G;
lastChange = "2021-10-18 12:39:05 +0000";
layers = (
{
anchors = (
{
name = bottom;
position = "{392, 0}";
},
{
name = top;
position = "{554, 640}";
}
);
background = {
paths = (
{
closed = 1;
nodes = (
"414 4 OFFCURVE",
"514 22 OFFCURVE",
"575 22 CURVE SMOOTH",
"597 22 OFFCURVE",
"614 20 OFFCURVE",
"622 13 CURVE SMOOTH",
"628 8 OFFCURVE",
"632 6 OFFCURVE",
"636 6 CURVE SMOOTH",
"641 6 OFFCURVE",
"643 11 OFFCURVE",
"643 19 CURVE SMOOTH",
"645 69 OFFCURVE",
"659 158 OFFCURVE",
"667 181 CURVE SMOOTH",
"692 250 OFFCURVE",
"701 271 OFFCURVE",
"750 271 CURVE SMOOTH",
"781 271 LINE SMOOTH",
"793 271 OFFCURVE",
"807 271 OFFCURVE",
"821 270 CURVE",
"832 287 LINE",
"738 282 OFFCURVE",
"651 281 OFFCURVE",
"626 281 CURVE SMOOTH",
"564 281 OFFCURVE",
"502 284 OFFCURVE",
"440 286 CURVE",
"430 269 LINE",
"430 269 OFFCURVE",
"447 269 OFFCURVE",
"453 270 CURVE",
"480 270 OFFCURVE",
"534 268 OFFCURVE",
"551 266 CURVE SMOOTH",
"563 264 OFFCURVE",
"582 254 OFFCURVE",
"577 229 CURVE SMOOTH",
"569 192 OFFCURVE",
"563 139 OFFCURVE",
"552 102 CURVE SMOOTH",
"537 54 OFFCURVE",
"491 30 OFFCURVE",
"436 30 CURVE SMOOTH",
"328 30 OFFCURVE",
"187 120 OFFCURVE",
"187 288 CURVE SMOOTH",
"187 295 OFFCURVE",
"188 302 OFFCURVE",
"188 309 CURVE SMOOTH",
"202 505 OFFCURVE",
"357 587 OFFCURVE",
"518 587 CURVE SMOOTH",
"574 587 OFFCURVE",
"664 578 OFFCURVE",
"659 507 CURVE SMOOTH",
"657 484 OFFCURVE",
"633 424 OFFCURVE",
"633 424 CURVE",
"646 415 LINE",
"656 446 OFFCURVE",
"670 475 OFFCURVE",
"679 498 CURVE SMOOTH",
"688 518 OFFCURVE",
"699 538 OFFCURVE",
"705 560 CURVE SMOOTH",
"708 568 OFFCURVE",
"712 576 OFFCURVE",
"712 585 CURVE SMOOTH",
"712 632 OFFCURVE",
"647 643 OFFCURVE",
"607 643 CURVE SMOOTH",
"307 643 OFFCURVE",
"89 453 OFFCURVE",
"89 241 CURVE SMOOTH",
"89 91 OFFCURVE",
"212 4 OFFCURVE",
"359 4 CURVE SMOOTH"
);
}
);
};
layerId = "C36B7B90-196F-45C3-8412-B02CF16DA361";
paths = (
{
closed = 1;
nodes = (
"414 4 OFFCURVE",
"514 22 OFFCURVE",
"575 22 CURVE SMOOTH",
"597 22 OFFCURVE",
"614 20 OFFCURVE",
"622 13 CURVE SMOOTH",
"628 8 OFFCURVE",
"632 6 OFFCURVE",
"636 6 CURVE SMOOTH",
"641 6 OFFCURVE",
"643 11 OFFCURVE",
"643 19 CURVE SMOOTH",
"645 69 OFFCURVE",
"659 158 OFFCURVE",
"667 181 CURVE SMOOTH",
"692 250 OFFCURVE",
"701 271 OFFCURVE",
"750 271 CURVE SMOOTH",
"781 271 LINE SMOOTH",
"793 271 OFFCURVE",
"807 271 OFFCURVE",
"821 270 CURVE",
"832 287 LINE",
"738 282 OFFCURVE",
"651 281 OFFCURVE",
"626 281 CURVE SMOOTH",
"564 281 OFFCURVE",
"502 284 OFFCURVE",
"440 286 CURVE",
"430 269 LINE",
"430 269 OFFCURVE",
"447 269 OFFCURVE",
"453 270 CURVE",
"480 270 OFFCURVE",
"534 268 OFFCURVE",
"551 266 CURVE SMOOTH",
"563 264 OFFCURVE",
"582 254 OFFCURVE",
"577 229 CURVE SMOOTH",
"569 192 OFFCURVE",
"563 139 OFFCURVE",
"552 102 CURVE SMOOTH",
"537 54 OFFCURVE",
"491 30 OFFCURVE",
"436 30 CURVE SMOOTH",
"328 30 OFFCURVE",
"187 120 OFFCURVE",
"187 288 CURVE SMOOTH",
"187 295 OFFCURVE",
"188 302 OFFCURVE",
"188 309 CURVE SMOOTH",
"202 505 OFFCURVE",
"357 587 OFFCURVE",
"518 587 CURVE SMOOTH",
"574 587 OFFCURVE",
"664 578 OFFCURVE",
"659 507 CURVE SMOOTH",
"657 484 OFFCURVE",
"633 424 OFFCURVE",
"633 424 CURVE",
"646 415 LINE",
"656 446 OFFCURVE",
"670 475 OFFCURVE",
"679 498 CURVE SMOOTH",
"688 518 OFFCURVE",
"699 538 OFFCURVE",
"705 560 CURVE SMOOTH",
"708 568 OFFCURVE",
"712 576 OFFCURVE",
"712 585 CURVE SMOOTH",
"712 632 OFFCURVE",
"647 643 OFFCURVE",
"607 643 CURVE SMOOTH",
"307 643 OFFCURVE",
"89 453 OFFCURVE",
"89 241 CURVE SMOOTH",
"89 91 OFFCURVE",
"212 4 OFFCURVE",
"359 4 CURVE SMOOTH"
);
}
);
width = 736;
}
);
leftKerningGroup = O;
leftMetricsKey = C;
note = G;
rightKerningGroup = G;
unicode = 0047;
},
{
glyphname = H;
lastChange = "2021-10-18 12:39:05 +0000";
layers = (
{
anchors = (
{
name = bottom;
position = "{429, 0}";
},
{
name = center;
position = "{429, 315}";
},
{
name = top;
position = "{572, 630}";
},
{
name = topleft;
position = "{20, 630}";
}
);
background = {
paths = (
{
closed = 1;
nodes = (
"33 13 LINE SMOOTH",
"94 12 OFFCURVE",
"165 15 OFFCURVE",
"192 16 CURVE SMOOTH",
"213 17 OFFCURVE",
"235 17 OFFCURVE",
"257 17 CURVE SMOOTH",
"301 17 OFFCURVE",
"346 16 OFFCURVE",
"388 13 CURVE SMOOTH",
"406 13 LINE",
"416 29 LINE",
"390 28 LINE SMOOTH",
"370 29 OFFCURVE",
"341 30 OFFCURVE",
"325 33 CURVE SMOOTH",
"313 35 OFFCURVE",
"295 47 OFFCURVE",
"297 73 CURVE SMOOTH",
"302 115 OFFCURVE",
"325 230 OFFCURVE",
"338 299 CURVE SMOOTH",
"341 315 OFFCURVE",
"347 327 OFFCURVE",
"361 327 CURVE SMOOTH",
"634 327 LINE SMOOTH",
"650 327 OFFCURVE",
"659 327 OFFCURVE",
"659 315 CURVE SMOOTH",
"659 312 OFFCURVE",
"659 309 OFFCURVE",
"658 305 CURVE SMOOTH",
"647 252 OFFCURVE",
"640 199 OFFCURVE",
"624 142 CURVE SMOOTH",
"596 42 OFFCURVE",
"578 27 OFFCURVE",
"537 27 CURVE SMOOTH",
"527 27 OFFCURVE",
"516 28 OFFCURVE",
"503 29 CURVE SMOOTH",
"492 29 LINE",
"486 13 LINE",
"486 13 OFFCURVE",
"499 13 OFFCURVE",
"502 13 CURVE SMOOTH",
"602 16 LINE SMOOTH",
"615 17 OFFCURVE",
"629 17 OFFCURVE",
"645 17 CURVE SMOOTH",
"706 17 OFFCURVE",
"782 13 OFFCURVE",
"835 13 CURVE SMOOTH",
"842 13 OFFCURVE",
"850 21 OFFCURVE",
"850 26 CURVE SMOOTH",
"850 28 OFFCURVE",
"849 29 OFFCURVE",
"846 29 CURVE SMOOTH",
"845 29 LINE SMOOTH",
"830 28 OFFCURVE",
"755 30 OFFCURVE",
"734 33 CURVE SMOOTH",
"723 35 OFFCURVE",
"705 47 OFFCURVE",
"708 73 CURVE SMOOTH",
"717 149 OFFCURVE",
"765 399 OFFCURVE",
"794 503 CURVE SMOOTH",
"823 607 OFFCURVE",
"825 615 OFFCURVE",
"905 615 CURVE SMOOTH",
"922 615 OFFCURVE",
"943 615 OFFCURVE",
"968 615 CURVE SMOOTH",
"986 615 LINE",
"997 632 LINE",
"997 632 OFFCURVE",
"975 632 OFFCURVE",
"970 632 CURVE SMOOTH",
"934 632 LINE SMOOTH",
"883 632 OFFCURVE",
"832 631 OFFCURVE",
"809 630 CURVE SMOOTH",
"786 629 OFFCURVE",
"769 628 OFFCURVE",
"760 628 CURVE SMOOTH",
"696 628 OFFCURVE",
"606 633 OFFCURVE",
"606 633 CURVE",
"596 617 LINE",
"596 617 OFFCURVE",
"620 618 OFFCURVE",
"644 618 CURVE SMOOTH",
"659 618 OFFCURVE",
"675 618 OFFCURVE",
"683 616 CURVE SMOOTH",
"695 614 OFFCURVE",
"714 602 OFFCURVE",
"709 577 CURVE SMOOTH",
"698 513 OFFCURVE",
"687 452 OFFCURVE",
"676 392 CURVE SMOOTH",
"672 372 OFFCURVE",
"663 367 OFFCURVE",
"644 367 CURVE SMOOTH",
"379 367 LINE SMOOTH",
"360 367 OFFCURVE",
"356 374 OFFCURVE",
"356 381 CURVE SMOOTH",
"356 383 OFFCURVE",
"357 384 OFFCURVE",
"357 386 CURVE",
"370 451 OFFCURVE",
"385 510 OFFCURVE",
"392 533 CURVE SMOOTH",
"413 599 OFFCURVE",
"429 613 OFFCURVE",
"470 617 CURVE SMOOTH",
"488 619 OFFCURVE",
"543 618 OFFCURVE",
"543 618 CURVE",
"544 634 LINE",
"400 630 LINE SMOOTH",
"387 629 OFFCURVE",
"373 629 OFFCURVE",
"358 629 CURVE SMOOTH",
"298 629 OFFCURVE",
"224 633 OFFCURVE",
"171 633 CURVE SMOOTH",
"157 632 LINE",
"147 615 LINE",
"170 616 LINE SMOOTH",
"197 616 OFFCURVE",
"251 615 OFFCURVE",
"268 612 CURVE SMOOTH",
"285 609 OFFCURVE",
"303 587 OFFCURVE",
"299 561 CURVE SMOOTH",
"275 416 OFFCURVE",
"251 287 OFFCURVE",
"209 142 CURVE SMOOTH",
"180 42 OFFCURVE",
"177 28 OFFCURVE",
"107 28 CURVE SMOOTH",
"88 28 OFFCURVE",
"65 29 OFFCURVE",
"35 30 CURVE SMOOTH",
"20 30 LINE",
"10 13 LINE"
);
}
);
};
layerId = "C36B7B90-196F-45C3-8412-B02CF16DA361";
paths = (
{
closed = 1;
nodes = (
"33 13 LINE SMOOTH",
"94 13 OFFCURVE",
"165 15 OFFCURVE",
"192 16 CURVE SMOOTH",
"213 17 OFFCURVE",
"235 17 OFFCURVE",
"257 17 CURVE SMOOTH",
"301 17 OFFCURVE",
"346 13 OFFCURVE",
"388 13 CURVE SMOOTH",
"406 13 LINE",
"416 29 LINE",
"390 28 LINE SMOOTH",
"370 27 OFFCURVE",
"341 30 OFFCURVE",
"325 33 CURVE SMOOTH",
"313 35 OFFCURVE",
"295 47 OFFCURVE",
"297 73 CURVE SMOOTH",
"302 115 OFFCURVE",
"325 230 OFFCURVE",
"338 299 CURVE SMOOTH",
"341 315 OFFCURVE",
"347 327 OFFCURVE",
"361 327 CURVE SMOOTH",
"634 327 LINE SMOOTH",
"650 327 OFFCURVE",
"659 327 OFFCURVE",
"659 315 CURVE SMOOTH",
"659 312 OFFCURVE",
"659 309 OFFCURVE",
"658 305 CURVE SMOOTH",
"647 252 OFFCURVE",
"640 199 OFFCURVE",
"624 142 CURVE SMOOTH",
"596 42 OFFCURVE",
"578 27 OFFCURVE",
"537 27 CURVE SMOOTH",
"527 27 OFFCURVE",
"516 29 OFFCURVE",
"503 29 CURVE SMOOTH",
"492 29 LINE",
"486 13 LINE",
"502 13 LINE",
"602 16 LINE SMOOTH",
"615 16 OFFCURVE",
"629 17 OFFCURVE",
"645 17 CURVE SMOOTH",
"706 17 OFFCURVE",
"782 13 OFFCURVE",
"835 13 CURVE SMOOTH",
"842 13 OFFCURVE",
"850 21 OFFCURVE",
"850 26 CURVE SMOOTH",
"850 28 OFFCURVE",
"849 29 OFFCURVE",
"846 29 CURVE SMOOTH",
"845 29 LINE SMOOTH",
"830 29 OFFCURVE",
"755 30 OFFCURVE",
"734 33 CURVE SMOOTH",
"723 35 OFFCURVE",
"705 47 OFFCURVE",
"708 73 CURVE SMOOTH",
"717 149 OFFCURVE",
"765 399 OFFCURVE",
"794 503 CURVE SMOOTH",
"823 607 OFFCURVE",
"825 615 OFFCURVE",
"905 615 CURVE SMOOTH",
"968 615 LINE",
"986 615 LINE",
"997 632 LINE",
"970 632 LINE",
"934 632 LINE SMOOTH",
"883 632 OFFCURVE",
"832 631 OFFCURVE",
"809 630 CURVE SMOOTH",
"786 629 OFFCURVE",
"769 628 OFFCURVE",
"760 628 CURVE SMOOTH",
"696 628 OFFCURVE",
"606 633 OFFCURVE",
"606 633 CURVE",
"596 617 LINE",
"596 617 OFFCURVE",
"620 618 OFFCURVE",
"644 618 CURVE SMOOTH",
"659 618 OFFCURVE",
"675 618 OFFCURVE",
"683 616 CURVE SMOOTH",
"695 614 OFFCURVE",
"714 602 OFFCURVE",
"709 577 CURVE SMOOTH",
"698 513 OFFCURVE",
"687 452 OFFCURVE",
"676 392 CURVE SMOOTH",
"672 372 OFFCURVE",
"663 367 OFFCURVE",
"644 367 CURVE SMOOTH",
"379 367 LINE SMOOTH",
"360 367 OFFCURVE",
"356 374 OFFCURVE",
"356 381 CURVE SMOOTH",
"356 383 OFFCURVE",
"357 384 OFFCURVE",
"357 386 CURVE",
"370 451 OFFCURVE",
"385 510 OFFCURVE",
"392 533 CURVE SMOOTH",
"413 599 OFFCURVE",
"429 613 OFFCURVE",
"470 617 CURVE SMOOTH",
"488 619 OFFCURVE",
"543 618 OFFCURVE",
"543 618 CURVE",
"544 634 LINE",
"400 630 LINE SMOOTH",
"387 630 OFFCURVE",
"373 629 OFFCURVE",
"358 629 CURVE SMOOTH",
"310 629 OFFCURVE",
"253 634 OFFCURVE",
"205 634 CURVE SMOOTH",
"193 634 OFFCURVE",
"182 634 OFFCURVE",
"171 633 CURVE SMOOTH",
"157 632 LINE",
"147 615 LINE",
"170 616 LINE SMOOTH",
"197 617 OFFCURVE",
"251 615 OFFCURVE",
"268 612 CURVE SMOOTH",
"285 609 OFFCURVE",
"303 587 OFFCURVE",
"299 561 CURVE SMOOTH",
"275 416 OFFCURVE",
"251 287 OFFCURVE",
"209 142 CURVE SMOOTH",
"180 42 OFFCURVE",
"177 28 OFFCURVE",
"107 28 CURVE SMOOTH",
"88 28 OFFCURVE",
"65 30 OFFCURVE",
"35 30 CURVE SMOOTH",
"20 30 LINE",
"10 13 LINE"
);
}
);
width = 857;
}
);
leftKerningGroup = H;
note = H;
rightKerningGroup = H;
unicode = 0048;
},
{
glyphname = I;
lastChange = "2021-10-18 12:39:05 +0000";
layers = (
{
anchors = (
{
name = bottom;
position = "{220, 0}";
},
{
name = ogonek;
position = "{253, 26}";
},
{
name = top;
position = "{360, 630}";
},
{
name = topleft;
position = "{20, 630}";
}
);
background = {
paths = (
{
closed = 1;
nodes = (
"14 13 LINE SMOOTH",
"78 12 OFFCURVE",
"158 15 OFFCURVE",
"189 16 CURVE SMOOTH",
"202 17 OFFCURVE",
"216 17 OFFCURVE",
"232 17 CURVE SMOOTH",
"293 17 OFFCURVE",
"368 13 OFFCURVE",
"421 13 CURVE SMOOTH",
"429 13 OFFCURVE",
"437 21 OFFCURVE",
"437 26 CURVE SMOOTH",
"437 28 OFFCURVE",
"435 29 OFFCURVE",
"432 29 CURVE SMOOTH",
"431 29 LINE SMOOTH",
"416 28 OFFCURVE",
"341 30 OFFCURVE",
"321 33 CURVE SMOOTH",
"309 35 OFFCURVE",
"291 47 OFFCURVE",
"294 73 CURVE SMOOTH",
"302 149 OFFCURVE",
"352 399 OFFCURVE",
"380 503 CURVE SMOOTH",
"407 603 OFFCURVE",
"414 617 OFFCURVE",
"485 617 CURVE SMOOTH",
"506 617 OFFCURVE",
"532 615 OFFCURVE",
"565 615 CURVE",
"570 614 OFFCURVE",
"579 624 OFFCURVE",
"579 629 CURVE SMOOTH",
"579 631 OFFCURVE",
"578 632 OFFCURVE",
"576 632 CURVE SMOOTH",
"575 632 LINE SMOOTH",
"560 632 OFFCURVE",
"543 633 OFFCURVE",
"526 633 CURVE SMOOTH",
"473 633 OFFCURVE",
"419 631 OFFCURVE",
"396 630 CURVE SMOOTH",
"383 629 OFFCURVE",
"369 629 OFFCURVE",
"353 629 CURVE SMOOTH",
"292 629 OFFCURVE",
"216 633 OFFCURVE",
"164 633 CURVE SMOOTH",
"157 633 OFFCURVE",
"149 625 OFFCURVE",
"149 620 CURVE SMOOTH",
"149 618 OFFCURVE",
"150 616 OFFCURVE",
"154 616 CURVE SMOOTH",
"168 617 OFFCURVE",
"244 615 OFFCURVE",
"264 612 CURVE SMOOTH",
"279 609 OFFCURVE",
"295 592 OFFCURVE",
"295 570 CURVE SMOOTH",
"295 567 OFFCURVE",
"295 564 OFFCURVE",
"294 561 CURVE",
"270 416 OFFCURVE",
"246 287 OFFCURVE",
"205 142 CURVE SMOOTH",
"176 42 OFFCURVE",
"173 29 OFFCURVE",
"101 29 CURVE SMOOTH",
"82 29 OFFCURVE",
"57 30 OFFCURVE",
"25 30 CURVE",
"19 31 OFFCURVE",
"10 21 OFFCURVE",
"10 16 CURVE SMOOTH",
"10 14 OFFCURVE",
"11 13 OFFCURVE",
"13 13 CURVE SMOOTH"
);
}
);
};
layerId = "C36B7B90-196F-45C3-8412-B02CF16DA361";
paths = (
{
closed = 1;
nodes = (
"14 13 LINE SMOOTH",
"78 13 OFFCURVE",
"158 15 OFFCURVE",
"189 16 CURVE SMOOTH",
"202 17 OFFCURVE",
"216 17 OFFCURVE",
"232 17 CURVE SMOOTH",
"293 17 OFFCURVE",
"368 13 OFFCURVE",
"421 13 CURVE SMOOTH",
"429 13 OFFCURVE",
"437 21 OFFCURVE",
"437 26 CURVE SMOOTH",
"437 28 OFFCURVE",
"435 29 OFFCURVE",
"432 29 CURVE SMOOTH",
"431 29 LINE SMOOTH",
"416 29 OFFCURVE",
"341 30 OFFCURVE",
"321 33 CURVE SMOOTH",
"309 35 OFFCURVE",
"291 47 OFFCURVE",
"294 73 CURVE SMOOTH",
"302 149 OFFCURVE",
"352 399 OFFCURVE",
"380 503 CURVE SMOOTH",
"407 603 OFFCURVE",
"414 617 OFFCURVE",
"485 617 CURVE SMOOTH",
"506 617 OFFCURVE",
"532 615 OFFCURVE",
"565 615 CURVE",
"570 614 OFFCURVE",
"579 624 OFFCURVE",
"579 629 CURVE SMOOTH",
"579 631 OFFCURVE",
"578 632 OFFCURVE",
"576 632 CURVE SMOOTH",
"575 632 LINE SMOOTH",
"560 632 OFFCURVE",
"543 633 OFFCURVE",
"526 633 CURVE SMOOTH",
"473 633 OFFCURVE",
"419 631 OFFCURVE",
"396 630 CURVE SMOOTH",
"383 629 OFFCURVE",
"369 629 OFFCURVE",
"353 629 CURVE SMOOTH",
"292 629 OFFCURVE",
"216 633 OFFCURVE",
"164 633 CURVE SMOOTH",
"157 633 OFFCURVE",
"149 625 OFFCURVE",
"149 620 CURVE SMOOTH",
"149 618 OFFCURVE",
"150 616 OFFCURVE",
"154 616 CURVE SMOOTH",
"168 617 OFFCURVE",
"244 615 OFFCURVE",
"264 612 CURVE SMOOTH",
"279 609 OFFCURVE",
"295 592 OFFCURVE",
"295 570 CURVE SMOOTH",
"295 567 OFFCURVE",
"295 564 OFFCURVE",
"294 561 CURVE",
"270 416 OFFCURVE",
"246 287 OFFCURVE",
"205 142 CURVE SMOOTH",
"176 42 OFFCURVE",
"173 29 OFFCURVE",
"101 29 CURVE SMOOTH",
"82 29 OFFCURVE",
"57 30 OFFCURVE",
"25 30 CURVE",
"19 31 OFFCURVE",
"10 21 OFFCURVE",
"10 16 CURVE SMOOTH",
"10 14 OFFCURVE",
"11 13 OFFCURVE",
"13 13 CURVE SMOOTH"
);
}
);
width = 439;
}
);
leftKerningGroup = I;
leftMetricsKey = H;
note = I;
rightKerningGroup = H;
rightMetricsKey = H;
unicode = 0049;
},
{
glyphname = J;
lastChange = "2021-10-18 12:39:05 +0000";
layers = (
{
anchors = (
{
name = bottom;
position = "{228, 0}";
},
{
name = top;
position = "{404, 630}";
}
);
background = {
paths = (
{
closed = 1;
nodes = (
"159 -4 OFFCURVE",
"180 -2 OFFCURVE",
"197 1 CURVE SMOOTH",
"251 10 OFFCURVE",
"282 32 OFFCURVE",
"308 61 CURVE SMOOTH",
"341 98 OFFCURVE",
"341 132 OFFCURVE",
"350 176 CURVE SMOOTH",
"365 252 OFFCURVE",
"386 353 OFFCURVE",
"402 432 CURVE SMOOTH",
"411 476 OFFCURVE",
"420 515 OFFCURVE",
"426 533 CURVE SMOOTH",
"443 579 OFFCURVE",
"467 617 OFFCURVE",
"509 617 CURVE SMOOTH",
"527 617 OFFCURVE",
"549 616 OFFCURVE",
"575 615 CURVE",
"580 614 OFFCURVE",
"590 625 OFFCURVE",
"590 630 CURVE SMOOTH",
"590 631 OFFCURVE",
"589 632 OFFCURVE",
"587 632 CURVE SMOOTH",
"586 632 LINE SMOOTH",
"573 632 OFFCURVE",
"560 633 OFFCURVE",
"546 633 CURVE SMOOTH",
"504 633 OFFCURVE",
"460 631 OFFCURVE",
"432 630 CURVE SMOOTH",
"420 630 OFFCURVE",
"407 629 OFFCURVE",
"395 629 CURVE SMOOTH",
"383 629 OFFCURVE",
"371 630 OFFCURVE",
"358 630 CURVE SMOOTH",
"310 630 LINE SMOOTH",
"279 630 OFFCURVE",
"251 630 OFFCURVE",
"214 633 CURVE SMOOTH",
"206 633 OFFCURVE",
"196 622 OFFCURVE",
"196 617 CURVE SMOOTH",
"196 616 OFFCURVE",
"197 615 OFFCURVE",
"199 615 CURVE SMOOTH",
"201 615 LINE SMOOTH",
"208 616 OFFCURVE",
"225 617 OFFCURVE",
"245 617 CURVE SMOOTH",
"272 617 OFFCURVE",
"302 616 OFFCURVE",
"314 614 CURVE SMOOTH",
"325 611 OFFCURVE",
"345 600 OFFCURVE",
"340 574 CURVE SMOOTH",
"315 426 OFFCURVE",
"293 305 OFFCURVE",
"252 161 CURVE SMOOTH",
"238 111 OFFCURVE",
"218 31 OFFCURVE",
"152 31 CURVE SMOOTH",
"119 31 OFFCURVE",
"106 58 OFFCURVE",
"101 87 CURVE SMOOTH",
"100 95 OFFCURVE",
"99 105 OFFCURVE",
"99 115 CURVE SMOOTH",
"99 127 OFFCURVE",
"100 139 OFFCURVE",
"104 149 CURVE SMOOTH",
"108 156 OFFCURVE",
"105 161 OFFCURVE",
"101 161 CURVE SMOOTH",
"99 161 OFFCURVE",
"95 159 OFFCURVE",
"92 154 CURVE SMOOTH",
"88 146 OFFCURVE",
"84 134 OFFCURVE",
"81 128 CURVE SMOOTH",
"64 82 OFFCURVE",
"49 82 OFFCURVE",
"31 60 CURVE SMOOTH",
"28 56 OFFCURVE",
"26 52 OFFCURVE",
"26 48 CURVE SMOOTH",
"26 42 OFFCURVE",
"29 37 OFFCURVE",
"33 32 CURVE SMOOTH",
"53 4 OFFCURVE",
"96 -4 OFFCURVE",
"137 -4 CURVE SMOOTH"
);
}
);
};
layerId = "C36B7B90-196F-45C3-8412-B02CF16DA361";
paths = (
{
closed = 1;
nodes = (
"159 -4 OFFCURVE",
"180 -2 OFFCURVE",
"197 1 CURVE SMOOTH",
"251 10 OFFCURVE",
"282 32 OFFCURVE",
"308 61 CURVE SMOOTH",
"341 98 OFFCURVE",
"341 132 OFFCURVE",
"350 176 CURVE SMOOTH",
"365 252 OFFCURVE",
"386 353 OFFCURVE",
"402 432 CURVE SMOOTH",
"411 476 OFFCURVE",
"420 515 OFFCURVE",
"426 533 CURVE SMOOTH",
"443 579 OFFCURVE",
"467 617 OFFCURVE",
"509 617 CURVE SMOOTH",
"527 617 OFFCURVE",
"549 616 OFFCURVE",
"575 615 CURVE",
"580 614 OFFCURVE",
"590 625 OFFCURVE",
"590 630 CURVE SMOOTH",
"590 631 OFFCURVE",
"589 632 OFFCURVE",
"587 632 CURVE SMOOTH",
"586 632 LINE SMOOTH",
"573 632 OFFCURVE",
"560 633 OFFCURVE",
"546 633 CURVE SMOOTH",
"504 633 OFFCURVE",
"460 631 OFFCURVE",
"432 630 CURVE SMOOTH",
"420 630 OFFCURVE",
"407 629 OFFCURVE",
"395 629 CURVE SMOOTH",
"383 629 OFFCURVE",
"371 630 OFFCURVE",
"358 630 CURVE SMOOTH",
"310 630 LINE SMOOTH",
"279 630 OFFCURVE",
"251 630 OFFCURVE",
"214 633 CURVE SMOOTH",
"206 633 OFFCURVE",
"196 622 OFFCURVE",
"196 617 CURVE SMOOTH",
"196 616 OFFCURVE",
"197 615 OFFCURVE",
"199 615 CURVE SMOOTH",
"201 615 LINE SMOOTH",
"208 615 OFFCURVE",
"225 617 OFFCURVE",
"245 617 CURVE SMOOTH",
"272 617 OFFCURVE",
"302 616 OFFCURVE",
"314 614 CURVE SMOOTH",
"325 611 OFFCURVE",
"345 600 OFFCURVE",
"340 574 CURVE SMOOTH",
"315 426 OFFCURVE",
"293 305 OFFCURVE",
"252 161 CURVE SMOOTH",
"238 111 OFFCURVE",
"218 31 OFFCURVE",
"152 31 CURVE SMOOTH",
"119 31 OFFCURVE",
"106 58 OFFCURVE",
"101 87 CURVE SMOOTH",
"100 95 OFFCURVE",
"99 105 OFFCURVE",
"99 115 CURVE SMOOTH",
"99 127 OFFCURVE",
"100 139 OFFCURVE",
"104 149 CURVE SMOOTH",
"108 156 OFFCURVE",
"105 161 OFFCURVE",
"101 161 CURVE SMOOTH",
"99 161 OFFCURVE",
"95 159 OFFCURVE",
"92 154 CURVE SMOOTH",
"88 146 OFFCURVE",
"84 134 OFFCURVE",
"81 128 CURVE SMOOTH",
"64 82 OFFCURVE",
"49 82 OFFCURVE",
"31 60 CURVE SMOOTH",
"28 56 OFFCURVE",
"26 52 OFFCURVE",
"26 48 CURVE SMOOTH",
"26 42 OFFCURVE",
"29 37 OFFCURVE",
"33 32 CURVE SMOOTH",
"53 4 OFFCURVE",
"96 -4 OFFCURVE",
"137 -4 CURVE SMOOTH"
);
}
);
width = 455;
}
);
leftKerningGroup = J;
note = J;
rightKerningGroup = J;
unicode = 004A;
},
{
glyphname = K;
lastChange = "2021-10-18 12:39:05 +0000";
layers = (
{
anchors = (
{
name = bottom;
position = "{416, 0}";
},
{
name = top;
position = "{520, 629}";
}
);
background = {
paths = (
{
closed = 1;
nodes = (
"676 -41 OFFCURVE",
"700 -33 OFFCURVE",
"717 -21 CURVE SMOOTH",
"723 -17 OFFCURVE",
"728 -9 OFFCURVE",
"739 -9 CURVE SMOOTH",
"743 -9 OFFCURVE",
"748 -10 OFFCURVE",
"754 -13 CURVE SMOOTH",
"758 -15 OFFCURVE",
"761 -16 OFFCURVE",
"764 -16 CURVE SMOOTH",
"769 -16 OFFCURVE",
"772 -12 OFFCURVE",
"772 -9 CURVE SMOOTH",
"772 -6 OFFCURVE",
"770 -3 OFFCURVE",
"766 -1 CURVE SMOOTH",
"757 2 OFFCURVE",
"728 13 OFFCURVE",
"710 25 CURVE SMOOTH",
"663 53 OFFCURVE",
"449 248 OFFCURVE",
"412 306 CURVE",
"427 332 OFFCURVE",
"601 499 OFFCURVE",
"657 547 CURVE SMOOTH",
"716 596 OFFCURVE",
"744 618 OFFCURVE",
"820 615 CURVE",
"825 614 OFFCURVE",
"834 624 OFFCURVE",
"834 629 CURVE SMOOTH",
"834 631 OFFCURVE",
"833 632 OFFCURVE",
"831 632 CURVE SMOOTH",
"830 632 LINE SMOOTH",
"766 634 OFFCURVE",
"721 628 OFFCURVE",
"681 628 CURVE SMOOTH",
"650 628 OFFCURVE",
"581 633 OFFCURVE",
"568 633 CURVE SMOOTH",
"556 633 OFFCURVE",
"550 627 OFFCURVE",
"550 622 CURVE SMOOTH",
"550 619 OFFCURVE",
"552 617 OFFCURVE",
"556 617 CURVE SMOOTH",
"560 617 LINE SMOOTH",
"569 618 OFFCURVE",
"597 615 OFFCURVE",
"597 591 CURVE SMOOTH",
"597 574 OFFCURVE",
"584 546 OFFCURVE",
"542 502 CURVE SMOOTH",
"472 426 OFFCURVE",
"399 347 OFFCURVE",
"329 274 CURVE",
"350 381 OFFCURVE",
"374 493 OFFCURVE",
"387 530 CURVE SMOOTH",
"410 597 OFFCURVE",
"423 619 OFFCURVE",
"469 619 CURVE SMOOTH",
"490 619 OFFCURVE",
"500 617 OFFCURVE",
"509 617 CURVE SMOOTH",
"514 617 OFFCURVE",
"520 624 OFFCURVE",
"520 629 CURVE SMOOTH",
"520 631 OFFCURVE",
"518 633 OFFCURVE",
"515 633 CURVE SMOOTH",
"465 630 OFFCURVE",
"422 631 OFFCURVE",
"396 630 CURVE SMOOTH",
"383 629 OFFCURVE",
"369 629 OFFCURVE",
"353 629 CURVE SMOOTH",
"292 629 OFFCURVE",
"216 633 OFFCURVE",
"164 633 CURVE SMOOTH",
"156 633 OFFCURVE",
"148 625 OFFCURVE",
"148 620 CURVE SMOOTH",
"148 618 OFFCURVE",
"150 616 OFFCURVE",
"154 616 CURVE SMOOTH",
"169 617 OFFCURVE",
"244 615 OFFCURVE",
"264 612 CURVE SMOOTH",
"282 609 OFFCURVE",
"299 587 OFFCURVE",
"295 561 CURVE SMOOTH",
"271 416 OFFCURVE",
"247 287 OFFCURVE",
"205 142 CURVE SMOOTH",
"176 42 OFFCURVE",
"173 29 OFFCURVE",
"101 29 CURVE SMOOTH",
"81 29 OFFCURVE",
"56 30 OFFCURVE",
"24 30 CURVE",
"19 31 OFFCURVE",
"10 21 OFFCURVE",
"10 16 CURVE SMOOTH",
"10 14 OFFCURVE",
"11 13 OFFCURVE",
"13 13 CURVE SMOOTH",
"14 13 LINE SMOOTH",
"78 12 OFFCURVE",
"159 15 OFFCURVE",
"189 16 CURVE SMOOTH",
"211 17 OFFCURVE",
"236 17 OFFCURVE",
"264 17 CURVE SMOOTH",
"318 17 OFFCURVE",
"378 16 OFFCURVE",
"421 13 CURVE SMOOTH",
"428 12 OFFCURVE",
"436 21 OFFCURVE",
"436 26 CURVE SMOOTH",
"436 28 OFFCURVE",
"435 29 OFFCURVE",
"432 29 CURVE SMOOTH",
"431 29 LINE SMOOTH",
"416 28 OFFCURVE",
"341 30 OFFCURVE",
"321 33 CURVE SMOOTH",
"309 35 OFFCURVE",
"290 47 OFFCURVE",
"293 73 CURVE SMOOTH",
"297 101 OFFCURVE",
"308 163 OFFCURVE",
"319 221 CURVE",
"340 244 OFFCURVE",
"374 267 OFFCURVE",
"397 292 CURVE",
"421 211 OFFCURVE",
"499 38 OFFCURVE",
"601 -27 CURVE SMOOTH",
"617 -37 OFFCURVE",
"635 -41 OFFCURVE",
"652 -41 CURVE SMOOTH"
);
}
);
};
layerId = "C36B7B90-196F-45C3-8412-B02CF16DA361";
paths = (
{
closed = 1;
nodes = (
"676 -41 OFFCURVE",
"700 -33 OFFCURVE",
"717 -21 CURVE SMOOTH",
"723 -17 OFFCURVE",
"728 -9 OFFCURVE",
"739 -9 CURVE SMOOTH",
"743 -9 OFFCURVE",
"748 -10 OFFCURVE",
"754 -13 CURVE SMOOTH",
"758 -15 OFFCURVE",
"761 -16 OFFCURVE",
"764 -16 CURVE SMOOTH",
"769 -16 OFFCURVE",
"772 -12 OFFCURVE",
"772 -9 CURVE SMOOTH",
"772 -6 OFFCURVE",
"770 -3 OFFCURVE",
"766 -1 CURVE SMOOTH",
"757 2 OFFCURVE",
"728 13 OFFCURVE",
"710 25 CURVE SMOOTH",
"663 53 OFFCURVE",
"449 248 OFFCURVE",
"412 306 CURVE",
"427 332 OFFCURVE",
"601 499 OFFCURVE",
"657 547 CURVE SMOOTH",
"716 596 OFFCURVE",
"744 618 OFFCURVE",
"820 615 CURVE",
"825 614 OFFCURVE",
"834 624 OFFCURVE",
"834 629 CURVE SMOOTH",
"834 631 OFFCURVE",
"833 632 OFFCURVE",
"831 632 CURVE SMOOTH",
"830 632 LINE SMOOTH",
"766 632 OFFCURVE",
"721 628 OFFCURVE",
"681 628 CURVE SMOOTH",
"650 628 OFFCURVE",
"581 633 OFFCURVE",
"568 633 CURVE SMOOTH",
"556 633 OFFCURVE",
"550 627 OFFCURVE",
"550 622 CURVE SMOOTH",
"550 619 OFFCURVE",
"552 617 OFFCURVE",
"556 617 CURVE SMOOTH",
"560 617 LINE SMOOTH",
"569 617 OFFCURVE",
"597 615 OFFCURVE",
"597 591 CURVE SMOOTH",
"597 574 OFFCURVE",
"584 546 OFFCURVE",
"542 502 CURVE SMOOTH",
"472 426 OFFCURVE",
"399 347 OFFCURVE",
"329 274 CURVE",
"350 381 OFFCURVE",
"374 493 OFFCURVE",
"387 530 CURVE SMOOTH",
"410 597 OFFCURVE",
"423 619 OFFCURVE",
"469 619 CURVE SMOOTH",
"490 619 OFFCURVE",
"500 617 OFFCURVE",
"509 617 CURVE SMOOTH",
"514 617 OFFCURVE",
"520 624 OFFCURVE",
"520 629 CURVE SMOOTH",
"520 631 OFFCURVE",
"518 633 OFFCURVE",
"515 633 CURVE SMOOTH",
"465 630 OFFCURVE",
"422 631 OFFCURVE",
"396 630 CURVE SMOOTH",
"383 629 OFFCURVE",
"369 629 OFFCURVE",
"353 629 CURVE SMOOTH",
"292 629 OFFCURVE",
"216 633 OFFCURVE",
"164 633 CURVE SMOOTH",
"156 633 OFFCURVE",
"148 625 OFFCURVE",
"148 620 CURVE SMOOTH",
"148 618 OFFCURVE",
"150 616 OFFCURVE",
"154 616 CURVE SMOOTH",
"169 617 OFFCURVE",
"244 615 OFFCURVE",
"264 612 CURVE SMOOTH",
"282 609 OFFCURVE",
"299 587 OFFCURVE",
"295 561 CURVE SMOOTH",
"271 416 OFFCURVE",
"247 287 OFFCURVE",
"205 142 CURVE SMOOTH",
"176 42 OFFCURVE",
"173 29 OFFCURVE",
"101 29 CURVE SMOOTH",
"81 29 OFFCURVE",
"56 30 OFFCURVE",
"24 30 CURVE",
"19 31 OFFCURVE",
"10 21 OFFCURVE",
"10 16 CURVE SMOOTH",
"10 14 OFFCURVE",
"11 13 OFFCURVE",
"13 13 CURVE SMOOTH",
"14 13 LINE SMOOTH",
"78 13 OFFCURVE",
"159 15 OFFCURVE",
"189 16 CURVE SMOOTH",
"211 17 OFFCURVE",
"236 17 OFFCURVE",
"264 17 CURVE SMOOTH",
"318 17 OFFCURVE",
"378 16 OFFCURVE",
"421 13 CURVE SMOOTH",
"428 12 OFFCURVE",
"436 21 OFFCURVE",
"436 26 CURVE SMOOTH",
"436 28 OFFCURVE",
"435 29 OFFCURVE",
"432 29 CURVE SMOOTH",
"431 29 LINE SMOOTH",
"416 29 OFFCURVE",
"341 30 OFFCURVE",
"321 33 CURVE SMOOTH",
"309 35 OFFCURVE",
"290 47 OFFCURVE",
"293 73 CURVE SMOOTH",
"297 101 OFFCURVE",
"308 163 OFFCURVE",
"319 221 CURVE",
"340 244 OFFCURVE",
"374 267 OFFCURVE",
"397 292 CURVE",
"421 211 OFFCURVE",
"499 38 OFFCURVE",
"601 -27 CURVE SMOOTH",
"617 -37 OFFCURVE",
"635 -41 OFFCURVE",
"652 -41 CURVE SMOOTH"
);
}
);
width = 749;
}
);
leftKerningGroup = H;
leftMetricsKey = H;
note = K;
rightKerningGroup = K;
unicode = 004B;
},
{
glyphname = L;
lastChange = "2021-10-18 12:39:05 +0000";
layers = (
{
anchors = (
{
name = bottom;
position = "{356, 0}";
},
{
name = center;
position = "{300, 315}";
},
{
name = top;
position = "{366, 630}";
},
{
name = topright;
position = "{580, 657}";
}
);
background = {
paths = (
{
closed = 1;
nodes = (
"516 5 OFFCURVE",
"531 8 OFFCURVE",
"539 13 CURVE SMOOTH",
"587 43 OFFCURVE",
"616 155 OFFCURVE",
"629 184 CURVE SMOOTH",
"632 189 OFFCURVE",
"628 195 OFFCURVE",
"625 195 CURVE SMOOTH",
"623 195 OFFCURVE",
"622 194 OFFCURVE",
"621 192 CURVE SMOOTH",
"577 105 OFFCURVE",
"499 44 OFFCURVE",
"399 44 CURVE SMOOTH",
"313 44 OFFCURVE",
"292 67 OFFCURVE",
"292 102 CURVE SMOOTH",
"292 109 OFFCURVE",
"293 116 OFFCURVE",
"294 123 CURVE SMOOTH",
"316 275 OFFCURVE",
"329 358 OFFCURVE",
"366 508 CURVE SMOOTH",
"391 610 OFFCURVE",
"410 625 OFFCURVE",
"490 625 CURVE SMOOTH",
"511 625 OFFCURVE",
"536 624 OFFCURVE",
"566 623 CURVE",
"572 621 OFFCURVE",
"575 626 OFFCURVE",
"575 631 CURVE SMOOTH",
"575 636 OFFCURVE",
"573 640 OFFCURVE",
"569 640 CURVE SMOOTH",
"568 640 LINE SMOOTH",
"499 638 OFFCURVE",
"403 633 OFFCURVE",
"372 633 CURVE SMOOTH",
"308 633 OFFCURVE",
"213 634 OFFCURVE",
"148 638 CURVE SMOOTH",
"141 638 OFFCURVE",
"134 630 OFFCURVE",
"134 625 CURVE SMOOTH",
"134 623 OFFCURVE",
"135 621 OFFCURVE",
"139 621 CURVE SMOOTH",
"145 621 OFFCURVE",
"159 622 OFFCURVE",
"175 622 CURVE SMOOTH",
"202 622 OFFCURVE",
"235 621 OFFCURVE",
"249 617 CURVE SMOOTH",
"261 614 OFFCURVE",
"280 603 OFFCURVE",
"278 578 CURVE SMOOTH",
"269 441 OFFCURVE",
"211 193 OFFCURVE",
"192 127 CURVE SMOOTH",
"167 43 OFFCURVE",
"132 29 OFFCURVE",
"84 29 CURVE SMOOTH",
"67 29 OFFCURVE",
"48 28 OFFCURVE",
"19 30 CURVE",
"13 32 OFFCURVE",
"10 27 OFFCURVE",
"10 22 CURVE SMOOTH",
"10 18 OFFCURVE",
"13 13 OFFCURVE",
"17 13 CURVE SMOOTH",
"18 13 LINE",
"178 13 LINE SMOOTH",
"228 13 OFFCURVE",
"281 19 OFFCURVE",
"322 19 CURVE SMOOTH",
"333 19 OFFCURVE",
"342 19 OFFCURVE",
"351 18 CURVE SMOOTH",
"416 10 OFFCURVE",
"463 5 OFFCURVE",
"494 5 CURVE SMOOTH"
);
}
);
};
layerId = "C36B7B90-196F-45C3-8412-B02CF16DA361";
paths = (
{
closed = 1;
nodes = (
"516 5 OFFCURVE",
"531 8 OFFCURVE",
"539 13 CURVE SMOOTH",
"587 43 OFFCURVE",
"616 155 OFFCURVE",
"629 184 CURVE SMOOTH",
"632 189 OFFCURVE",
"628 195 OFFCURVE",
"625 195 CURVE SMOOTH",
"623 195 OFFCURVE",
"622 194 OFFCURVE",
"621 192 CURVE SMOOTH",
"577 105 OFFCURVE",
"499 44 OFFCURVE",
"399 44 CURVE SMOOTH",
"313 44 OFFCURVE",
"292 67 OFFCURVE",
"292 102 CURVE SMOOTH",
"292 109 OFFCURVE",
"293 116 OFFCURVE",
"294 123 CURVE SMOOTH",
"316 275 OFFCURVE",
"329 358 OFFCURVE",
"366 508 CURVE SMOOTH",
"391 610 OFFCURVE",
"410 625 OFFCURVE",
"490 625 CURVE SMOOTH",
"511 625 OFFCURVE",
"536 624 OFFCURVE",
"566 623 CURVE",
"572 621 OFFCURVE",
"575 626 OFFCURVE",
"575 631 CURVE SMOOTH",
"575 636 OFFCURVE",
"573 640 OFFCURVE",
"569 640 CURVE SMOOTH",
"568 640 LINE SMOOTH",
"499 640 OFFCURVE",
"403 633 OFFCURVE",
"372 633 CURVE SMOOTH",
"308 633 OFFCURVE",
"213 634 OFFCURVE",
"148 638 CURVE SMOOTH",
"141 638 OFFCURVE",
"134 630 OFFCURVE",
"134 625 CURVE SMOOTH",
"134 623 OFFCURVE",
"135 621 OFFCURVE",
"139 621 CURVE SMOOTH",
"145 621 OFFCURVE",
"159 622 OFFCURVE",
"175 622 CURVE SMOOTH",
"202 622 OFFCURVE",
"235 621 OFFCURVE",
"249 617 CURVE SMOOTH",
"261 614 OFFCURVE",
"280 603 OFFCURVE",
"278 578 CURVE SMOOTH",
"269 441 OFFCURVE",
"211 193 OFFCURVE",
"192 127 CURVE SMOOTH",
"167 43 OFFCURVE",
"132 29 OFFCURVE",
"84 29 CURVE SMOOTH",
"67 29 OFFCURVE",
"48 28 OFFCURVE",
"19 30 CURVE",
"13 32 OFFCURVE",
"10 27 OFFCURVE",
"10 22 CURVE SMOOTH",
"10 18 OFFCURVE",
"13 13 OFFCURVE",
"17 13 CURVE SMOOTH",
"178 13 LINE SMOOTH",
"228 13 OFFCURVE",
"281 19 OFFCURVE",
"322 19 CURVE SMOOTH",
"333 19 OFFCURVE",
"342 19 OFFCURVE",
"351 18 CURVE SMOOTH",
"416 10 OFFCURVE",
"463 5 OFFCURVE",
"494 5 CURVE SMOOTH"
);
}
);
width = 600;
}
);
leftKerningGroup = H;
leftMetricsKey = H;
note = L;
rightKerningGroup = L;
unicode = 004C;
},
{
glyphname = Lslash;
lastChange = "2021-10-18 12:39:05 +0000";
layers = (
{
anchors = (
{
name = bottom;
position = "{356, 0}";
},
{
name = center;
position = "{300, 315}";
},
{
name = top;
position = "{366, 630}";
},
{
name = topright;
position = "{580, 657}";
}
);
background = {
components = (
{
name = L;
},
{
name = hyphen;
transform = "{1.25578, 0.30902, -0.27647, 0.98343, 145, -70}";
}
);
};
layerId = "C36B7B90-196F-45C3-8412-B02CF16DA361";
paths = (
{
closed = 1;
nodes = (
"516 5 OFFCURVE",
"531 8 OFFCURVE",
"539 13 CURVE SMOOTH",
"587 43 OFFCURVE",
"616 155 OFFCURVE",
"629 184 CURVE SMOOTH",
"632 189 OFFCURVE",
"628 195 OFFCURVE",
"625 195 CURVE SMOOTH",
"623 195 OFFCURVE",
"622 194 OFFCURVE",
"621 192 CURVE SMOOTH",
"577 105 OFFCURVE",
"499 44 OFFCURVE",
"399 44 CURVE SMOOTH",
"313 44 OFFCURVE",
"292 67 OFFCURVE",
"292 102 CURVE SMOOTH",
"292 109 OFFCURVE",
"293 116 OFFCURVE",
"294 123 CURVE SMOOTH",
"316 275 OFFCURVE",
"329 358 OFFCURVE",
"366 508 CURVE SMOOTH",
"391 610 OFFCURVE",
"410 625 OFFCURVE",
"490 625 CURVE SMOOTH",
"511 625 OFFCURVE",
"536 624 OFFCURVE",
"566 623 CURVE",
"572 621 OFFCURVE",
"575 626 OFFCURVE",
"575 631 CURVE SMOOTH",
"575 636 OFFCURVE",
"573 640 OFFCURVE",
"569 640 CURVE SMOOTH",
"568 640 LINE SMOOTH",
"499 640 OFFCURVE",
"403 633 OFFCURVE",
"372 633 CURVE SMOOTH",
"308 633 OFFCURVE",
"213 634 OFFCURVE",
"148 638 CURVE SMOOTH",
"141 638 OFFCURVE",
"134 630 OFFCURVE",
"134 625 CURVE SMOOTH",
"134 623 OFFCURVE",
"135 621 OFFCURVE",
"139 621 CURVE SMOOTH",
"145 621 OFFCURVE",
"159 622 OFFCURVE",
"175 622 CURVE SMOOTH",
"202 622 OFFCURVE",
"235 621 OFFCURVE",
"249 617 CURVE SMOOTH",
"261 614 OFFCURVE",
"280 603 OFFCURVE",
"278 578 CURVE SMOOTH",
"269 441 OFFCURVE",
"211 193 OFFCURVE",
"192 127 CURVE SMOOTH",
"167 43 OFFCURVE",
"132 29 OFFCURVE",
"84 29 CURVE SMOOTH",
"67 29 OFFCURVE",
"48 28 OFFCURVE",
"19 30 CURVE",
"13 32 OFFCURVE",
"10 27 OFFCURVE",
"10 22 CURVE SMOOTH",
"10 18 OFFCURVE",
"13 13 OFFCURVE",
"17 13 CURVE SMOOTH",
"178 13 LINE SMOOTH",
"228 13 OFFCURVE",
"281 19 OFFCURVE",
"322 19 CURVE SMOOTH",
"333 19 OFFCURVE",
"342 19 OFFCURVE",
"351 18 CURVE SMOOTH",
"416 10 OFFCURVE",
"463 5 OFFCURVE",
"494 5 CURVE SMOOTH"
);
},
{
closed = 1;
nodes = (
"369 234 LINE SMOOTH",
"380 237 OFFCURVE",
"402 283 OFFCURVE",
"387 280 CURVE SMOOTH",
"138 218 LINE SMOOTH",
"130 216 OFFCURVE",
"112 171 OFFCURVE",
"122 173 CURVE SMOOTH"
);
}
);
width = 600;
}
);
leftKerningGroup = H;
rightKerningGroup = L;
unicode = 0141;
},
{
glyphname = M;
lastChange = "2021-10-18 12:38:38 +0000";
layers = (
{
background = {
paths = (
{
closed = 1;
nodes = (
"462 10 OFFCURVE",
"483 28 OFFCURVE",
"506 43 CURVE SMOOTH",
"523 55 OFFCURVE",
"539 62 OFFCURVE",
"544 66 CURVE",
"555 72 OFFCURVE",
"559 75 OFFCURVE",
"559 81 CURVE SMOOTH",
"559 83 OFFCURVE",
"559 85 OFFCURVE",
"558 87 CURVE",
"557 93 OFFCURVE",
"559 105 OFFCURVE",
"565 117 CURVE SMOOTH",
"594 173 OFFCURVE",
"732 383 OFFCURVE",
"813 494 CURVE",
"793 376 OFFCURVE",
"770 262 OFFCURVE",
"739 142 CURVE SMOOTH",
"713 40 OFFCURVE",
"693 26 OFFCURVE",
"642 26 CURVE SMOOTH",
"629 26 OFFCURVE",
"614 26 OFFCURVE",
"597 27 CURVE",
"591 29 OFFCURVE",
"588 25 OFFCURVE",
"588 20 CURVE SMOOTH",
"588 15 OFFCURVE",
"591 10 OFFCURVE",
"597 10 CURVE SMOOTH",
"671 13 OFFCURVE",
"697 12 OFFCURVE",
"729 13 CURVE SMOOTH",
"752 14 OFFCURVE",
"779 14 OFFCURVE",
"806 14 CURVE SMOOTH",
"860 14 OFFCURVE",
"917 13 OFFCURVE",
"959 13 CURVE SMOOTH",
"967 13 OFFCURVE",
"975 21 OFFCURVE",
"975 26 CURVE SMOOTH",
"975 28 OFFCURVE",
"973 29 OFFCURVE",
"970 29 CURVE SMOOTH",
"969 29 LINE SMOOTH",
"955 28 OFFCURVE",
"881 29 OFFCURVE",
"861 33 CURVE SMOOTH",
"849 35 OFFCURVE",
"829 43 OFFCURVE",
"830 69 CURVE SMOOTH",
"836 156 OFFCURVE",
"899 465 OFFCURVE",
"919 530 CURVE SMOOTH",
"940 596 OFFCURVE",
"949 621 OFFCURVE",
"994 621 CURVE SMOOTH",
"1013 621 OFFCURVE",
"1035 619 OFFCURVE",
"1067 618 CURVE",
"1073 616 OFFCURVE",
"1075 621 OFFCURVE",
"1075 626 CURVE SMOOTH",
"1075 630 OFFCURVE",
"1073 635 OFFCURVE",
"1068 635 CURVE SMOOTH",
"1067 635 LINE SMOOTH",
"983 630 OFFCURVE",
"955 628 OFFCURVE",
"929 629 CURVE SMOOTH",
"920 629 OFFCURVE",
"875 632 OFFCURVE",
"851 632 CURVE SMOOTH",
"844 632 OFFCURVE",
"838 632 OFFCURVE",
"836 631 CURVE SMOOTH",
"813 623 OFFCURVE",
"800 587 OFFCURVE",
"755 510 CURVE SMOOTH",
"685 391 OFFCURVE",
"598 244 OFFCURVE",
"532 141 CURVE SMOOTH",
"528 135 OFFCURVE",
"525 133 OFFCURVE",
"521 133 CURVE SMOOTH",
"518 133 OFFCURVE",
"515 135 OFFCURVE",
"514 140 CURVE SMOOTH",
"478 264 OFFCURVE",
"438 526 OFFCURVE",
"434 600 CURVE SMOOTH",
"432 627 OFFCURVE",
"433 633 OFFCURVE",
"412 633 CURVE SMOOTH",
"398 633 OFFCURVE",
"374 631 OFFCURVE",
"333 629 CURVE SMOOTH",
"318 628 OFFCURVE",
"304 628 OFFCURVE",
"289 628 CURVE SMOOTH",
"249 628 OFFCURVE",
"209 630 OFFCURVE",
"169 633 CURVE SMOOTH",
"162 633 OFFCURVE",
"154 625 OFFCURVE",
"154 620 CURVE SMOOTH",
"154 618 OFFCURVE",
"155 617 OFFCURVE",
"159 617 CURVE SMOOTH",
"168 618 OFFCURVE",
"199 619 OFFCURVE",
"227 619 CURVE SMOOTH",
"245 619 OFFCURVE",
"262 618 OFFCURVE",
"270 617 CURVE SMOOTH",
"281 614 OFFCURVE",
"301 602 OFFCURVE",
"296 577 CURVE SMOOTH",
"270 424 OFFCURVE",
"247 292 OFFCURVE",
"203 142 CURVE SMOOTH",
"174 41 OFFCURVE",
"149 29 OFFCURVE",
"79 29 CURVE SMOOTH",
"61 29 OFFCURVE",
"39 30 OFFCURVE",
"13 30 CURVE",
"8 31 OFFCURVE",
"6 29 OFFCURVE",
"6 25 CURVE SMOOTH",
"6 21 OFFCURVE",
"10 15 OFFCURVE",
"15 15 CURVE SMOOTH",
"17 15 LINE SMOOTH",
"33 14 OFFCURVE",
"50 14 OFFCURVE",
"67 14 CURVE SMOOTH",
"117 14 OFFCURVE",
"165 17 OFFCURVE",
"188 18 CURVE SMOOTH",
"198 18 OFFCURVE",
"208 19 OFFCURVE",
"218 19 CURVE SMOOTH",
"272 19 OFFCURVE",
"319 13 OFFCURVE",
"336 13 CURVE SMOOTH",
"344 13 OFFCURVE",
"352 21 OFFCURVE",
"352 26 CURVE SMOOTH",
"352 28 OFFCURVE",
"350 29 OFFCURVE",
"347 29 CURVE SMOOTH",
"346 29 LINE SMOOTH",
"331 28 OFFCURVE",
"306 29 OFFCURVE",
"287 33 CURVE SMOOTH",
"274 35 OFFCURVE",
"256 47 OFFCURVE",
"259 73 CURVE SMOOTH",
"268 149 OFFCURVE",
"317 392 OFFCURVE",
"343 496 CURVE",
"380 346 OFFCURVE",
"421 136 OFFCURVE",
"432 57 CURVE SMOOTH",
"436 29 OFFCURVE",
"428 9 OFFCURVE",
"447 9 CURVE SMOOTH"
);
}
);
};
layerId = "C36B7B90-196F-45C3-8412-B02CF16DA361";
paths = (
{
closed = 1;
nodes = (
"462 10 OFFCURVE",
"483 28 OFFCURVE",
"506 43 CURVE SMOOTH",
"523 55 OFFCURVE",
"539 62 OFFCURVE",
"544 66 CURVE",
"555 72 OFFCURVE",
"559 75 OFFCURVE",
"559 81 CURVE SMOOTH",
"559 83 OFFCURVE",
"559 85 OFFCURVE",
"558 87 CURVE",
"557 93 OFFCURVE",
"559 105 OFFCURVE",
"565 117 CURVE SMOOTH",
"594 173 OFFCURVE",
"732 383 OFFCURVE",
"813 494 CURVE",
"793 376 OFFCURVE",
"770 262 OFFCURVE",
"739 142 CURVE SMOOTH",
"713 40 OFFCURVE",
"693 26 OFFCURVE",
"642 26 CURVE SMOOTH",
"629 26 OFFCURVE",
"614 26 OFFCURVE",
"597 27 CURVE",
"591 29 OFFCURVE",
"588 25 OFFCURVE",
"588 20 CURVE SMOOTH",
"588 15 OFFCURVE",
"591 10 OFFCURVE",
"597 10 CURVE SMOOTH",
"671 13 OFFCURVE",
"697 12 OFFCURVE",
"729 13 CURVE SMOOTH",
"752 14 OFFCURVE",
"779 14 OFFCURVE",
"806 14 CURVE SMOOTH",
"860 14 OFFCURVE",
"917 13 OFFCURVE",
"959 13 CURVE SMOOTH",
"967 13 OFFCURVE",
"975 21 OFFCURVE",
"975 26 CURVE SMOOTH",
"975 28 OFFCURVE",
"973 29 OFFCURVE",
"970 29 CURVE SMOOTH",
"969 29 LINE SMOOTH",
"955 28 OFFCURVE",
"881 29 OFFCURVE",
"861 33 CURVE SMOOTH",
"849 35 OFFCURVE",
"829 43 OFFCURVE",
"830 69 CURVE SMOOTH",
"836 156 OFFCURVE",
"899 465 OFFCURVE",
"919 530 CURVE SMOOTH",
"940 596 OFFCURVE",
"949 621 OFFCURVE",
"994 621 CURVE SMOOTH",
"1013 621 OFFCURVE",
"1035 619 OFFCURVE",
"1067 618 CURVE",
"1073 616 OFFCURVE",
"1075 621 OFFCURVE",
"1075 626 CURVE SMOOTH",
"1075 630 OFFCURVE",
"1073 635 OFFCURVE",
"1068 635 CURVE SMOOTH",
"1067 635 LINE SMOOTH",
"983 630 OFFCURVE",
"955 628 OFFCURVE",
"929 629 CURVE SMOOTH",
"920 629 OFFCURVE",
"875 632 OFFCURVE",
"851 632 CURVE SMOOTH",
"844 632 OFFCURVE",
"838 632 OFFCURVE",
"836 631 CURVE SMOOTH",
"813 623 OFFCURVE",
"800 587 OFFCURVE",
"755 510 CURVE SMOOTH",
"685 391 OFFCURVE",
"598 244 OFFCURVE",
"532 141 CURVE SMOOTH",
"528 135 OFFCURVE",
"525 133 OFFCURVE",
"521 133 CURVE SMOOTH",
"518 133 OFFCURVE",
"515 135 OFFCURVE",
"514 140 CURVE SMOOTH",
"478 264 OFFCURVE",
"438 526 OFFCURVE",
"434 600 CURVE SMOOTH",
"432 627 OFFCURVE",
"433 633 OFFCURVE",
"412 633 CURVE SMOOTH",
"398 633 OFFCURVE",
"374 631 OFFCURVE",
"333 629 CURVE SMOOTH",
"318 628 OFFCURVE",
"304 628 OFFCURVE",
"289 628 CURVE SMOOTH",
"249 628 OFFCURVE",
"209 630 OFFCURVE",
"169 633 CURVE SMOOTH",
"162 633 OFFCURVE",
"154 625 OFFCURVE",
"154 620 CURVE SMOOTH",
"154 618 OFFCURVE",
"155 617 OFFCURVE",
"159 617 CURVE SMOOTH",
"168 618 OFFCURVE",
"199 619 OFFCURVE",
"227 619 CURVE SMOOTH",
"245 619 OFFCURVE",
"262 618 OFFCURVE",
"270 617 CURVE SMOOTH",
"281 614 OFFCURVE",
"301 602 OFFCURVE",
"296 577 CURVE SMOOTH",
"270 424 OFFCURVE",
"247 292 OFFCURVE",
"203 142 CURVE SMOOTH",
"174 41 OFFCURVE",
"149 29 OFFCURVE",
"79 29 CURVE SMOOTH",
"61 29 OFFCURVE",
"39 30 OFFCURVE",
"13 30 CURVE",
"8 31 OFFCURVE",
"6 29 OFFCURVE",
"6 25 CURVE SMOOTH",
"6 21 OFFCURVE",
"10 15 OFFCURVE",
"15 15 CURVE SMOOTH",
"17 15 LINE SMOOTH",
"33 14 OFFCURVE",
"50 14 OFFCURVE",
"67 14 CURVE SMOOTH",
"117 14 OFFCURVE",
"165 17 OFFCURVE",
"188 18 CURVE SMOOTH",
"198 18 OFFCURVE",
"208 19 OFFCURVE",
"218 19 CURVE SMOOTH",
"272 19 OFFCURVE",
"319 13 OFFCURVE",
"336 13 CURVE SMOOTH",
"344 13 OFFCURVE",
"352 21 OFFCURVE",
"352 26 CURVE SMOOTH",
"352 28 OFFCURVE",
"350 29 OFFCURVE",
"347 29 CURVE SMOOTH",
"346 29 LINE SMOOTH",
"331 28 OFFCURVE",
"306 29 OFFCURVE",
"287 33 CURVE SMOOTH",
"274 35 OFFCURVE",
"256 47 OFFCURVE",
"259 73 CURVE SMOOTH",
"268 149 OFFCURVE",
"317 392 OFFCURVE",
"343 496 CURVE",
"380 346 OFFCURVE",
"421 136 OFFCURVE",
"432 57 CURVE SMOOTH",
"436 29 OFFCURVE",
"428 9 OFFCURVE",
"447 9 CURVE SMOOTH"
);
}
);
width = 972;
}
);
leftKerningGroup = H;
note = M;
rightKerningGroup = H;
unicode = 004D;
},
{
glyphname = N;
lastChange = "2021-10-18 12:39:05 +0000";
layers = (
{
anchors = (
{
name = bottom;
position = "{412, 0}";
},
{
name = top;
position = "{587, 630}";
}
);
background = {
paths = (
{
closed = 1;
nodes = (
"632 -16 OFFCURVE",
"668 31 OFFCURVE",
"686 46 CURVE SMOOTH",
"699 57 OFFCURVE",
"708 75 OFFCURVE",
"708 94 CURVE SMOOTH",
"708 104 OFFCURVE",
"706 114 OFFCURVE",
"701 123 CURVE",
"711 185 OFFCURVE",
"756 419 OFFCURVE",
"778 503 CURVE SMOOTH",
"804 604 OFFCURVE",
"808 617 OFFCURVE",
"958 615 CURVE",
"964 614 OFFCURVE",
"973 625 OFFCURVE",
"973 630 CURVE SMOOTH",
"973 632 OFFCURVE",
"972 633 OFFCURVE",
"969 633 CURVE SMOOTH",
"903 633 OFFCURVE",
"824 632 OFFCURVE",
"794 631 CURVE SMOOTH",
"781 630 OFFCURVE",
"767 630 OFFCURVE",
"753 630 CURVE SMOOTH",
"698 630 OFFCURVE",
"643 634 OFFCURVE",
"627 634 CURVE SMOOTH",
"620 634 OFFCURVE",
"612 626 OFFCURVE",
"612 621 CURVE SMOOTH",
"612 619 OFFCURVE",
"613 618 OFFCURVE",
"616 618 CURVE SMOOTH",
"617 618 LINE SMOOTH",
"647 619 OFFCURVE",
"729 614 OFFCURVE",
"724 568 CURVE SMOOTH",
"716 497 OFFCURVE",
"672 252 OFFCURVE",
"653 175 CURVE",
"616 230 OFFCURVE",
"450 532 OFFCURVE",
"421 605 CURVE SMOOTH",
"412 630 OFFCURVE",
"408 633 OFFCURVE",
"396 633 CURVE SMOOTH",
"375 633 OFFCURVE",
"361 629 OFFCURVE",
"335 629 CURVE SMOOTH",
"278 629 OFFCURVE",
"212 633 OFFCURVE",
"166 633 CURVE SMOOTH",
"160 633 OFFCURVE",
"151 624 OFFCURVE",
"151 619 CURVE SMOOTH",
"151 617 OFFCURVE",
"153 616 OFFCURVE",
"156 616 CURVE SMOOTH",
"171 617 OFFCURVE",
"246 615 OFFCURVE",
"267 612 CURVE SMOOTH",
"285 609 OFFCURVE",
"301 587 OFFCURVE",
"297 561 CURVE SMOOTH",
"273 416 OFFCURVE",
"249 287 OFFCURVE",
"207 142 CURVE SMOOTH",
"177 40 OFFCURVE",
"152 29 OFFCURVE",
"75 29 CURVE SMOOTH",
"58 29 OFFCURVE",
"39 30 OFFCURVE",
"17 30 CURVE",
"12 31 OFFCURVE",
"10 29 OFFCURVE",
"10 25 CURVE SMOOTH",
"10 21 OFFCURVE",
"14 15 OFFCURVE",
"19 15 CURVE SMOOTH",
"20 15 LINE SMOOTH",
"37 14 OFFCURVE",
"54 14 OFFCURVE",
"70 14 CURVE SMOOTH",
"121 14 OFFCURVE",
"169 17 OFFCURVE",
"192 18 CURVE SMOOTH",
"202 18 OFFCURVE",
"214 19 OFFCURVE",
"226 19 CURVE SMOOTH",
"292 19 OFFCURVE",
"381 13 OFFCURVE",
"399 13 CURVE SMOOTH",
"406 13 OFFCURVE",
"414 21 OFFCURVE",
"414 26 CURVE SMOOTH",
"414 28 OFFCURVE",
"413 29 OFFCURVE",
"409 29 CURVE SMOOTH",
"367 29 OFFCURVE",
"331 30 OFFCURVE",
"309 32 CURVE SMOOTH",
"297 33 OFFCURVE",
"260 47 OFFCURVE",
"263 73 CURVE SMOOTH",
"272 149 OFFCURVE",
"338 468 OFFCURVE",
"351 520 CURVE",
"399 421 OFFCURVE",
"553 157 OFFCURVE",
"626 -2 CURVE SMOOTH"
);
}
);
};
layerId = "C36B7B90-196F-45C3-8412-B02CF16DA361";
paths = (
{
closed = 1;
nodes = (
"632 -16 OFFCURVE",
"668 31 OFFCURVE",
"686 46 CURVE SMOOTH",
"699 57 OFFCURVE",
"708 75 OFFCURVE",
"708 94 CURVE SMOOTH",
"708 104 OFFCURVE",
"706 114 OFFCURVE",
"701 123 CURVE",
"711 185 OFFCURVE",
"756 419 OFFCURVE",
"778 503 CURVE SMOOTH",
"804 604 OFFCURVE",
"808 617 OFFCURVE",
"958 615 CURVE",
"964 614 OFFCURVE",
"973 625 OFFCURVE",
"973 630 CURVE SMOOTH",
"973 632 OFFCURVE",
"972 633 OFFCURVE",
"969 633 CURVE SMOOTH",
"903 633 OFFCURVE",
"824 632 OFFCURVE",
"794 631 CURVE SMOOTH",
"781 630 OFFCURVE",
"767 630 OFFCURVE",
"753 630 CURVE SMOOTH",
"698 630 OFFCURVE",
"643 634 OFFCURVE",
"627 634 CURVE SMOOTH",
"620 634 OFFCURVE",
"612 626 OFFCURVE",
"612 621 CURVE SMOOTH",
"612 619 OFFCURVE",
"613 618 OFFCURVE",
"616 618 CURVE SMOOTH",
"617 618 LINE SMOOTH",
"647 618 OFFCURVE",
"729 614 OFFCURVE",
"724 568 CURVE SMOOTH",
"716 497 OFFCURVE",
"672 252 OFFCURVE",
"653 175 CURVE",
"616 230 OFFCURVE",
"450 532 OFFCURVE",
"421 605 CURVE SMOOTH",
"412 630 OFFCURVE",
"408 633 OFFCURVE",
"396 633 CURVE SMOOTH",
"375 633 OFFCURVE",
"361 629 OFFCURVE",
"335 629 CURVE SMOOTH",
"278 629 OFFCURVE",
"212 633 OFFCURVE",
"166 633 CURVE SMOOTH",
"160 633 OFFCURVE",
"151 624 OFFCURVE",
"151 619 CURVE SMOOTH",
"151 617 OFFCURVE",
"153 616 OFFCURVE",
"156 616 CURVE SMOOTH",
"171 617 OFFCURVE",
"246 615 OFFCURVE",
"267 612 CURVE SMOOTH",
"285 609 OFFCURVE",
"301 587 OFFCURVE",
"297 561 CURVE SMOOTH",
"273 416 OFFCURVE",
"249 287 OFFCURVE",
"207 142 CURVE SMOOTH",
"177 40 OFFCURVE",
"152 29 OFFCURVE",
"75 29 CURVE SMOOTH",
"58 29 OFFCURVE",
"39 30 OFFCURVE",
"17 30 CURVE",
"12 31 OFFCURVE",
"10 29 OFFCURVE",
"10 25 CURVE SMOOTH",
"10 21 OFFCURVE",
"14 15 OFFCURVE",
"19 15 CURVE SMOOTH",
"20 15 LINE SMOOTH",
"37 15 OFFCURVE",
"54 14 OFFCURVE",
"70 14 CURVE SMOOTH",
"121 14 OFFCURVE",
"169 17 OFFCURVE",
"192 18 CURVE SMOOTH",
"202 18 OFFCURVE",
"214 19 OFFCURVE",
"226 19 CURVE SMOOTH",
"292 19 OFFCURVE",
"381 13 OFFCURVE",
"399 13 CURVE SMOOTH",
"406 13 OFFCURVE",
"414 21 OFFCURVE",
"414 26 CURVE SMOOTH",
"414 28 OFFCURVE",
"413 29 OFFCURVE",
"409 29 CURVE SMOOTH",
"367 29 OFFCURVE",
"331 30 OFFCURVE",
"309 32 CURVE SMOOTH",
"297 33 OFFCURVE",
"260 47 OFFCURVE",
"263 73 CURVE SMOOTH",
"272 149 OFFCURVE",
"338 468 OFFCURVE",
"351 520 CURVE",
"399 421 OFFCURVE",
"553 157 OFFCURVE",
"626 -2 CURVE SMOOTH"
);
}
);
width = 823;
}
);
leftKerningGroup = H;
leftMetricsKey = H;
note = N;
rightKerningGroup = N;
rightMetricsKey = "=H-10";
unicode = 004E;
},
{
glyphname = Eng;
lastChange = "2021-10-18 12:38:38 +0000";
layers = (
{
background = {
paths = (
{
closed = 1;
nodes = (
"419 -335 OFFCURVE",
"471 -332 OFFCURVE",
"489 -326 CURVE SMOOTH",
"569 -299 OFFCURVE",
"610 -258 OFFCURVE",
"627 -159 CURVE SMOOTH",
"678 144 OFFCURVE",
"709 338 OFFCURVE",
"752 503 CURVE SMOOTH",
"778 604 OFFCURVE",
"782 617 OFFCURVE",
"932 615 CURVE",
"938 614 OFFCURVE",
"947 625 OFFCURVE",
"947 630 CURVE SMOOTH",
"947 632 OFFCURVE",
"946 633 OFFCURVE",
"943 633 CURVE SMOOTH",
"877 633 OFFCURVE",
"798 632 OFFCURVE",
"768 631 CURVE SMOOTH",
"755 630 OFFCURVE",
"741 630 OFFCURVE",
"727 630 CURVE SMOOTH",
"672 630 OFFCURVE",
"617 634 OFFCURVE",
"601 634 CURVE SMOOTH",
"594 634 OFFCURVE",
"586 626 OFFCURVE",
"586 621 CURVE SMOOTH",
"586 619 OFFCURVE",
"587 618 OFFCURVE",
"590 618 CURVE SMOOTH",
"591 618 LINE SMOOTH",
"621 619 OFFCURVE",
"703 614 OFFCURVE",
"698 568 CURVE SMOOTH",
"690 497 OFFCURVE",
"646 252 OFFCURVE",
"627 175 CURVE",
"590 230 OFFCURVE",
"424 532 OFFCURVE",
"395 605 CURVE SMOOTH",
"386 630 OFFCURVE",
"382 633 OFFCURVE",
"370 633 CURVE SMOOTH",
"349 633 OFFCURVE",
"335 629 OFFCURVE",
"309 629 CURVE SMOOTH",
"252 629 OFFCURVE",
"186 633 OFFCURVE",
"140 633 CURVE SMOOTH",
"134 633 OFFCURVE",
"125 624 OFFCURVE",
"125 619 CURVE SMOOTH",
"125 617 OFFCURVE",
"127 616 OFFCURVE",
"130 616 CURVE SMOOTH",
"145 617 OFFCURVE",
"220 615 OFFCURVE",
"241 612 CURVE SMOOTH",
"259 609 OFFCURVE",
"275 587 OFFCURVE",
"271 561 CURVE SMOOTH",
"247 416 OFFCURVE",
"223 287 OFFCURVE",
"181 142 CURVE SMOOTH",
"151 40 OFFCURVE",
"126 29 OFFCURVE",
"49 29 CURVE SMOOTH",
"32 29 OFFCURVE",
"13 30 OFFCURVE",
"-9 30 CURVE",
"-14 31 OFFCURVE",
"-16 29 OFFCURVE",
"-16 25 CURVE SMOOTH",
"-16 21 OFFCURVE",
"-12 15 OFFCURVE",
"-7 15 CURVE SMOOTH",
"-6 15 LINE SMOOTH",
"11 14 OFFCURVE",
"28 14 OFFCURVE",
"44 14 CURVE SMOOTH",
"95 14 OFFCURVE",
"143 17 OFFCURVE",
"166 18 CURVE SMOOTH",
"176 18 OFFCURVE",
"188 19 OFFCURVE",
"200 19 CURVE SMOOTH",
"266 19 OFFCURVE",
"355 13 OFFCURVE",
"373 13 CURVE SMOOTH",
"380 13 OFFCURVE",
"388 21 OFFCURVE",
"388 26 CURVE SMOOTH",
"388 28 OFFCURVE",
"387 29 OFFCURVE",
"383 29 CURVE SMOOTH",
"341 29 OFFCURVE",
"305 30 OFFCURVE",
"283 32 CURVE SMOOTH",
"271 33 OFFCURVE",
"234 47 OFFCURVE",
"237 73 CURVE SMOOTH",
"246 149 OFFCURVE",
"312 468 OFFCURVE",
"325 520 CURVE",
"370 428 OFFCURVE",
"505 194 OFFCURVE",
"583 34 CURVE",
"566 -69 OFFCURVE",
"548 -187 OFFCURVE",
"535 -236 CURVE SMOOTH",
"517 -302 OFFCURVE",
"462 -315 OFFCURVE",
"434 -318 CURVE SMOOTH",
"402 -321 LINE",
"403 -333 LINE"
);
},
{
closed = 1;
nodes = (
"392 -355 OFFCURVE",
"407 -354 OFFCURVE",
"425 -352 CURVE",
"424 -341 LINE",
"355 -342 OFFCURVE",
"318 -312 OFFCURVE",
"318 -269 CURVE SMOOTH",
"318 -249 OFFCURVE",
"326 -226 OFFCURVE",
"342 -202 CURVE",
"333 -186 LINE",
"330 -198 OFFCURVE",
"325 -208 OFFCURVE",
"317 -219 CURVE SMOOTH",
"309 -230 OFFCURVE",
"299 -242 OFFCURVE",
"290 -254 CURVE SMOOTH",
"276 -271 OFFCURVE",
"263 -289 OFFCURVE",
"255 -304 CURVE SMOOTH",
"253 -309 OFFCURVE",
"252 -313 OFFCURVE",
"252 -317 CURVE SMOOTH",
"252 -325 OFFCURVE",
"259 -330 OFFCURVE",
"271 -334 CURVE SMOOTH",
"306 -347 OFFCURVE",
"335 -355 OFFCURVE",
"378 -355 CURVE SMOOTH"
);
}
);
};
layerId = "C36B7B90-196F-45C3-8412-B02CF16DA361";
paths = (
{
closed = 1;
nodes = (
"419 -335 OFFCURVE",
"471 -332 OFFCURVE",
"489 -326 CURVE SMOOTH",
"569 -299 OFFCURVE",
"610 -258 OFFCURVE",
"627 -159 CURVE SMOOTH",
"678 144 OFFCURVE",
"709 338 OFFCURVE",
"752 503 CURVE SMOOTH",
"778 604 OFFCURVE",
"782 617 OFFCURVE",
"932 615 CURVE",
"938 614 OFFCURVE",
"947 625 OFFCURVE",
"947 630 CURVE SMOOTH",
"947 632 OFFCURVE",
"946 633 OFFCURVE",
"943 633 CURVE SMOOTH",
"877 633 OFFCURVE",
"798 632 OFFCURVE",
"768 631 CURVE SMOOTH",
"755 630 OFFCURVE",
"741 630 OFFCURVE",
"727 630 CURVE SMOOTH",
"672 630 OFFCURVE",
"617 634 OFFCURVE",
"601 634 CURVE SMOOTH",
"594 634 OFFCURVE",
"586 626 OFFCURVE",
"586 621 CURVE SMOOTH",
"586 619 OFFCURVE",
"587 618 OFFCURVE",
"590 618 CURVE SMOOTH",
"591 618 LINE SMOOTH",
"621 619 OFFCURVE",
"703 614 OFFCURVE",
"698 568 CURVE SMOOTH",
"690 497 OFFCURVE",
"646 252 OFFCURVE",
"627 175 CURVE",
"590 230 OFFCURVE",
"424 532 OFFCURVE",
"395 605 CURVE SMOOTH",
"386 630 OFFCURVE",
"382 633 OFFCURVE",
"370 633 CURVE SMOOTH",
"349 633 OFFCURVE",
"335 629 OFFCURVE",
"309 629 CURVE SMOOTH",
"252 629 OFFCURVE",
"186 633 OFFCURVE",
"140 633 CURVE SMOOTH",
"134 633 OFFCURVE",
"125 624 OFFCURVE",
"125 619 CURVE SMOOTH",
"125 617 OFFCURVE",
"127 616 OFFCURVE",
"130 616 CURVE SMOOTH",
"145 617 OFFCURVE",
"220 615 OFFCURVE",
"241 612 CURVE SMOOTH",
"259 609 OFFCURVE",
"275 587 OFFCURVE",
"271 561 CURVE SMOOTH",
"247 416 OFFCURVE",
"223 287 OFFCURVE",
"181 142 CURVE SMOOTH",
"151 40 OFFCURVE",
"126 29 OFFCURVE",
"49 29 CURVE SMOOTH",
"32 29 OFFCURVE",
"13 30 OFFCURVE",
"-9 30 CURVE",
"-14 31 OFFCURVE",
"-16 29 OFFCURVE",
"-16 25 CURVE SMOOTH",
"-16 21 OFFCURVE",
"-12 15 OFFCURVE",
"-7 15 CURVE SMOOTH",
"-6 15 LINE SMOOTH",
"11 14 OFFCURVE",
"28 14 OFFCURVE",
"44 14 CURVE SMOOTH",
"95 14 OFFCURVE",
"143 17 OFFCURVE",
"166 18 CURVE SMOOTH",
"176 18 OFFCURVE",
"188 19 OFFCURVE",
"200 19 CURVE SMOOTH",
"266 19 OFFCURVE",
"355 13 OFFCURVE",
"373 13 CURVE SMOOTH",
"380 13 OFFCURVE",
"388 21 OFFCURVE",
"388 26 CURVE SMOOTH",
"388 28 OFFCURVE",
"387 29 OFFCURVE",
"383 29 CURVE SMOOTH",
"341 29 OFFCURVE",
"305 30 OFFCURVE",
"283 32 CURVE SMOOTH",
"271 33 OFFCURVE",
"234 47 OFFCURVE",
"237 73 CURVE SMOOTH",
"246 149 OFFCURVE",
"312 468 OFFCURVE",
"325 520 CURVE",
"370 428 OFFCURVE",
"505 194 OFFCURVE",
"583 34 CURVE",
"566 -69 OFFCURVE",
"548 -187 OFFCURVE",
"535 -236 CURVE SMOOTH",
"517 -302 OFFCURVE",
"462 -315 OFFCURVE",
"434 -318 CURVE SMOOTH",
"402 -321 LINE",
"403 -333 LINE"
);
},
{
closed = 1;
nodes = (
"392 -355 OFFCURVE",
"407 -354 OFFCURVE",
"425 -352 CURVE",
"424 -341 LINE",
"355 -342 OFFCURVE",
"318 -312 OFFCURVE",
"318 -269 CURVE SMOOTH",
"318 -249 OFFCURVE",
"326 -226 OFFCURVE",
"342 -202 CURVE",
"333 -186 LINE",
"330 -198 OFFCURVE",
"325 -208 OFFCURVE",
"317 -219 CURVE SMOOTH",
"309 -230 OFFCURVE",
"299 -242 OFFCURVE",
"290 -254 CURVE SMOOTH",
"276 -271 OFFCURVE",
"263 -289 OFFCURVE",
"255 -304 CURVE SMOOTH",
"253 -309 OFFCURVE",
"252 -313 OFFCURVE",
"252 -317 CURVE SMOOTH",
"252 -325 OFFCURVE",
"259 -330 OFFCURVE",
"271 -334 CURVE SMOOTH",
"306 -347 OFFCURVE",
"335 -355 OFFCURVE",
"378 -355 CURVE SMOOTH"
);
}
);
width = 771;
}
);
leftKerningGroup = H;
rightKerningGroup = J;
unicode = 014A;
},
{
glyphname = O;
lastChange = "2021-10-18 12:39:05 +0000";
layers = (
{
anchors = (
{
name = bottom;
position = "{359, 0}";
},
{
name = center;
position = "{359, 315}";
},
{
name = ogonek;
position = "{381, 6}";
},
{
name = top;
position = "{469, 651}";
},
{
name = topleft;
position = "{20, 630}";
},
{
name = topright;
position = "{597, 630}";
}
);
background = {
paths = (
{
closed = 1;
nodes = (
"464 -7 OFFCURVE",
"548 33 OFFCURVE",
"615 93 CURVE SMOOTH",
"706 173 OFFCURVE",
"763 294 OFFCURVE",
"763 401 CURVE SMOOTH",
"763 437 OFFCURVE",
"756 472 OFFCURVE",
"742 503 CURVE SMOOTH",
"693 609 OFFCURVE",
"589 652 OFFCURVE",
"484 652 CURVE SMOOTH",
"398 652 OFFCURVE",
"314 613 OFFCURVE",
"246 553 CURVE SMOOTH",
"156 472 OFFCURVE",
"99 352 OFFCURVE",
"99 246 CURVE SMOOTH",
"99 209 OFFCURVE",
"106 174 OFFCURVE",
"120 143 CURVE SMOOTH",
"169 37 OFFCURVE",
"272 -7 OFFCURVE",
"378 -7 CURVE SMOOTH"
);
},
{
closed = 1;
nodes = (
"379 70 OFFCURVE",
"318 92 OFFCURVE",
"266 140 CURVE SMOOTH",
"209 193 OFFCURVE",
"186 259 OFFCURVE",
"186 323 CURVE SMOOTH",
"186 408 OFFCURVE",
"225 489 OFFCURVE",
"274 531 CURVE SMOOTH",
"316 568 OFFCURVE",
"372 588 OFFCURVE",
"429 588 CURVE SMOOTH",
"488 588 OFFCURVE",
"549 567 OFFCURVE",
"601 519 CURVE SMOOTH",
"658 466 OFFCURVE",
"681 399 OFFCURVE",
"681 335 CURVE SMOOTH",
"681 250 OFFCURVE",
"642 169 OFFCURVE",
"593 127 CURVE SMOOTH",
"551 91 OFFCURVE",
"496 70 OFFCURVE",
"438 70 CURVE SMOOTH"
);
}
);
};
layerId = "C36B7B90-196F-45C3-8412-B02CF16DA361";
paths = (
{
closed = 1;
nodes = (
"464 -7 OFFCURVE",
"548 33 OFFCURVE",
"615 93 CURVE SMOOTH",
"706 173 OFFCURVE",
"763 294 OFFCURVE",
"763 401 CURVE SMOOTH",
"763 437 OFFCURVE",
"756 472 OFFCURVE",
"742 503 CURVE SMOOTH",
"693 609 OFFCURVE",
"589 652 OFFCURVE",
"484 652 CURVE SMOOTH",
"398 652 OFFCURVE",
"314 613 OFFCURVE",
"246 553 CURVE SMOOTH",
"156 472 OFFCURVE",
"99 352 OFFCURVE",
"99 246 CURVE SMOOTH",
"99 209 OFFCURVE",
"106 174 OFFCURVE",
"120 143 CURVE SMOOTH",
"169 37 OFFCURVE",
"272 -7 OFFCURVE",
"378 -7 CURVE SMOOTH"
);
},
{
closed = 1;
nodes = (
"379 70 OFFCURVE",
"318 92 OFFCURVE",
"266 140 CURVE SMOOTH",
"209 193 OFFCURVE",
"186 259 OFFCURVE",
"186 323 CURVE SMOOTH",
"186 408 OFFCURVE",
"225 489 OFFCURVE",
"274 531 CURVE SMOOTH",
"316 568 OFFCURVE",
"372 588 OFFCURVE",
"429 588 CURVE SMOOTH",
"488 588 OFFCURVE",
"549 567 OFFCURVE",
"601 519 CURVE SMOOTH",
"658 466 OFFCURVE",
"681 399 OFFCURVE",
"681 335 CURVE SMOOTH",
"681 250 OFFCURVE",
"642 169 OFFCURVE",
"593 127 CURVE SMOOTH",
"551 91 OFFCURVE",
"496 70 OFFCURVE",
"438 70 CURVE SMOOTH"
);
}
);
width = 717;
}
);
leftKerningGroup = O;
note = O;
rightKerningGroup = O;
unicode = 004F;
},
{
glyphname = Oslash;
lastChange = "2021-10-18 12:39:05 +0000";
layers = (
{
anchors = (
{
name = bottom;
position = "{338, 0}";
},
{
name = top;
position = "{441, 630}";
}
);
background = {
paths = (
{
closed = 1;
nodes = (
"386 -7 OFFCURVE",
"470 33 OFFCURVE",
"537 93 CURVE SMOOTH",
"628 173 OFFCURVE",
"685 294 OFFCURVE",
"685 401 CURVE SMOOTH",
"685 437 OFFCURVE",
"678 472 OFFCURVE",
"664 503 CURVE SMOOTH",
"615 609 OFFCURVE",
"511 652 OFFCURVE",
"406 652 CURVE SMOOTH",
"319 652 OFFCURVE",
"236 613 OFFCURVE",
"168 553 CURVE SMOOTH",
"78 472 OFFCURVE",
"21 352 OFFCURVE",
"21 245 CURVE SMOOTH",
"21 209 OFFCURVE",
"28 174 OFFCURVE",
"42 143 CURVE SMOOTH",
"91 37 OFFCURVE",
"194 -7 OFFCURVE",
"300 -7 CURVE SMOOTH"
);
},
{
closed = 1;
nodes = (
"109 -33 OFFCURVE",
"139 -24 OFFCURVE",
"144 -15 CURVE",
"284 192 OFFCURVE",
"588 631 OFFCURVE",
"621 676 CURVE SMOOTH",
"625 682 OFFCURVE",
"620 685 OFFCURVE",
"611 685 CURVE SMOOTH",
"594 685 OFFCURVE",
"564 676 OFFCURVE",
"559 667 CURVE",
"82 -24 LINE SMOOTH",
"78 -30 OFFCURVE",
"83 -33 OFFCURVE",
"92 -33 CURVE SMOOTH"
);
},
{
closed = 1;
nodes = (
"301 70 OFFCURVE",
"240 92 OFFCURVE",
"188 140 CURVE SMOOTH",
"131 193 OFFCURVE",
"108 259 OFFCURVE",
"108 323 CURVE SMOOTH",
"108 408 OFFCURVE",
"147 489 OFFCURVE",
"196 531 CURVE SMOOTH",
"238 567 OFFCURVE",
"294 588 OFFCURVE",
"351 588 CURVE SMOOTH",
"410 588 OFFCURVE",
"471 566 OFFCURVE",
"523 518 CURVE SMOOTH",
"580 465 OFFCURVE",
"603 399 OFFCURVE",
"603 335 CURVE SMOOTH",
"603 250 OFFCURVE",
"564 169 OFFCURVE",
"515 127 CURVE SMOOTH",
"473 91 OFFCURVE",
"418 70 OFFCURVE",
"360 70 CURVE SMOOTH"
);
}
);
};
layerId = "C36B7B90-196F-45C3-8412-B02CF16DA361";
paths = (
{
closed = 1;
nodes = (
"386 -7 OFFCURVE",
"470 33 OFFCURVE",
"537 93 CURVE SMOOTH",
"628 173 OFFCURVE",
"685 294 OFFCURVE",
"685 401 CURVE SMOOTH",
"685 437 OFFCURVE",
"678 472 OFFCURVE",
"664 503 CURVE SMOOTH",
"615 609 OFFCURVE",
"511 652 OFFCURVE",
"406 652 CURVE SMOOTH",
"319 652 OFFCURVE",
"236 613 OFFCURVE",
"168 553 CURVE SMOOTH",
"78 472 OFFCURVE",
"21 352 OFFCURVE",
"21 245 CURVE SMOOTH",
"21 209 OFFCURVE",
"28 174 OFFCURVE",
"42 143 CURVE SMOOTH",
"91 37 OFFCURVE",
"194 -7 OFFCURVE",
"300 -7 CURVE SMOOTH"
);
},
{
closed = 1;
nodes = (
"109 -33 OFFCURVE",
"139 -24 OFFCURVE",
"144 -15 CURVE",
"284 192 OFFCURVE",
"588 631 OFFCURVE",
"621 676 CURVE SMOOTH",
"625 682 OFFCURVE",
"620 685 OFFCURVE",
"611 685 CURVE SMOOTH",
"594 685 OFFCURVE",
"564 676 OFFCURVE",
"559 667 CURVE",
"82 -24 LINE SMOOTH",
"78 -30 OFFCURVE",
"83 -33 OFFCURVE",
"92 -33 CURVE SMOOTH"
);
},
{
closed = 1;
nodes = (
"301 70 OFFCURVE",
"240 92 OFFCURVE",
"188 140 CURVE SMOOTH",
"131 193 OFFCURVE",
"108 259 OFFCURVE",
"108 323 CURVE SMOOTH",
"108 408 OFFCURVE",
"147 489 OFFCURVE",
"196 531 CURVE SMOOTH",
"238 567 OFFCURVE",
"294 588 OFFCURVE",
"351 588 CURVE SMOOTH",
"410 588 OFFCURVE",
"471 566 OFFCURVE",
"523 518 CURVE SMOOTH",
"580 465 OFFCURVE",
"603 399 OFFCURVE",
"603 335 CURVE SMOOTH",
"603 250 OFFCURVE",
"564 169 OFFCURVE",
"515 127 CURVE SMOOTH",
"473 91 OFFCURVE",
"418 70 OFFCURVE",
"360 70 CURVE SMOOTH"
);
}
);
width = 675;
}
);
leftKerningGroup = O;
note = Oslash;
rightKerningGroup = O;
unicode = 00D8;
},
{
glyphname = OE;
lastChange = "2021-10-18 12:39:05 +0000";
layers = (
{
background = {
hints = (
{
horizontal = 1;
place = "{-20, 77}";
type = Stem;
},
{
horizontal = 1;
place = "{577, 77}";
type = Stem;
},
{
place = "{4, 87}";
type = Stem;
},
{
place = "{588, 86}";
type = Stem;
},
{
horizontal = 1;
place = "{3, 29}";
type = Stem;
},
{
horizontal = 1;
place = "{315, 25}";
type = Stem;
},
{
horizontal = 1;
place = "{617, 13}";
type = Stem;
},
{
place = "{1249, 15}";
type = Stem;
}
);
paths = (
{
closed = 1;
nodes = (
"340 -1 OFFCURVE",
"373 5 OFFCURVE",
"404 15 CURVE",
"436 17 OFFCURVE",
"462 18 OFFCURVE",
"477 18 CURVE SMOOTH",
"520 19 OFFCURVE",
"554 21 OFFCURVE",
"590 21 CURVE SMOOTH",
"610 21 OFFCURVE",
"630 21 OFFCURVE",
"653 19 CURVE SMOOTH",
"728 13 OFFCURVE",
"779 9 OFFCURVE",
"812 9 CURVE SMOOTH",
"833 9 OFFCURVE",
"846 10 OFFCURVE",
"853 15 CURVE SMOOTH",
"901 47 OFFCURVE",
"922 160 OFFCURVE",
"934 191 CURVE",
"935 196 OFFCURVE",
"931 202 OFFCURVE",
"928 202 CURVE SMOOTH",
"927 202 OFFCURVE",
"926 201 OFFCURVE",
"925 199 CURVE SMOOTH",
"885 110 OFFCURVE",
"809 47 OFFCURVE",
"707 47 CURVE SMOOTH",
"603 47 OFFCURVE",
"579 80 OFFCURVE",
"584 129 CURVE SMOOTH",
"590 209 OFFCURVE",
"605 270 OFFCURVE",
"612 331 CURVE",
"647 330 OFFCURVE",
"691 329 OFFCURVE",
"762 329 CURVE SMOOTH",
"782 329 OFFCURVE",
"800 330 OFFCURVE",
"817 338 CURVE SMOOTH",
"835 347 OFFCURVE",
"867 365 OFFCURVE",
"876 387 CURVE SMOOTH",
"879 394 OFFCURVE",
"879 397 OFFCURVE",
"872 393 CURVE",
"861 383 OFFCURVE",
"797 372 OFFCURVE",
"750 370 CURVE SMOOTH",
"701 368 OFFCURVE",
"656 365 OFFCURVE",
"616 363 CURVE",
"622 411 OFFCURVE",
"630 462 OFFCURVE",
"641 522 CURVE SMOOTH",
"655 608 OFFCURVE",
"707 614 OFFCURVE",
"775 614 CURVE SMOOTH",
"819 614 LINE SMOOTH",
"876 614 OFFCURVE",
"915 566 OFFCURVE",
"909 470 CURVE SMOOTH",
"908 460 OFFCURVE",
"914 455 OFFCURVE",
"918 455 CURVE SMOOTH",
"921 455 OFFCURVE",
"923 457 OFFCURVE",
"923 461 CURVE SMOOTH",
"927 516 OFFCURVE",
"926 540 OFFCURVE",
"932 588 CURVE SMOOTH",
"936 639 OFFCURVE",
"927 655 OFFCURVE",
"882 653 CURVE SMOOTH",
"787 648 OFFCURVE",
"711 648 OFFCURVE",
"617 647 CURVE SMOOTH",
"579 647 LINE SMOOTH",
"548 647 OFFCURVE",
"515 647 OFFCURVE",
"482 648 CURVE",
"445 661 OFFCURVE",
"406 667 OFFCURVE",
"366 667 CURVE SMOOTH",
"280 667 OFFCURVE",
"198 627 OFFCURVE",
"133 566 CURVE SMOOTH",
"53 490 OFFCURVE",
"4 379 OFFCURVE",
"4 277 CURVE SMOOTH",
"4 232 OFFCURVE",
"14 189 OFFCURVE",
"34 151 CURVE SMOOTH",
"92 43 OFFCURVE",
"199 -1 OFFCURVE",
"306 -1 CURVE SMOOTH"
);
},
{
closed = 1;
nodes = (
"326 51 OFFCURVE",
"250 88 OFFCURVE",
"184 145 CURVE SMOOTH",
"114 204 OFFCURVE",
"87 283 OFFCURVE",
"87 356 CURVE SMOOTH",
"87 432 OFFCURVE",
"117 503 OFFCURVE",
"158 540 CURVE SMOOTH",
"203 581 OFFCURVE",
"270 593 OFFCURVE",
"328 593 CURVE SMOOTH",
"371 593 OFFCURVE",
"409 586 OFFCURVE",
"428 581 CURVE SMOOTH",
"494 563 OFFCURVE",
"537 539 OFFCURVE",
"544 519 CURVE",
"542 488 OFFCURVE",
"526 395 OFFCURVE",
"521 356 CURVE",
"512 355 OFFCURVE",
"502 354 OFFCURVE",
"497 354 CURVE",
"485 350 OFFCURVE",
"462 339 OFFCURVE",
"462 333 CURVE SMOOTH",
"462 329 OFFCURVE",
"468 328 OFFCURVE",
"486 329 CURVE SMOOTH",
"495 330 OFFCURVE",
"508 330 OFFCURVE",
"517 331 CURVE",
"511 288 OFFCURVE",
"474 80 OFFCURVE",
"471 71 CURVE",
"448 57 OFFCURVE",
"421 51 OFFCURVE",
"393 51 CURVE SMOOTH"
);
}
);
};
layerId = "C36B7B90-196F-45C3-8412-B02CF16DA361";
paths = (
{
closed = 1;
nodes = (
"340 -1 OFFCURVE",
"373 5 OFFCURVE",
"404 15 CURVE",
"436 17 OFFCURVE",
"462 18 OFFCURVE",
"477 18 CURVE SMOOTH",
"520 19 OFFCURVE",
"554 21 OFFCURVE",
"590 21 CURVE SMOOTH",
"610 21 OFFCURVE",
"630 21 OFFCURVE",
"653 19 CURVE SMOOTH",
"728 13 OFFCURVE",
"779 9 OFFCURVE",
"812 9 CURVE SMOOTH",
"833 9 OFFCURVE",
"846 10 OFFCURVE",
"853 15 CURVE SMOOTH",
"901 47 OFFCURVE",
"922 160 OFFCURVE",
"934 191 CURVE",
"935 196 OFFCURVE",
"931 202 OFFCURVE",
"928 202 CURVE SMOOTH",
"927 202 OFFCURVE",
"926 201 OFFCURVE",
"925 199 CURVE SMOOTH",
"885 110 OFFCURVE",
"809 47 OFFCURVE",
"707 47 CURVE SMOOTH",
"603 47 OFFCURVE",
"579 80 OFFCURVE",
"584 129 CURVE SMOOTH",
"590 209 OFFCURVE",
"605 270 OFFCURVE",
"612 331 CURVE",
"647 330 OFFCURVE",
"691 329 OFFCURVE",
"762 329 CURVE SMOOTH",
"782 329 OFFCURVE",
"800 330 OFFCURVE",
"817 338 CURVE SMOOTH",
"835 347 OFFCURVE",
"867 365 OFFCURVE",
"876 387 CURVE SMOOTH",
"879 394 OFFCURVE",
"879 397 OFFCURVE",
"872 393 CURVE",
"861 383 OFFCURVE",
"797 372 OFFCURVE",
"750 370 CURVE SMOOTH",
"701 368 OFFCURVE",
"656 365 OFFCURVE",
"616 363 CURVE",
"622 411 OFFCURVE",
"630 462 OFFCURVE",
"641 522 CURVE SMOOTH",
"655 608 OFFCURVE",
"707 614 OFFCURVE",
"775 614 CURVE SMOOTH",
"819 614 LINE SMOOTH",
"876 614 OFFCURVE",
"915 566 OFFCURVE",
"909 470 CURVE SMOOTH",
"908 460 OFFCURVE",
"914 455 OFFCURVE",
"918 455 CURVE SMOOTH",
"921 455 OFFCURVE",
"923 457 OFFCURVE",
"923 461 CURVE SMOOTH",
"927 516 OFFCURVE",
"926 540 OFFCURVE",
"932 588 CURVE SMOOTH",
"936 639 OFFCURVE",
"927 655 OFFCURVE",
"882 653 CURVE SMOOTH",
"787 648 OFFCURVE",
"711 648 OFFCURVE",
"617 647 CURVE SMOOTH",
"579 647 LINE SMOOTH",
"548 647 OFFCURVE",
"515 647 OFFCURVE",
"482 648 CURVE",
"445 661 OFFCURVE",
"406 667 OFFCURVE",
"366 667 CURVE SMOOTH",
"280 667 OFFCURVE",
"198 627 OFFCURVE",
"133 566 CURVE SMOOTH",
"53 490 OFFCURVE",
"4 379 OFFCURVE",
"4 277 CURVE SMOOTH",
"4 232 OFFCURVE",
"14 189 OFFCURVE",
"34 151 CURVE SMOOTH",
"92 43 OFFCURVE",
"199 -1 OFFCURVE",
"306 -1 CURVE SMOOTH"
);
},
{
closed = 1;
nodes = (
"326 51 OFFCURVE",
"250 88 OFFCURVE",
"184 145 CURVE SMOOTH",
"114 204 OFFCURVE",
"87 283 OFFCURVE",
"87 356 CURVE SMOOTH",
"87 432 OFFCURVE",
"117 503 OFFCURVE",
"158 540 CURVE SMOOTH",
"203 581 OFFCURVE",
"270 593 OFFCURVE",
"328 593 CURVE SMOOTH",
"371 593 OFFCURVE",
"409 586 OFFCURVE",
"428 581 CURVE SMOOTH",
"494 563 OFFCURVE",
"537 539 OFFCURVE",
"544 519 CURVE",
"542 488 OFFCURVE",
"526 395 OFFCURVE",
"521 356 CURVE",
"512 355 OFFCURVE",
"502 354 OFFCURVE",
"497 354 CURVE",
"485 350 OFFCURVE",
"462 339 OFFCURVE",
"462 333 CURVE SMOOTH",
"462 330 OFFCURVE",
"466 329 OFFCURVE",
"475 329 CURVE SMOOTH",
"486 329 LINE SMOOTH",
"495 330 OFFCURVE",
"508 330 OFFCURVE",
"517 331 CURVE",
"511 288 OFFCURVE",
"474 80 OFFCURVE",
"471 71 CURVE",
"448 57 OFFCURVE",
"421 51 OFFCURVE",
"393 51 CURVE SMOOTH"
);
}
);
width = 919;
}
);
leftKerningGroup = O;
note = OE;
rightKerningGroup = E;
unicode = 0152;
},
{
glyphname = P;
lastChange = "2021-10-18 12:39:05 +0000";
layers = (
{
background = {
paths = (
{
closed = 1;
nodes = (
"450 9 OFFCURVE",
"459 22 OFFCURVE",
"459 27 CURVE SMOOTH",
"459 29 OFFCURVE",
"458 30 OFFCURVE",
"456 30 CURVE SMOOTH",
"443 29 OFFCURVE",
"426 28 OFFCURVE",
"410 28 CURVE SMOOTH",
"391 28 OFFCURVE",
"373 29 OFFCURVE",
"360 31 CURVE SMOOTH",
"332 34 OFFCURVE",
"311 56 OFFCURVE",
"309 86 CURVE SMOOTH",
"305 132 OFFCURVE",
"319 216 OFFCURVE",
"322 233 CURVE SMOOTH",
"355 411 OFFCURVE",
"377 484 OFFCURVE",
"386 509 CURVE SMOOTH",
"411 574 OFFCURVE",
"435 622 OFFCURVE",
"496 622 CURVE SMOOTH",
"555 622 OFFCURVE",
"588 566 OFFCURVE",
"583 492 CURVE SMOOTH",
"575 365 OFFCURVE",
"493 248 OFFCURVE",
"403 248 CURVE SMOOTH",
"393 248 OFFCURVE",
"383 251 OFFCURVE",
"374 258 CURVE SMOOTH",
"366 265 OFFCURVE",
"360 276 OFFCURVE",
"351 286 CURVE SMOOTH",
"345 292 OFFCURVE",
"337 281 OFFCURVE",
"337 269 CURVE SMOOTH",
"337 263 OFFCURVE",
"339 257 OFFCURVE",
"343 252 CURVE SMOOTH",
"350 244 OFFCURVE",
"369 234 OFFCURVE",
"403 234 CURVE SMOOTH",
"425 234 OFFCURVE",
"454 238 OFFCURVE",
"491 252 CURVE SMOOTH",
"578 286 OFFCURVE",
"671 378 OFFCURVE",
"689 471 CURVE SMOOTH",
"692 486 OFFCURVE",
"693 500 OFFCURVE",
"693 513 CURVE SMOOTH",
"693 601 OFFCURVE",
"628 644 OFFCURVE",
"556 647 CURVE SMOOTH",
"493 650 OFFCURVE",
"422 630 OFFCURVE",
"380 629 CURVE SMOOTH",
"362 629 LINE SMOOTH",
"299 629 OFFCURVE",
"219 633 OFFCURVE",
"164 633 CURVE SMOOTH",
"157 633 OFFCURVE",
"149 625 OFFCURVE",
"149 620 CURVE SMOOTH",
"149 618 OFFCURVE",
"150 616 OFFCURVE",
"154 616 CURVE SMOOTH",
"168 617 OFFCURVE",
"244 615 OFFCURVE",
"264 612 CURVE SMOOTH",
"281 609 OFFCURVE",
"299 587 OFFCURVE",
"295 561 CURVE SMOOTH",
"270 416 OFFCURVE",
"246 287 OFFCURVE",
"205 142 CURVE SMOOTH",
"176 42 OFFCURVE",
"173 29 OFFCURVE",
"101 29 CURVE SMOOTH",
"82 29 OFFCURVE",
"57 30 OFFCURVE",
"25 30 CURVE",
"19 31 OFFCURVE",
"10 21 OFFCURVE",
"10 16 CURVE SMOOTH",
"10 14 OFFCURVE",
"11 13 OFFCURVE",
"13 13 CURVE SMOOTH",
"14 13 LINE SMOOTH",
"78 12 OFFCURVE",
"159 16 OFFCURVE",
"189 16 CURVE SMOOTH",
"232 17 OFFCURVE",
"290 14 OFFCURVE",
"442 11 CURVE"
);
}
);
};
layerId = "C36B7B90-196F-45C3-8412-B02CF16DA361";
paths = (
{
closed = 1;
nodes = (
"450 9 OFFCURVE",
"459 22 OFFCURVE",
"459 27 CURVE SMOOTH",
"459 29 OFFCURVE",
"458 30 OFFCURVE",
"456 30 CURVE SMOOTH",
"443 29 OFFCURVE",
"426 28 OFFCURVE",
"410 28 CURVE SMOOTH",
"391 28 OFFCURVE",
"373 29 OFFCURVE",
"360 31 CURVE SMOOTH",
"332 34 OFFCURVE",
"311 56 OFFCURVE",
"309 86 CURVE SMOOTH",
"305 132 OFFCURVE",
"319 216 OFFCURVE",
"322 233 CURVE SMOOTH",
"355 411 OFFCURVE",
"377 484 OFFCURVE",
"386 509 CURVE SMOOTH",
"411 574 OFFCURVE",
"435 622 OFFCURVE",
"496 622 CURVE SMOOTH",
"555 622 OFFCURVE",
"588 566 OFFCURVE",
"583 492 CURVE SMOOTH",
"575 365 OFFCURVE",
"493 248 OFFCURVE",
"403 248 CURVE SMOOTH",
"393 248 OFFCURVE",
"383 251 OFFCURVE",
"374 258 CURVE SMOOTH",
"366 265 OFFCURVE",
"360 276 OFFCURVE",
"351 286 CURVE SMOOTH",
"345 292 OFFCURVE",
"337 281 OFFCURVE",
"337 269 CURVE SMOOTH",
"337 263 OFFCURVE",
"339 257 OFFCURVE",
"343 252 CURVE SMOOTH",
"350 244 OFFCURVE",
"369 234 OFFCURVE",
"403 234 CURVE SMOOTH",
"425 234 OFFCURVE",
"454 238 OFFCURVE",
"491 252 CURVE SMOOTH",
"578 286 OFFCURVE",
"671 378 OFFCURVE",
"689 471 CURVE SMOOTH",
"692 486 OFFCURVE",
"693 500 OFFCURVE",
"693 513 CURVE SMOOTH",
"693 606 OFFCURVE",
"620 647 OFFCURVE",
"543 647 CURVE SMOOTH",
"483 647 OFFCURVE",
"419 630 OFFCURVE",
"380 629 CURVE SMOOTH",
"362 629 LINE SMOOTH",
"299 629 OFFCURVE",
"219 633 OFFCURVE",
"164 633 CURVE SMOOTH",
"157 633 OFFCURVE",
"149 625 OFFCURVE",
"149 620 CURVE SMOOTH",
"149 618 OFFCURVE",
"150 616 OFFCURVE",
"154 616 CURVE SMOOTH",
"168 617 OFFCURVE",
"244 615 OFFCURVE",
"264 612 CURVE SMOOTH",
"281 609 OFFCURVE",
"299 587 OFFCURVE",
"295 561 CURVE SMOOTH",
"270 416 OFFCURVE",
"246 287 OFFCURVE",
"205 142 CURVE SMOOTH",
"176 42 OFFCURVE",
"173 29 OFFCURVE",
"101 29 CURVE SMOOTH",
"82 29 OFFCURVE",
"57 30 OFFCURVE",
"25 30 CURVE",
"19 31 OFFCURVE",
"10 21 OFFCURVE",
"10 16 CURVE SMOOTH",
"10 14 OFFCURVE",
"11 13 OFFCURVE",
"13 13 CURVE SMOOTH",
"14 13 LINE SMOOTH",
"78 12 OFFCURVE",
"159 16 OFFCURVE",
"189 16 CURVE SMOOTH",
"232 17 OFFCURVE",
"290 14 OFFCURVE",
"442 11 CURVE"
);
}
);
width = 635;
}
);
leftKerningGroup = H;
leftMetricsKey = H;
note = P;
rightKerningGroup = P;
unicode = 0050;
},
{
glyphname = Thorn;
lastChange = "2021-10-18 12:38:38 +0000";
layers = (
{
background = {
paths = (
{
closed = 1;
nodes = (
"453 9 OFFCURVE",
"462 22 OFFCURVE",
"462 27 CURVE SMOOTH",
"462 29 OFFCURVE",
"461 30 OFFCURVE",
"459 30 CURVE SMOOTH",
"446 29 OFFCURVE",
"429 28 OFFCURVE",
"413 28 CURVE SMOOTH",
"394 28 OFFCURVE",
"376 29 OFFCURVE",
"363 31 CURVE SMOOTH",
"335 34 OFFCURVE",
"314 56 OFFCURVE",
"312 86 CURVE SMOOTH",
"311 96 OFFCURVE",
"311 106 OFFCURVE",
"311 116 CURVE SMOOTH",
"311 153 OFFCURVE",
"316 189 OFFCURVE",
"318 202 CURVE SMOOTH",
"351 380 OFFCURVE",
"373 453 OFFCURVE",
"382 478 CURVE SMOOTH",
"407 543 OFFCURVE",
"431 591 OFFCURVE",
"492 591 CURVE SMOOTH",
"551 591 OFFCURVE",
"584 535 OFFCURVE",
"579 461 CURVE SMOOTH",
"571 334 OFFCURVE",
"489 217 OFFCURVE",
"399 217 CURVE SMOOTH",
"389 217 OFFCURVE",
"379 220 OFFCURVE",
"370 227 CURVE SMOOTH",
"362 234 OFFCURVE",
"356 245 OFFCURVE",
"347 255 CURVE SMOOTH",
"341 261 OFFCURVE",
"333 250 OFFCURVE",
"333 238 CURVE SMOOTH",
"333 232 OFFCURVE",
"335 226 OFFCURVE",
"339 221 CURVE SMOOTH",
"346 213 OFFCURVE",
"365 203 OFFCURVE",
"399 203 CURVE SMOOTH",
"421 203 OFFCURVE",
"450 207 OFFCURVE",
"487 221 CURVE SMOOTH",
"574 255 OFFCURVE",
"667 347 OFFCURVE",
"685 440 CURVE SMOOTH",
"688 455 OFFCURVE",
"689 469 OFFCURVE",
"689 482 CURVE SMOOTH",
"689 570 OFFCURVE",
"624 613 OFFCURVE",
"552 616 CURVE SMOOTH",
"539 617 OFFCURVE",
"526 617 OFFCURVE",
"512 617 CURVE SMOOTH",
"482 617 OFFCURVE",
"449 614 OFFCURVE",
"410 595 CURVE",
"423 645 OFFCURVE",
"448 727 OFFCURVE",
"448 758 CURVE SMOOTH",
"448 764 OFFCURVE",
"447 768 OFFCURVE",
"445 770 CURVE SMOOTH",
"444 771 OFFCURVE",
"441 771 OFFCURVE",
"436 771 CURVE SMOOTH",
"421 771 OFFCURVE",
"391 768 OFFCURVE",
"351 768 CURVE SMOOTH",
"328 768 OFFCURVE",
"248 772 OFFCURVE",
"193 772 CURVE SMOOTH",
"186 772 OFFCURVE",
"178 764 OFFCURVE",
"178 759 CURVE SMOOTH",
"178 757 OFFCURVE",
"179 755 OFFCURVE",
"183 755 CURVE SMOOTH",
"197 756 OFFCURVE",
"273 754 OFFCURVE",
"293 751 CURVE SMOOTH",
"308 748 OFFCURVE",
"325 731 OFFCURVE",
"325 708 CURVE SMOOTH",
"325 706 OFFCURVE",
"325 703 OFFCURVE",
"324 700 CURVE SMOOTH",
"292 524 OFFCURVE",
"242 256 OFFCURVE",
"208 142 CURVE SMOOTH",
"178 42 OFFCURVE",
"175 28 OFFCURVE",
"108 28 CURVE SMOOTH",
"88 28 OFFCURVE",
"62 30 OFFCURVE",
"28 30 CURVE",
"22 31 OFFCURVE",
"13 21 OFFCURVE",
"13 16 CURVE SMOOTH",
"13 14 OFFCURVE",
"14 13 OFFCURVE",
"16 13 CURVE SMOOTH",
"17 13 LINE SMOOTH",
"81 12 OFFCURVE",
"162 16 OFFCURVE",
"192 16 CURVE SMOOTH",
"235 17 OFFCURVE",
"293 14 OFFCURVE",
"445 11 CURVE"
);
}
);
};
layerId = "C36B7B90-196F-45C3-8412-B02CF16DA361";
paths = (
{
closed = 1;
nodes = (
"453 9 OFFCURVE",
"462 22 OFFCURVE",
"462 27 CURVE SMOOTH",
"462 29 OFFCURVE",
"461 30 OFFCURVE",
"459 30 CURVE SMOOTH",
"446 29 OFFCURVE",
"429 28 OFFCURVE",
"413 28 CURVE SMOOTH",
"394 28 OFFCURVE",
"376 29 OFFCURVE",
"363 31 CURVE SMOOTH",
"335 34 OFFCURVE",
"314 56 OFFCURVE",
"312 86 CURVE SMOOTH",
"311 96 OFFCURVE",
"311 106 OFFCURVE",
"311 116 CURVE SMOOTH",
"311 153 OFFCURVE",
"316 189 OFFCURVE",
"318 202 CURVE SMOOTH",
"351 380 OFFCURVE",
"373 453 OFFCURVE",
"382 478 CURVE SMOOTH",
"407 543 OFFCURVE",
"431 591 OFFCURVE",
"492 591 CURVE SMOOTH",
"551 591 OFFCURVE",
"584 535 OFFCURVE",
"579 461 CURVE SMOOTH",
"571 334 OFFCURVE",
"489 217 OFFCURVE",
"399 217 CURVE SMOOTH",
"389 217 OFFCURVE",
"379 220 OFFCURVE",
"370 227 CURVE SMOOTH",
"362 234 OFFCURVE",
"356 245 OFFCURVE",
"347 255 CURVE SMOOTH",
"341 261 OFFCURVE",
"333 250 OFFCURVE",
"333 238 CURVE SMOOTH",
"333 232 OFFCURVE",
"335 226 OFFCURVE",
"339 221 CURVE SMOOTH",
"346 213 OFFCURVE",
"365 203 OFFCURVE",
"399 203 CURVE SMOOTH",
"421 203 OFFCURVE",
"450 207 OFFCURVE",
"487 221 CURVE SMOOTH",
"574 255 OFFCURVE",
"667 347 OFFCURVE",
"685 440 CURVE SMOOTH",
"688 455 OFFCURVE",
"689 469 OFFCURVE",
"689 482 CURVE SMOOTH",
"689 570 OFFCURVE",
"624 613 OFFCURVE",
"552 616 CURVE SMOOTH",
"539 617 OFFCURVE",
"526 617 OFFCURVE",
"512 617 CURVE SMOOTH",
"482 617 OFFCURVE",
"449 614 OFFCURVE",
"410 595 CURVE",
"423 645 OFFCURVE",
"448 727 OFFCURVE",
"448 758 CURVE SMOOTH",
"448 764 OFFCURVE",
"447 768 OFFCURVE",
"445 770 CURVE SMOOTH",
"444 771 OFFCURVE",
"441 771 OFFCURVE",
"436 771 CURVE SMOOTH",
"421 771 OFFCURVE",
"391 768 OFFCURVE",
"351 768 CURVE SMOOTH",
"328 768 OFFCURVE",
"248 772 OFFCURVE",
"193 772 CURVE SMOOTH",
"186 772 OFFCURVE",
"178 764 OFFCURVE",
"178 759 CURVE SMOOTH",
"178 757 OFFCURVE",
"179 755 OFFCURVE",
"183 755 CURVE SMOOTH",
"197 756 OFFCURVE",
"273 754 OFFCURVE",
"293 751 CURVE SMOOTH",
"308 748 OFFCURVE",
"325 731 OFFCURVE",
"325 708 CURVE SMOOTH",
"325 706 OFFCURVE",
"325 703 OFFCURVE",
"324 700 CURVE SMOOTH",
"292 524 OFFCURVE",
"242 256 OFFCURVE",
"208 142 CURVE SMOOTH",
"178 42 OFFCURVE",
"175 28 OFFCURVE",
"108 28 CURVE SMOOTH",
"88 28 OFFCURVE",
"62 30 OFFCURVE",
"28 30 CURVE",
"22 31 OFFCURVE",
"13 21 OFFCURVE",
"13 16 CURVE SMOOTH",
"13 14 OFFCURVE",
"14 13 OFFCURVE",
"16 13 CURVE SMOOTH",
"17 13 LINE SMOOTH",
"81 12 OFFCURVE",
"162 16 OFFCURVE",
"192 16 CURVE SMOOTH",
"235 17 OFFCURVE",
"293 14 OFFCURVE",
"445 11 CURVE"
);
}
);
width = 673;
}
);
leftKerningGroup = H;
unicode = 00DE;
},
{
glyphname = Q;
lastChange = "2021-10-18 12:38:38 +0000";
layers = (
{
background = {
paths = (
{
closed = 1;
nodes = (
"599 -272 OFFCURVE",
"639 -242 OFFCURVE",
"657 -213 CURVE SMOOTH",
"663 -204 OFFCURVE",
"665 -190 OFFCURVE",
"689 -190 CURVE SMOOTH",
"700 -190 OFFCURVE",
"704 -185 OFFCURVE",
"704 -181 CURVE SMOOTH",
"704 -178 OFFCURVE",
"701 -175 OFFCURVE",
"697 -175 CURVE SMOOTH",
"696 -175 LINE SMOOTH",
"686 -176 OFFCURVE",
"651 -184 OFFCURVE",
"603 -183 CURVE SMOOTH",
"524 -180 OFFCURVE",
"329 -114 OFFCURVE",
"247 -62 CURVE",
"322 -47 OFFCURVE",
"389 -31 OFFCURVE",
"451 -5 CURVE SMOOTH",
"605 59 OFFCURVE",
"760 225 OFFCURVE",
"760 393 CURVE SMOOTH",
"760 429 OFFCURVE",
"752 465 OFFCURVE",
"736 501 CURVE SMOOTH",
"687 606 OFFCURVE",
"585 649 OFFCURVE",
"480 649 CURVE SMOOTH",
"395 649 OFFCURVE",
"312 611 OFFCURVE",
"245 551 CURVE SMOOTH",
"155 471 OFFCURVE",
"99 352 OFFCURVE",
"99 247 CURVE SMOOTH",
"99 211 OFFCURVE",
"106 176 OFFCURVE",
"120 145 CURVE SMOOTH",
"154 73 OFFCURVE",
"213 30 OFFCURVE",
"280 10 CURVE SMOOTH",
"284 9 OFFCURVE",
"288 8 OFFCURVE",
"292 8 CURVE SMOOTH",
"317 8 OFFCURVE",
"343 32 OFFCURVE",
"386 51 CURVE SMOOTH",
"403 58 OFFCURVE",
"409 62 OFFCURVE",
"409 66 CURVE SMOOTH",
"409 69 OFFCURVE",
"403 70 OFFCURVE",
"393 72 CURVE SMOOTH",
"345 79 OFFCURVE",
"298 99 OFFCURVE",
"257 137 CURVE SMOOTH",
"199 190 OFFCURVE",
"177 257 OFFCURVE",
"177 322 CURVE SMOOTH",
"177 461 OFFCURVE",
"286 591 OFFCURVE",
"430 591 CURVE SMOOTH",
"570 591 OFFCURVE",
"683 480 OFFCURVE",
"683 346 CURVE SMOOTH",
"683 220 OFFCURVE",
"563 79 OFFCURVE",
"434 15 CURVE SMOOTH",
"407 1 OFFCURVE",
"265 -51 OFFCURVE",
"220 -51 CURVE SMOOTH",
"211 -51 OFFCURVE",
"206 -50 OFFCURVE",
"206 -45 CURVE SMOOTH",
"206 -48 OFFCURVE",
"209 -53 OFFCURVE",
"213 -58 CURVE SMOOTH",
"257 -111 OFFCURVE",
"418 -252 OFFCURVE",
"552 -267 CURVE SMOOTH"
);
}
);
};
layerId = "C36B7B90-196F-45C3-8412-B02CF16DA361";
paths = (
{
closed = 1;
nodes = (
"599 -272 OFFCURVE",
"639 -242 OFFCURVE",
"657 -213 CURVE SMOOTH",
"663 -204 OFFCURVE",
"665 -190 OFFCURVE",
"689 -190 CURVE SMOOTH",
"700 -190 OFFCURVE",
"704 -185 OFFCURVE",
"704 -181 CURVE SMOOTH",
"704 -178 OFFCURVE",
"701 -175 OFFCURVE",
"697 -175 CURVE SMOOTH",
"696 -175 LINE SMOOTH",
"686 -176 OFFCURVE",
"651 -184 OFFCURVE",
"603 -183 CURVE SMOOTH",
"524 -180 OFFCURVE",
"329 -114 OFFCURVE",
"247 -62 CURVE",
"322 -47 OFFCURVE",
"389 -31 OFFCURVE",
"451 -5 CURVE SMOOTH",
"605 59 OFFCURVE",
"760 225 OFFCURVE",
"760 393 CURVE SMOOTH",
"760 429 OFFCURVE",
"752 465 OFFCURVE",
"736 501 CURVE SMOOTH",
"687 606 OFFCURVE",
"585 649 OFFCURVE",
"480 649 CURVE SMOOTH",
"395 649 OFFCURVE",
"312 611 OFFCURVE",
"245 551 CURVE SMOOTH",
"155 471 OFFCURVE",
"99 352 OFFCURVE",
"99 247 CURVE SMOOTH",
"99 211 OFFCURVE",
"106 176 OFFCURVE",
"120 145 CURVE SMOOTH",
"154 73 OFFCURVE",
"213 30 OFFCURVE",
"280 10 CURVE SMOOTH",
"284 9 OFFCURVE",
"288 8 OFFCURVE",
"292 8 CURVE SMOOTH",
"317 8 OFFCURVE",
"343 32 OFFCURVE",
"386 51 CURVE SMOOTH",
"403 58 OFFCURVE",
"409 62 OFFCURVE",
"409 66 CURVE SMOOTH",
"409 69 OFFCURVE",
"403 70 OFFCURVE",
"393 72 CURVE SMOOTH",
"345 79 OFFCURVE",
"298 99 OFFCURVE",
"257 137 CURVE SMOOTH",
"199 190 OFFCURVE",
"177 257 OFFCURVE",
"177 322 CURVE SMOOTH",
"177 461 OFFCURVE",
"286 591 OFFCURVE",
"430 591 CURVE SMOOTH",
"570 591 OFFCURVE",
"683 480 OFFCURVE",
"683 346 CURVE SMOOTH",
"683 220 OFFCURVE",
"563 79 OFFCURVE",
"434 15 CURVE SMOOTH",
"407 1 OFFCURVE",
"265 -51 OFFCURVE",
"220 -51 CURVE SMOOTH",
"211 -51 OFFCURVE",
"206 -50 OFFCURVE",
"206 -45 CURVE SMOOTH",
"206 -48 OFFCURVE",
"209 -53 OFFCURVE",
"213 -58 CURVE SMOOTH",
"257 -111 OFFCURVE",
"418 -252 OFFCURVE",
"552 -267 CURVE SMOOTH"
);
}
);
width = 719;
}
);
leftKerningGroup = O;
leftMetricsKey = O;
note = Q;
rightKerningGroup = Q;
unicode = 0051;
},
{
glyphname = R;
lastChange = "2021-10-18 12:39:05 +0000";
layers = (
{
anchors = (
{
name = bottom;
position = "{418, 0}";
},
{
name = top;
position = "{507, 644}";
}
);
background = {
paths = (
{
closed = 1;
nodes = (
"663 -50 OFFCURVE",
"688 -41 OFFCURVE",
"704 -30 CURVE SMOOTH",
"711 -26 OFFCURVE",
"716 -18 OFFCURVE",
"727 -18 CURVE SMOOTH",
"731 -18 OFFCURVE",
"736 -19 OFFCURVE",
"742 -22 CURVE SMOOTH",
"746 -24 OFFCURVE",
"749 -25 OFFCURVE",
"752 -25 CURVE SMOOTH",
"757 -25 OFFCURVE",
"760 -21 OFFCURVE",
"760 -17 CURVE SMOOTH",
"760 -14 OFFCURVE",
"758 -11 OFFCURVE",
"755 -10 CURVE SMOOTH",
"744 -7 OFFCURVE",
"716 4 OFFCURVE",
"697 16 CURVE SMOOTH",
"652 43 OFFCURVE",
"450 227 OFFCURVE",
"403 292 CURVE",
"407 291 OFFCURVE",
"412 291 OFFCURVE",
"418 291 CURVE SMOOTH",
"437 291 OFFCURVE",
"463 295 OFFCURVE",
"500 307 CURVE SMOOTH",
"587 336 OFFCURVE",
"674 414 OFFCURVE",
"691 494 CURVE SMOOTH",
"694 507 OFFCURVE",
"695 519 OFFCURVE",
"695 530 CURVE SMOOTH",
"695 609 OFFCURVE",
"627 647 OFFCURVE",
"548 647 CURVE SMOOTH",
"488 647 OFFCURVE",
"419 629 OFFCURVE",
"380 629 CURVE SMOOTH",
"362 629 LINE SMOOTH",
"299 629 OFFCURVE",
"219 633 OFFCURVE",
"164 633 CURVE SMOOTH",
"157 633 OFFCURVE",
"149 625 OFFCURVE",
"149 620 CURVE SMOOTH",
"149 618 OFFCURVE",
"150 616 OFFCURVE",
"154 616 CURVE SMOOTH",
"168 617 OFFCURVE",
"244 615 OFFCURVE",
"264 612 CURVE SMOOTH",
"281 609 OFFCURVE",
"299 587 OFFCURVE",
"295 561 CURVE SMOOTH",
"270 416 OFFCURVE",
"246 287 OFFCURVE",
"205 142 CURVE SMOOTH",
"176 42 OFFCURVE",
"173 29 OFFCURVE",
"101 29 CURVE SMOOTH",
"82 29 OFFCURVE",
"57 30 OFFCURVE",
"25 30 CURVE",
"19 31 OFFCURVE",
"10 21 OFFCURVE",
"10 16 CURVE SMOOTH",
"10 14 OFFCURVE",
"11 13 OFFCURVE",
"13 13 CURVE SMOOTH",
"14 13 LINE SMOOTH",
"78 12 OFFCURVE",
"159 16 OFFCURVE",
"189 16 CURVE SMOOTH",
"233 16 OFFCURVE",
"287 14 OFFCURVE",
"447 11 CURVE",
"455 9 OFFCURVE",
"464 22 OFFCURVE",
"464 27 CURVE SMOOTH",
"464 29 OFFCURVE",
"463 30 OFFCURVE",
"461 30 CURVE SMOOTH",
"448 29 OFFCURVE",
"432 28 OFFCURVE",
"415 28 CURVE SMOOTH",
"396 28 OFFCURVE",
"378 29 OFFCURVE",
"365 31 CURVE SMOOTH",
"336 34 OFFCURVE",
"317 56 OFFCURVE",
"314 86 CURVE SMOOTH",
"313 92 OFFCURVE",
"313 100 OFFCURVE",
"313 107 CURVE SMOOTH",
"313 154 OFFCURVE",
"324 218 OFFCURVE",
"327 233 CURVE SMOOTH",
"360 411 OFFCURVE",
"382 484 OFFCURVE",
"391 509 CURVE SMOOTH",
"416 574 OFFCURVE",
"441 622 OFFCURVE",
"501 622 CURVE SMOOTH",
"560 622 OFFCURVE",
"583 574 OFFCURVE",
"579 515 CURVE SMOOTH",
"574 445 OFFCURVE",
"501 296 OFFCURVE",
"420 305 CURVE SMOOTH",
"379 310 OFFCURVE",
"389 336 OFFCURVE",
"377 336 CURVE SMOOTH",
"370 336 OFFCURVE",
"363 327 OFFCURVE",
"363 319 CURVE SMOOTH",
"363 314 OFFCURVE",
"365 309 OFFCURVE",
"371 306 CURVE SMOOTH",
"381 300 OFFCURVE",
"407 244 OFFCURVE",
"421 200 CURVE SMOOTH",
"449 117 OFFCURVE",
"532 -48 OFFCURVE",
"639 -50 CURVE SMOOTH"
);
}
);
};
layerId = "C36B7B90-196F-45C3-8412-B02CF16DA361";
paths = (
{
closed = 1;
nodes = (
"663 -50 OFFCURVE",
"688 -41 OFFCURVE",
"704 -30 CURVE SMOOTH",
"711 -26 OFFCURVE",
"716 -18 OFFCURVE",
"727 -18 CURVE SMOOTH",
"731 -18 OFFCURVE",
"736 -19 OFFCURVE",
"742 -22 CURVE SMOOTH",
"746 -24 OFFCURVE",
"749 -25 OFFCURVE",
"752 -25 CURVE SMOOTH",
"757 -25 OFFCURVE",
"760 -21 OFFCURVE",
"760 -17 CURVE SMOOTH",
"760 -14 OFFCURVE",
"758 -11 OFFCURVE",
"755 -10 CURVE SMOOTH",
"744 -7 OFFCURVE",
"716 4 OFFCURVE",
"697 16 CURVE SMOOTH",
"652 43 OFFCURVE",
"450 227 OFFCURVE",
"403 292 CURVE",
"407 291 OFFCURVE",
"412 291 OFFCURVE",
"418 291 CURVE SMOOTH",
"437 291 OFFCURVE",
"463 295 OFFCURVE",
"500 307 CURVE SMOOTH",
"587 336 OFFCURVE",
"674 414 OFFCURVE",
"691 494 CURVE SMOOTH",
"694 507 OFFCURVE",
"695 519 OFFCURVE",
"695 530 CURVE SMOOTH",
"695 609 OFFCURVE",
"627 647 OFFCURVE",
"548 647 CURVE SMOOTH",
"488 647 OFFCURVE",
"419 629 OFFCURVE",
"380 629 CURVE SMOOTH",
"362 629 LINE SMOOTH",
"299 629 OFFCURVE",
"219 633 OFFCURVE",
"164 633 CURVE SMOOTH",
"157 633 OFFCURVE",
"149 625 OFFCURVE",
"149 620 CURVE SMOOTH",
"149 618 OFFCURVE",
"150 616 OFFCURVE",
"154 616 CURVE SMOOTH",
"168 617 OFFCURVE",
"244 615 OFFCURVE",
"264 612 CURVE SMOOTH",
"281 609 OFFCURVE",
"299 587 OFFCURVE",
"295 561 CURVE SMOOTH",
"270 416 OFFCURVE",
"246 287 OFFCURVE",
"205 142 CURVE SMOOTH",
"176 42 OFFCURVE",
"173 29 OFFCURVE",
"101 29 CURVE SMOOTH",
"82 29 OFFCURVE",
"57 30 OFFCURVE",
"25 30 CURVE",
"19 31 OFFCURVE",
"10 21 OFFCURVE",
"10 16 CURVE SMOOTH",
"10 14 OFFCURVE",
"11 13 OFFCURVE",
"13 13 CURVE SMOOTH",
"14 13 LINE SMOOTH",
"78 13 OFFCURVE",
"159 16 OFFCURVE",
"189 16 CURVE SMOOTH",
"233 16 OFFCURVE",
"287 14 OFFCURVE",
"447 11 CURVE",
"455 9 OFFCURVE",
"464 22 OFFCURVE",
"464 27 CURVE SMOOTH",
"464 29 OFFCURVE",
"463 30 OFFCURVE",
"461 30 CURVE SMOOTH",
"448 29 OFFCURVE",
"432 28 OFFCURVE",
"415 28 CURVE SMOOTH",
"396 28 OFFCURVE",
"378 29 OFFCURVE",
"365 31 CURVE SMOOTH",
"336 34 OFFCURVE",
"317 56 OFFCURVE",
"314 86 CURVE SMOOTH",
"313 92 OFFCURVE",
"313 100 OFFCURVE",
"313 107 CURVE SMOOTH",
"313 154 OFFCURVE",
"324 218 OFFCURVE",
"327 233 CURVE SMOOTH",
"360 411 OFFCURVE",
"382 484 OFFCURVE",
"391 509 CURVE SMOOTH",
"416 574 OFFCURVE",
"441 622 OFFCURVE",
"501 622 CURVE SMOOTH",
"560 622 OFFCURVE",
"583 574 OFFCURVE",
"579 515 CURVE SMOOTH",
"574 445 OFFCURVE",
"501 296 OFFCURVE",
"420 305 CURVE SMOOTH",
"379 310 OFFCURVE",
"389 336 OFFCURVE",
"377 336 CURVE SMOOTH",
"370 336 OFFCURVE",
"363 327 OFFCURVE",
"363 319 CURVE SMOOTH",
"363 314 OFFCURVE",
"365 309 OFFCURVE",
"371 306 CURVE SMOOTH",
"381 300 OFFCURVE",
"407 244 OFFCURVE",
"421 200 CURVE SMOOTH",
"449 117 OFFCURVE",
"532 -48 OFFCURVE",
"639 -50 CURVE SMOOTH"
);
}
);
width = 705;
}
);
leftKerningGroup = H;
leftMetricsKey = H;
note = R;
rightKerningGroup = R;
unicode = 0052;
},
{
glyphname = S;
lastChange = "2021-10-18 12:39:05 +0000";
layers = (
{
anchors = (
{
name = bottom;
position = "{265, 0}";
},
{
name = top;
position = "{470, 650}";
}
);
background = {
paths = (
{
closed = 1;
nodes = (
"409 1 OFFCURVE",
"587 147 OFFCURVE",
"597 286 CURVE SMOOTH",
"600 335 OFFCURVE",
"567 375 OFFCURVE",
"459 379 CURVE SMOOTH",
"424 381 OFFCURVE",
"274 377 OFFCURVE",
"281 469 CURVE SMOOTH",
"288 563 OFFCURVE",
"357 606 OFFCURVE",
"425 606 CURVE SMOOTH",
"490 606 OFFCURVE",
"553 565 OFFCURVE",
"553 491 CURVE SMOOTH",
"553 476 OFFCURVE",
"550 459 OFFCURVE",
"544 440 CURVE",
"541 435 OFFCURVE",
"540 430 OFFCURVE",
"540 427 CURVE SMOOTH",
"540 423 OFFCURVE",
"541 420 OFFCURVE",
"544 420 CURVE SMOOTH",
"547 420 OFFCURVE",
"551 423 OFFCURVE",
"555 431 CURVE SMOOTH",
"580 485 OFFCURVE",
"589 496 OFFCURVE",
"614 527 CURVE SMOOTH",
"627 543 OFFCURVE",
"634 555 OFFCURVE",
"634 568 CURVE SMOOTH",
"634 579 OFFCURVE",
"630 591 OFFCURVE",
"620 608 CURVE SMOOTH",
"601 639 OFFCURVE",
"559 653 OFFCURVE",
"507 653 CURVE SMOOTH",
"374 653 OFFCURVE",
"179 561 OFFCURVE",
"170 433 CURVE SMOOTH",
"166 376 OFFCURVE",
"218 319 OFFCURVE",
"317 312 CURVE SMOOTH",
"399 307 OFFCURVE",
"497 304 OFFCURVE",
"491 215 CURVE SMOOTH",
"483 112 OFFCURVE",
"395 55 OFFCURVE",
"313 55 CURVE SMOOTH",
"239 55 OFFCURVE",
"170 101 OFFCURVE",
"170 202 CURVE SMOOTH",
"170 208 OFFCURVE",
"170 215 OFFCURVE",
"171 222 CURVE SMOOTH",
"173 240 OFFCURVE",
"182 270 OFFCURVE",
"177 273 CURVE SMOOTH",
"165 280 OFFCURVE",
"163 256 OFFCURVE",
"157 241 CURVE SMOOTH",
"131 169 OFFCURVE",
"122 149 OFFCURVE",
"95 114 CURVE SMOOTH",
"90 108 OFFCURVE",
"89 102 OFFCURVE",
"89 95 CURVE SMOOTH",
"89 72 OFFCURVE",
"113 44 OFFCURVE",
"123 31 CURVE SMOOTH",
"140 8 OFFCURVE",
"172 1 OFFCURVE",
"206 1 CURVE SMOOTH"
);
}
);
};
layerId = "C36B7B90-196F-45C3-8412-B02CF16DA361";
paths = (
{
closed = 1;
nodes = (
"409 1 OFFCURVE",
"587 147 OFFCURVE",
"597 286 CURVE SMOOTH",
"600 335 OFFCURVE",
"567 375 OFFCURVE",
"459 379 CURVE SMOOTH",
"424 381 OFFCURVE",
"274 377 OFFCURVE",
"281 469 CURVE SMOOTH",
"288 563 OFFCURVE",
"357 606 OFFCURVE",
"425 606 CURVE SMOOTH",
"490 606 OFFCURVE",
"553 565 OFFCURVE",
"553 491 CURVE SMOOTH",
"553 476 OFFCURVE",
"550 459 OFFCURVE",
"544 440 CURVE",
"541 435 OFFCURVE",
"540 430 OFFCURVE",
"540 427 CURVE SMOOTH",
"540 423 OFFCURVE",
"541 420 OFFCURVE",
"544 420 CURVE SMOOTH",
"547 420 OFFCURVE",
"551 423 OFFCURVE",
"555 431 CURVE SMOOTH",
"580 485 OFFCURVE",
"589 496 OFFCURVE",
"614 527 CURVE SMOOTH",
"627 543 OFFCURVE",
"634 555 OFFCURVE",
"634 568 CURVE SMOOTH",
"634 579 OFFCURVE",
"630 591 OFFCURVE",
"620 608 CURVE SMOOTH",
"601 639 OFFCURVE",
"559 653 OFFCURVE",
"507 653 CURVE SMOOTH",
"374 653 OFFCURVE",
"179 561 OFFCURVE",
"170 433 CURVE SMOOTH",
"166 376 OFFCURVE",
"218 319 OFFCURVE",
"317 312 CURVE SMOOTH",
"399 307 OFFCURVE",
"497 304 OFFCURVE",
"491 215 CURVE SMOOTH",
"483 112 OFFCURVE",
"395 55 OFFCURVE",
"313 55 CURVE SMOOTH",
"239 55 OFFCURVE",
"170 101 OFFCURVE",
"170 202 CURVE SMOOTH",
"170 208 OFFCURVE",
"170 215 OFFCURVE",
"171 222 CURVE SMOOTH",
"173 240 OFFCURVE",
"182 270 OFFCURVE",
"177 273 CURVE SMOOTH",
"165 280 OFFCURVE",
"163 256 OFFCURVE",
"157 241 CURVE SMOOTH",
"131 169 OFFCURVE",
"122 149 OFFCURVE",
"95 114 CURVE SMOOTH",
"90 108 OFFCURVE",
"89 102 OFFCURVE",
"89 95 CURVE SMOOTH",
"89 72 OFFCURVE",
"113 44 OFFCURVE",
"123 31 CURVE SMOOTH",
"140 8 OFFCURVE",
"172 1 OFFCURVE",
"206 1 CURVE SMOOTH"
);
}
);
width = 602;
}
);
leftKerningGroup = S;
note = S;
rightKerningGroup = S;
unicode = 0053;
},
{
glyphname = Germandbls;
lastChange = "2021-10-18 12:38:38 +0000";
layers = (
{
background = {
hints = (
{
horizontal = 1;
place = "{-5, 62}";
type = Stem;
},
{
place = "{138, 67}";
type = Stem;
},
{
place = "{830, 85}";
type = Stem;
}
);
paths = (
{
closed = 1;
nodes = (
"-54 -156 OFFCURVE",
"-52 -155 OFFCURVE",
"-49 -154 CURVE SMOOTH",
"-40 -152 OFFCURVE",
"-20 -144 OFFCURVE",
"-15 -142 CURVE SMOOTH",
"45 -124 OFFCURVE",
"59 -103 OFFCURVE",
"68 -65 CURVE SMOOTH",
"122 159 OFFCURVE",
"171 401 OFFCURVE",
"228 617 CURVE SMOOTH",
"235 641 OFFCURVE",
"289 661 OFFCURVE",
"341 663 CURVE SMOOTH",
"352 663 OFFCURVE",
"364 664 OFFCURVE",
"375 664 CURVE SMOOTH",
"420 664 OFFCURVE",
"462 658 OFFCURVE",
"462 621 CURVE SMOOTH",
"462 606 OFFCURVE",
"455 586 OFFCURVE",
"439 560 CURVE SMOOTH",
"395 489 OFFCURVE",
"354 452 OFFCURVE",
"327 429 CURVE SMOOTH",
"291 398 OFFCURVE",
"278 373 OFFCURVE",
"278 353 CURVE SMOOTH",
"278 320 OFFCURVE",
"312 299 OFFCURVE",
"349 280 CURVE SMOOTH",
"421 243 OFFCURVE",
"464 204 OFFCURVE",
"464 158 CURVE SMOOTH",
"464 146 OFFCURVE",
"461 134 OFFCURVE",
"455 121 CURVE SMOOTH",
"436 82 OFFCURVE",
"391 50 OFFCURVE",
"337 50 CURVE SMOOTH",
"275 50 OFFCURVE",
"242 98 OFFCURVE",
"242 156 CURVE SMOOTH",
"242 168 OFFCURVE",
"243 181 OFFCURVE",
"246 193 CURVE",
"235 205 LINE",
"235 192 OFFCURVE",
"232 182 OFFCURVE",
"228 169 CURVE SMOOTH",
"223 156 OFFCURVE",
"205 104 OFFCURVE",
"199 89 CURVE SMOOTH",
"188 60 OFFCURVE",
"177 30 OFFCURVE",
"180 13 CURVE",
"183 9 LINE",
"211 6 OFFCURVE",
"238 4 OFFCURVE",
"264 4 CURVE SMOOTH",
"340 4 OFFCURVE",
"407 22 OFFCURVE",
"461 86 CURVE SMOOTH",
"498 129 OFFCURVE",
"518 177 OFFCURVE",
"518 214 CURVE SMOOTH",
"518 233 OFFCURVE",
"512 249 OFFCURVE",
"499 259 CURVE SMOOTH",
"464 285 OFFCURVE",
"419 302 OFFCURVE",
"362 328 CURVE SMOOTH",
"351 333 OFFCURVE",
"346 340 OFFCURVE",
"346 350 CURVE SMOOTH",
"346 381 OFFCURVE",
"394 441 OFFCURVE",
"497 555 CURVE SMOOTH",
"519 580 OFFCURVE",
"529 600 OFFCURVE",
"529 618 CURVE SMOOTH",
"529 669 OFFCURVE",
"446 691 OFFCURVE",
"362 691 CURVE SMOOTH",
"245 691 OFFCURVE",
"180 679 OFFCURVE",
"167 630 CURVE SMOOTH",
"149 563 OFFCURVE",
"140 523 OFFCURVE",
"131 479 CURVE SMOOTH",
"113 396 OFFCURVE",
"3 -105 OFFCURVE",
"-52 -142 CURVE",
"-58 -147 OFFCURVE",
"-61 -151 OFFCURVE",
"-61 -153 CURVE SMOOTH",
"-61 -155 OFFCURVE",
"-59 -156 OFFCURVE",
"-56 -156 CURVE SMOOTH"
);
},
{
closed = 1;
nodes = (
"-109 -182 OFFCURVE",
"-106 -181 OFFCURVE",
"-105 -178 CURVE",
"-82 -134 OFFCURVE",
"-60 -78 OFFCURVE",
"-39 -13 CURVE SMOOTH",
"-20 47 OFFCURVE",
"16 168 OFFCURVE",
"32 234 CURVE",
"92 277 LINE",
"91 277 OFFCURVE",
"51 313 OFFCURVE",
"50 313 CURVE",
"54 328 OFFCURVE",
"60 357 OFFCURVE",
"64 372 CURVE",
"116 401 LINE",
"77 441 LINE",
"89 502 OFFCURVE",
"99 561 OFFCURVE",
"106 612 CURVE SMOOTH",
"112 664 OFFCURVE",
"116 719 OFFCURVE",
"116 759 CURVE SMOOTH",
"116 784 OFFCURVE",
"114 804 OFFCURVE",
"111 812 CURVE",
"109 815 OFFCURVE",
"106 816 OFFCURVE",
"103 816 CURVE SMOOTH",
"99 816 OFFCURVE",
"95 814 OFFCURVE",
"95 810 CURVE SMOOTH",
"95 808 LINE",
"98 804 OFFCURVE",
"99 793 OFFCURVE",
"99 778 CURVE SMOOTH",
"99 740 OFFCURVE",
"91 674 OFFCURVE",
"82 609 CURVE SMOOTH",
"75 558 OFFCURVE",
"65 502 OFFCURVE",
"53 443 CURVE",
"-1 404 LINE",
"17 394 OFFCURVE",
"29 386 OFFCURVE",
"41 377 CURVE",
"36 354 OFFCURVE",
"31 332 OFFCURVE",
"29 316 CURVE",
"-24 286 LINE",
"-19 280 OFFCURVE",
"7 258 OFFCURVE",
"14 250 CURVE",
"-4 178 OFFCURVE",
"-38 52 OFFCURVE",
"-57 -15 CURVE SMOOTH",
"-78 -78 OFFCURVE",
"-99 -134 OFFCURVE",
"-119 -173 CURVE SMOOTH",
"-122 -178 OFFCURVE",
"-117 -182 OFFCURVE",
"-112 -182 CURVE SMOOTH"
);
}
);
};
layerId = "C36B7B90-196F-45C3-8412-B02CF16DA361";
paths = (
{
closed = 1;
nodes = (
"-54 -156 OFFCURVE",
"-52 -155 OFFCURVE",
"-49 -154 CURVE SMOOTH",
"-40 -152 OFFCURVE",
"-20 -144 OFFCURVE",
"-15 -142 CURVE SMOOTH",
"45 -124 OFFCURVE",
"59 -103 OFFCURVE",
"68 -65 CURVE SMOOTH",
"122 159 OFFCURVE",
"171 401 OFFCURVE",
"228 617 CURVE SMOOTH",
"235 641 OFFCURVE",
"289 661 OFFCURVE",
"341 663 CURVE SMOOTH",
"352 663 OFFCURVE",
"364 664 OFFCURVE",
"375 664 CURVE SMOOTH",
"420 664 OFFCURVE",
"462 658 OFFCURVE",
"462 621 CURVE SMOOTH",
"462 606 OFFCURVE",
"455 586 OFFCURVE",
"439 560 CURVE SMOOTH",
"395 489 OFFCURVE",
"354 452 OFFCURVE",
"327 429 CURVE SMOOTH",
"291 398 OFFCURVE",
"278 373 OFFCURVE",
"278 353 CURVE SMOOTH",
"278 320 OFFCURVE",
"312 299 OFFCURVE",
"349 280 CURVE SMOOTH",
"421 243 OFFCURVE",
"464 204 OFFCURVE",
"464 158 CURVE SMOOTH",
"464 146 OFFCURVE",
"461 134 OFFCURVE",
"455 121 CURVE SMOOTH",
"436 82 OFFCURVE",
"391 50 OFFCURVE",
"337 50 CURVE SMOOTH",
"275 50 OFFCURVE",
"242 98 OFFCURVE",
"242 156 CURVE SMOOTH",
"242 168 OFFCURVE",
"243 181 OFFCURVE",
"246 193 CURVE",
"235 205 LINE",
"235 192 OFFCURVE",
"232 182 OFFCURVE",
"228 169 CURVE SMOOTH",
"223 156 OFFCURVE",
"205 104 OFFCURVE",
"199 89 CURVE SMOOTH",
"188 60 OFFCURVE",
"177 30 OFFCURVE",
"180 13 CURVE",
"183 9 LINE",
"211 6 OFFCURVE",
"238 4 OFFCURVE",
"264 4 CURVE SMOOTH",
"340 4 OFFCURVE",
"407 22 OFFCURVE",
"461 86 CURVE SMOOTH",
"498 129 OFFCURVE",
"518 177 OFFCURVE",
"518 214 CURVE SMOOTH",
"518 233 OFFCURVE",
"512 249 OFFCURVE",
"499 259 CURVE SMOOTH",
"464 285 OFFCURVE",
"419 302 OFFCURVE",
"362 328 CURVE SMOOTH",
"351 333 OFFCURVE",
"346 340 OFFCURVE",
"346 350 CURVE SMOOTH",
"346 381 OFFCURVE",
"394 441 OFFCURVE",
"497 555 CURVE SMOOTH",
"519 580 OFFCURVE",
"529 600 OFFCURVE",
"529 618 CURVE SMOOTH",
"529 669 OFFCURVE",
"446 691 OFFCURVE",
"362 691 CURVE SMOOTH",
"245 691 OFFCURVE",
"180 679 OFFCURVE",
"167 630 CURVE SMOOTH",
"149 563 OFFCURVE",
"140 523 OFFCURVE",
"131 479 CURVE SMOOTH",
"113 396 OFFCURVE",
"3 -105 OFFCURVE",
"-52 -142 CURVE",
"-58 -147 OFFCURVE",
"-61 -151 OFFCURVE",
"-61 -153 CURVE SMOOTH",
"-61 -155 OFFCURVE",
"-59 -156 OFFCURVE",
"-56 -156 CURVE SMOOTH"
);
},
{
closed = 1;
nodes = (
"-109 -182 OFFCURVE",
"-106 -181 OFFCURVE",
"-105 -178 CURVE",
"-82 -134 OFFCURVE",
"-60 -78 OFFCURVE",
"-39 -13 CURVE SMOOTH",
"-20 47 OFFCURVE",
"16 168 OFFCURVE",
"32 234 CURVE",
"92 277 LINE",
"91 277 OFFCURVE",
"51 313 OFFCURVE",
"50 313 CURVE",
"54 328 OFFCURVE",
"60 357 OFFCURVE",
"64 372 CURVE",
"116 401 LINE",
"77 441 LINE",
"89 502 OFFCURVE",
"99 561 OFFCURVE",
"106 612 CURVE SMOOTH",
"112 664 OFFCURVE",
"116 719 OFFCURVE",
"116 759 CURVE SMOOTH",
"116 784 OFFCURVE",
"114 804 OFFCURVE",
"111 812 CURVE",
"109 815 OFFCURVE",
"106 816 OFFCURVE",
"103 816 CURVE SMOOTH",
"99 816 OFFCURVE",
"95 814 OFFCURVE",
"95 810 CURVE SMOOTH",
"95 808 LINE",
"98 804 OFFCURVE",
"99 793 OFFCURVE",
"99 778 CURVE SMOOTH",
"99 740 OFFCURVE",
"91 674 OFFCURVE",
"82 609 CURVE SMOOTH",
"75 558 OFFCURVE",
"65 502 OFFCURVE",
"53 443 CURVE",
"-1 404 LINE",
"17 394 OFFCURVE",
"29 386 OFFCURVE",
"41 377 CURVE",
"36 354 OFFCURVE",
"31 332 OFFCURVE",
"29 316 CURVE",
"-24 286 LINE",
"-19 280 OFFCURVE",
"7 258 OFFCURVE",
"14 250 CURVE",
"-4 178 OFFCURVE",
"-38 52 OFFCURVE",
"-57 -15 CURVE SMOOTH",
"-78 -78 OFFCURVE",
"-99 -134 OFFCURVE",
"-119 -173 CURVE SMOOTH",
"-122 -178 OFFCURVE",
"-117 -182 OFFCURVE",
"-112 -182 CURVE SMOOTH"
);
}
);
width = 551;
}
);
unicode = 1E9E;
},
{
glyphname = Schwa;
lastChange = "2021-10-18 12:38:38 +0000";
layers = (
{
background = {
paths = (
{
closed = 1;
nodes = (
"367 -10 OFFCURVE",
"580 175 OFFCURVE",
"595 398 CURVE SMOOTH",
"598 437 OFFCURVE",
"592 476 OFFCURVE",
"579 510 CURVE SMOOTH",
"538 620 OFFCURVE",
"438 665 OFFCURVE",
"333 665 CURVE SMOOTH",
"292 665 OFFCURVE",
"249 659 OFFCURVE",
"209 648 CURVE SMOOTH",
"169 637 OFFCURVE",
"148 608 OFFCURVE",
"126 572 CURVE SMOOTH",
"105 538 OFFCURVE",
"38 463 OFFCURVE",
"38 463 CURVE",
"45 449 LINE",
"57 465 OFFCURVE",
"69 480 OFFCURVE",
"83 494 CURVE SMOOTH",
"138 547 OFFCURVE",
"225 581 OFFCURVE",
"295 581 CURVE SMOOTH",
"445 581 OFFCURVE",
"515 499 OFFCURVE",
"515 363 CURVE SMOOTH",
"515 354 OFFCURVE",
"515 345 OFFCURVE",
"514 335 CURVE SMOOTH",
"503 165 OFFCURVE",
"352 56 OFFCURVE",
"207 56 CURVE SMOOTH",
"132 56 OFFCURVE",
"113 91 OFFCURVE",
"113 152 CURVE SMOOTH",
"113 183 OFFCURVE",
"122 251 OFFCURVE",
"170 291 CURVE SMOOTH",
"260 367 OFFCURVE",
"432 396 OFFCURVE",
"519 396 CURVE SMOOTH",
"545 396 OFFCURVE",
"554 401 OFFCURVE",
"554 409 CURVE SMOOTH",
"554 418 OFFCURVE",
"540 430 OFFCURVE",
"530 437 CURVE",
"530 437 OFFCURVE",
"292 411 OFFCURVE",
"152 344 CURVE SMOOTH",
"33 287 OFFCURVE",
"30 201 OFFCURVE",
"30 142 CURVE SMOOTH",
"30 24 OFFCURVE",
"97 -10 OFFCURVE",
"180 -10 CURVE SMOOTH"
);
}
);
};
layerId = "C36B7B90-196F-45C3-8412-B02CF16DA361";
paths = (
{
closed = 1;
nodes = (
"367 -10 OFFCURVE",
"580 175 OFFCURVE",
"595 398 CURVE SMOOTH",
"598 437 OFFCURVE",
"592 476 OFFCURVE",
"579 510 CURVE SMOOTH",
"538 620 OFFCURVE",
"438 665 OFFCURVE",
"333 665 CURVE SMOOTH",
"292 665 OFFCURVE",
"249 659 OFFCURVE",
"209 648 CURVE SMOOTH",
"169 637 OFFCURVE",
"148 608 OFFCURVE",
"126 572 CURVE SMOOTH",
"105 538 OFFCURVE",
"38 463 OFFCURVE",
"38 463 CURVE",
"45 449 LINE",
"57 465 OFFCURVE",
"69 480 OFFCURVE",
"83 494 CURVE SMOOTH",
"138 547 OFFCURVE",
"225 581 OFFCURVE",
"295 581 CURVE SMOOTH",
"445 581 OFFCURVE",
"515 499 OFFCURVE",
"515 363 CURVE SMOOTH",
"515 354 OFFCURVE",
"515 345 OFFCURVE",
"514 335 CURVE SMOOTH",
"503 165 OFFCURVE",
"352 56 OFFCURVE",
"207 56 CURVE SMOOTH",
"132 56 OFFCURVE",
"113 91 OFFCURVE",
"113 152 CURVE SMOOTH",
"113 183 OFFCURVE",
"122 251 OFFCURVE",
"170 291 CURVE SMOOTH",
"260 367 OFFCURVE",
"432 396 OFFCURVE",
"519 396 CURVE SMOOTH",
"545 396 OFFCURVE",
"554 401 OFFCURVE",
"554 409 CURVE SMOOTH",
"554 418 OFFCURVE",
"540 430 OFFCURVE",
"530 437 CURVE",
"530 437 OFFCURVE",
"292 411 OFFCURVE",
"152 344 CURVE SMOOTH",
"33 287 OFFCURVE",
"30 201 OFFCURVE",
"30 142 CURVE SMOOTH",
"30 24 OFFCURVE",
"97 -10 OFFCURVE",
"180 -10 CURVE SMOOTH"
);
}
);
width = 626;
}
);
unicode = 018F;
},
{
glyphname = T;
lastChange = "2021-10-18 12:38:38 +0000";
layers = (
{
anchors = (
{
name = bottom;
position = "{320, 17}";
},
{
name = center;
position = "{382, 387}";
},
{
name = top;
position = "{431, 628}";
}
);
background = {
paths = (
{
closed = 1;
nodes = (
"98 13 LINE SMOOTH",
"162 12 OFFCURVE",
"243 15 OFFCURVE",
"272 16 CURVE SMOOTH",
"285 17 OFFCURVE",
"302 17 OFFCURVE",
"320 17 CURVE SMOOTH",
"394 17 OFFCURVE",
"498 13 OFFCURVE",
"550 13 CURVE SMOOTH",
"557 13 OFFCURVE",
"565 22 OFFCURVE",
"565 27 CURVE SMOOTH",
"565 29 OFFCURVE",
"564 31 OFFCURVE",
"560 31 CURVE SMOOTH",
"530 29 OFFCURVE",
"429 32 OFFCURVE",
"409 35 CURVE SMOOTH",
"386 39 OFFCURVE",
"382 62 OFFCURVE",
"382 85 CURVE SMOOTH",
"382 99 OFFCURVE",
"384 113 OFFCURVE",
"384 121 CURVE SMOOTH",
"385 160 OFFCURVE",
"450 512 OFFCURVE",
"463 527 CURVE SMOOTH",
"474 540 OFFCURVE",
"482 580 OFFCURVE",
"579 581 CURVE SMOOTH",
"628 581 OFFCURVE",
"662 559 OFFCURVE",
"662 492 CURVE SMOOTH",
"662 482 OFFCURVE",
"661 470 OFFCURVE",
"659 457 CURVE SMOOTH",
"657 447 OFFCURVE",
"662 442 OFFCURVE",
"666 442 CURVE SMOOTH",
"669 442 OFFCURVE",
"672 444 OFFCURVE",
"673 448 CURVE SMOOTH",
"680 501 OFFCURVE",
"680 525 OFFCURVE",
"689 572 CURVE SMOOTH",
"691 583 OFFCURVE",
"692 593 OFFCURVE",
"692 601 CURVE SMOOTH",
"692 628 OFFCURVE",
"680 638 OFFCURVE",
"646 636 CURVE SMOOTH",
"562 632 OFFCURVE",
"523 628 OFFCURVE",
"451 628 CURVE SMOOTH",
"366 628 OFFCURVE",
"282 634 OFFCURVE",
"232 638 CURVE SMOOTH",
"178 641 OFFCURVE",
"170 590 OFFCURVE",
"149 532 CURVE SMOOTH",
"137 500 OFFCURVE",
"129 471 OFFCURVE",
"123 455 CURVE SMOOTH",
"121 450 OFFCURVE",
"126 444 OFFCURVE",
"129 444 CURVE SMOOTH",
"131 444 OFFCURVE",
"132 445 OFFCURVE",
"133 447 CURVE SMOOTH",
"169 535 OFFCURVE",
"218 590 OFFCURVE",
"298 590 CURVE SMOOTH",
"353 590 OFFCURVE",
"372 582 OFFCURVE",
"372 548 CURVE SMOOTH",
"372 538 OFFCURVE",
"370 525 OFFCURVE",
"367 510 CURVE SMOOTH",
"345 387 OFFCURVE",
"320 263 OFFCURVE",
"287 143 CURVE SMOOTH",
"259 41 OFFCURVE",
"257 29 OFFCURVE",
"161 29 CURVE SMOOTH",
"146 29 OFFCURVE",
"128 30 OFFCURVE",
"108 30 CURVE",
"103 31 OFFCURVE",
"94 21 OFFCURVE",
"94 16 CURVE SMOOTH",
"94 14 OFFCURVE",
"95 13 OFFCURVE",
"97 13 CURVE SMOOTH"
);
}
);
};
layerId = "C36B7B90-196F-45C3-8412-B02CF16DA361";
paths = (
{
closed = 1;
nodes = (
"98 13 LINE SMOOTH",
"162 13 OFFCURVE",
"243 15 OFFCURVE",
"272 16 CURVE SMOOTH",
"285 17 OFFCURVE",
"302 17 OFFCURVE",
"320 17 CURVE SMOOTH",
"394 17 OFFCURVE",
"498 13 OFFCURVE",
"550 13 CURVE SMOOTH",
"557 13 OFFCURVE",
"565 22 OFFCURVE",
"565 27 CURVE SMOOTH",
"565 29 OFFCURVE",
"564 31 OFFCURVE",
"560 31 CURVE SMOOTH",
"530 29 OFFCURVE",
"429 32 OFFCURVE",
"409 35 CURVE SMOOTH",
"386 39 OFFCURVE",
"382 62 OFFCURVE",
"382 85 CURVE SMOOTH",
"382 99 OFFCURVE",
"384 113 OFFCURVE",
"384 121 CURVE SMOOTH",
"385 160 OFFCURVE",
"450 512 OFFCURVE",
"463 527 CURVE SMOOTH",
"474 540 OFFCURVE",
"482 580 OFFCURVE",
"579 581 CURVE SMOOTH",
"628 581 OFFCURVE",
"662 559 OFFCURVE",
"662 492 CURVE SMOOTH",
"662 482 OFFCURVE",
"661 470 OFFCURVE",
"659 457 CURVE SMOOTH",
"657 447 OFFCURVE",
"662 442 OFFCURVE",
"666 442 CURVE SMOOTH",
"669 442 OFFCURVE",
"672 444 OFFCURVE",
"673 448 CURVE SMOOTH",
"680 501 OFFCURVE",
"680 525 OFFCURVE",
"689 572 CURVE SMOOTH",
"691 583 OFFCURVE",
"692 593 OFFCURVE",
"692 601 CURVE SMOOTH",
"692 628 OFFCURVE",
"680 638 OFFCURVE",
"646 636 CURVE SMOOTH",
"562 632 OFFCURVE",
"523 628 OFFCURVE",
"451 628 CURVE SMOOTH",
"366 628 OFFCURVE",
"282 634 OFFCURVE",
"232 638 CURVE SMOOTH",
"178 641 OFFCURVE",
"170 590 OFFCURVE",
"149 532 CURVE SMOOTH",
"137 500 OFFCURVE",
"129 471 OFFCURVE",
"123 455 CURVE SMOOTH",
"121 450 OFFCURVE",
"126 444 OFFCURVE",
"129 444 CURVE SMOOTH",
"131 444 OFFCURVE",
"132 445 OFFCURVE",
"133 447 CURVE SMOOTH",
"169 535 OFFCURVE",
"218 590 OFFCURVE",
"298 590 CURVE SMOOTH",
"353 590 OFFCURVE",
"372 582 OFFCURVE",
"372 548 CURVE SMOOTH",
"372 538 OFFCURVE",
"370 525 OFFCURVE",
"367 510 CURVE SMOOTH",
"345 387 OFFCURVE",
"320 263 OFFCURVE",
"287 143 CURVE SMOOTH",
"259 41 OFFCURVE",
"257 29 OFFCURVE",
"161 29 CURVE SMOOTH",
"146 29 OFFCURVE",
"128 30 OFFCURVE",
"108 30 CURVE",
"103 31 OFFCURVE",
"94 21 OFFCURVE",
"94 16 CURVE SMOOTH",
"94 14 OFFCURVE",
"95 13 OFFCURVE",
"97 13 CURVE SMOOTH"
);
}
);
width = 612;
}
);
leftKerningGroup = T;
note = T;
rightKerningGroup = T;
unicode = 0054;
},
{
glyphname = U;
lastChange = "2021-10-18 12:39:05 +0000";
layers = (
{
anchors = (
{
name = bottom;
position = "{365, 0}";
},
{
name = ogonek;
position = "{405, 10}";
},
{
name = top;
position = "{510, 630}";
},
{
name = topright;
position = "{722, 642}";
}
);
background = {
paths = (
{
closed = 1;
nodes = (
"395 -3 LINE SMOOTH",
"522 -1 OFFCURVE",
"610 29 OFFCURVE",
"642 158 CURVE SMOOTH",
"654 203 OFFCURVE",
"658 250 OFFCURVE",
"665 291 CURVE SMOOTH",
"681 369 OFFCURVE",
"700 455 OFFCURVE",
"713 503 CURVE SMOOTH",
"739 604 OFFCURVE",
"765 617 OFFCURVE",
"855 615 CURVE",
"860 614 OFFCURVE",
"869 625 OFFCURVE",
"869 631 CURVE SMOOTH",
"869 632 OFFCURVE",
"868 633 OFFCURVE",
"866 633 CURVE SMOOTH",
"801 633 OFFCURVE",
"721 631 OFFCURVE",
"691 631 CURVE SMOOTH",
"670 631 OFFCURVE",
"656 630 OFFCURVE",
"644 630 CURVE SMOOTH",
"620 630 OFFCURVE",
"606 631 OFFCURVE",
"563 634 CURVE SMOOTH",
"557 634 OFFCURVE",
"548 626 OFFCURVE",
"548 621 CURVE SMOOTH",
"548 619 OFFCURVE",
"550 618 OFFCURVE",
"553 618 CURVE SMOOTH",
"561 619 OFFCURVE",
"567 619 OFFCURVE",
"574 619 CURVE SMOOTH",
"581 619 OFFCURVE",
"588 619 OFFCURVE",
"598 617 CURVE SMOOTH",
"610 614 OFFCURVE",
"629 602 OFFCURVE",
"625 577 CURVE SMOOTH",
"603 451 OFFCURVE",
"569 268 OFFCURVE",
"537 140 CURVE SMOOTH",
"519 68 OFFCURVE",
"458 32 OFFCURVE",
"401 30 CURVE",
"397 29 OFFCURVE",
"362 29 OFFCURVE",
"357 30 CURVE",
"302 32 OFFCURVE",
"252 68 OFFCURVE",
"252 133 CURVE SMOOTH",
"252 141 OFFCURVE",
"253 149 OFFCURVE",
"254 158 CURVE SMOOTH",
"270 247 OFFCURVE",
"301 421 OFFCURVE",
"334 530 CURVE SMOOTH",
"359 612 OFFCURVE",
"376 620 OFFCURVE",
"455 617 CURVE",
"461 615 OFFCURVE",
"464 620 OFFCURVE",
"464 625 CURVE SMOOTH",
"464 629 OFFCURVE",
"461 634 OFFCURVE",
"456 634 CURVE SMOOTH",
"413 631 OFFCURVE",
"365 631 OFFCURVE",
"343 630 CURVE SMOOTH",
"330 629 OFFCURVE",
"315 629 OFFCURVE",
"299 629 CURVE SMOOTH",
"237 629 OFFCURVE",
"159 633 OFFCURVE",
"106 633 CURVE SMOOTH",
"99 633 OFFCURVE",
"91 625 OFFCURVE",
"91 620 CURVE SMOOTH",
"91 618 OFFCURVE",
"92 616 OFFCURVE",
"96 616 CURVE SMOOTH",
"111 617 OFFCURVE",
"186 615 OFFCURVE",
"206 612 CURVE SMOOTH",
"224 609 OFFCURVE",
"241 587 OFFCURVE",
"237 561 CURVE SMOOTH",
"217 443 OFFCURVE",
"192 325 OFFCURVE",
"166 207 CURVE SMOOTH",
"161 187 OFFCURVE",
"159 168 OFFCURVE",
"159 151 CURVE SMOOTH",
"159 38 OFFCURVE",
"254 -1 OFFCURVE",
"353 -3 CURVE SMOOTH"
);
}
);
};
layerId = "C36B7B90-196F-45C3-8412-B02CF16DA361";
paths = (
{
closed = 1;
nodes = (
"395 -3 LINE SMOOTH",
"522 -3 OFFCURVE",
"610 29 OFFCURVE",
"642 158 CURVE SMOOTH",
"654 203 OFFCURVE",
"658 250 OFFCURVE",
"665 291 CURVE SMOOTH",
"681 369 OFFCURVE",
"700 455 OFFCURVE",
"713 503 CURVE SMOOTH",
"739 604 OFFCURVE",
"765 617 OFFCURVE",
"855 615 CURVE",
"860 614 OFFCURVE",
"869 625 OFFCURVE",
"869 631 CURVE SMOOTH",
"869 632 OFFCURVE",
"868 633 OFFCURVE",
"866 633 CURVE SMOOTH",
"801 633 OFFCURVE",
"721 631 OFFCURVE",
"691 631 CURVE SMOOTH",
"670 631 OFFCURVE",
"656 630 OFFCURVE",
"644 630 CURVE SMOOTH",
"620 630 OFFCURVE",
"606 631 OFFCURVE",
"563 634 CURVE SMOOTH",
"557 634 OFFCURVE",
"548 626 OFFCURVE",
"548 621 CURVE SMOOTH",
"548 619 OFFCURVE",
"550 618 OFFCURVE",
"553 618 CURVE SMOOTH",
"561 619 OFFCURVE",
"567 619 OFFCURVE",
"574 619 CURVE SMOOTH",
"581 619 OFFCURVE",
"588 619 OFFCURVE",
"598 617 CURVE SMOOTH",
"610 614 OFFCURVE",
"629 602 OFFCURVE",
"625 577 CURVE SMOOTH",
"603 451 OFFCURVE",
"569 268 OFFCURVE",
"537 140 CURVE SMOOTH",
"519 68 OFFCURVE",
"458 32 OFFCURVE",
"401 30 CURVE",
"397 29 OFFCURVE",
"362 29 OFFCURVE",
"357 30 CURVE",
"302 32 OFFCURVE",
"252 68 OFFCURVE",
"252 133 CURVE SMOOTH",
"252 141 OFFCURVE",
"253 149 OFFCURVE",
"254 158 CURVE SMOOTH",
"270 247 OFFCURVE",
"301 421 OFFCURVE",
"334 530 CURVE SMOOTH",
"359 612 OFFCURVE",
"376 620 OFFCURVE",
"455 617 CURVE",
"461 615 OFFCURVE",
"464 620 OFFCURVE",
"464 625 CURVE SMOOTH",
"464 629 OFFCURVE",
"461 634 OFFCURVE",
"456 634 CURVE SMOOTH",
"413 631 OFFCURVE",
"365 631 OFFCURVE",
"343 630 CURVE SMOOTH",
"330 629 OFFCURVE",
"315 629 OFFCURVE",
"299 629 CURVE SMOOTH",
"237 629 OFFCURVE",
"159 633 OFFCURVE",
"106 633 CURVE SMOOTH",
"99 633 OFFCURVE",
"91 625 OFFCURVE",
"91 620 CURVE SMOOTH",
"91 618 OFFCURVE",
"92 616 OFFCURVE",
"96 616 CURVE SMOOTH",
"111 617 OFFCURVE",
"186 615 OFFCURVE",
"206 612 CURVE SMOOTH",
"224 609 OFFCURVE",
"241 587 OFFCURVE",
"237 561 CURVE SMOOTH",
"217 443 OFFCURVE",
"192 325 OFFCURVE",
"166 207 CURVE SMOOTH",
"161 187 OFFCURVE",
"159 168 OFFCURVE",
"159 151 CURVE SMOOTH",
"159 38 OFFCURVE",
"254 -3 OFFCURVE",
"353 -3 CURVE SMOOTH"
);
}
);
width = 729;
}
);
leftKerningGroup = U;
note = U;
rightKerningGroup = U;
unicode = 0055;
},
{
glyphname = Uhorn;
lastChange = "2021-10-18 11:53:31 +0000";
layers = (
{
background = {
paths = (
{
closed = 1;
nodes = (
"319 -3 LINE SMOOTH",
"446 -3 OFFCURVE",
"534 29 OFFCURVE",
"566 158 CURVE SMOOTH",
"578 203 OFFCURVE",
"582 250 OFFCURVE",
"589 291 CURVE SMOOTH",
"605 369 OFFCURVE",
"624 455 OFFCURVE",
"635 498 CURVE SMOOTH",
"659 589 OFFCURVE",
"681 602 OFFCURVE",
"694 610 CURVE",
"701 609 OFFCURVE",
"709 608 OFFCURVE",
"717 608 CURVE SMOOTH",
"757 608 OFFCURVE",
"800 626 OFFCURVE",
"800 673 CURVE SMOOTH",
"800 699 OFFCURVE",
"785 741 OFFCURVE",
"766 741 CURVE SMOOTH",
"759 741 OFFCURVE",
"756 735 OFFCURVE",
"756 729 CURVE SMOOTH",
"756 724 OFFCURVE",
"758 718 OFFCURVE",
"759 716 CURVE SMOOTH",
"763 707 OFFCURVE",
"767 696 OFFCURVE",
"767 677 CURVE SMOOTH",
"767 659 OFFCURVE",
"759 643 OFFCURVE",
"739 638 CURVE SMOOTH",
"721 634 OFFCURVE",
"691 634 OFFCURVE",
"676 634 CURVE SMOOTH",
"659 634 OFFCURVE",
"594 633 OFFCURVE",
"544 633 CURVE SMOOTH",
"518 633 OFFCURVE",
"497 633 OFFCURVE",
"487 634 CURVE SMOOTH",
"481 634 OFFCURVE",
"472 626 OFFCURVE",
"472 621 CURVE SMOOTH",
"472 619 OFFCURVE",
"474 618 OFFCURVE",
"477 618 CURVE SMOOTH",
"485 619 OFFCURVE",
"491 619 OFFCURVE",
"498 619 CURVE SMOOTH",
"505 619 OFFCURVE",
"512 619 OFFCURVE",
"522 617 CURVE SMOOTH",
"534 614 OFFCURVE",
"553 602 OFFCURVE",
"549 577 CURVE SMOOTH",
"527 451 OFFCURVE",
"493 268 OFFCURVE",
"461 140 CURVE SMOOTH",
"443 68 OFFCURVE",
"382 32 OFFCURVE",
"325 30 CURVE",
"321 29 OFFCURVE",
"286 29 OFFCURVE",
"281 30 CURVE",
"226 32 OFFCURVE",
"176 68 OFFCURVE",
"176 133 CURVE SMOOTH",
"176 141 OFFCURVE",
"177 149 OFFCURVE",
"178 158 CURVE SMOOTH",
"194 247 OFFCURVE",
"225 421 OFFCURVE",
"258 530 CURVE SMOOTH",
"283 612 OFFCURVE",
"300 620 OFFCURVE",
"379 617 CURVE",
"385 615 OFFCURVE",
"388 620 OFFCURVE",
"388 625 CURVE SMOOTH",
"388 629 OFFCURVE",
"385 634 OFFCURVE",
"380 634 CURVE SMOOTH",
"337 631 OFFCURVE",
"289 631 OFFCURVE",
"267 630 CURVE SMOOTH",
"254 629 OFFCURVE",
"239 629 OFFCURVE",
"223 629 CURVE SMOOTH",
"161 629 OFFCURVE",
"83 633 OFFCURVE",
"30 633 CURVE SMOOTH",
"23 633 OFFCURVE",
"15 625 OFFCURVE",
"15 620 CURVE SMOOTH",
"15 618 OFFCURVE",
"16 616 OFFCURVE",
"20 616 CURVE SMOOTH",
"35 617 OFFCURVE",
"110 615 OFFCURVE",
"130 612 CURVE SMOOTH",
"148 609 OFFCURVE",
"165 587 OFFCURVE",
"161 561 CURVE SMOOTH",
"141 443 OFFCURVE",
"116 325 OFFCURVE",
"90 207 CURVE SMOOTH",
"85 187 OFFCURVE",
"83 168 OFFCURVE",
"83 151 CURVE SMOOTH",
"83 37 OFFCURVE",
"178 -3 OFFCURVE",
"277 -3 CURVE SMOOTH"
);
}
);
};
components = (
{
name = U;
},
{
name = horncomb.case;
transform = "{1, 0, 0, 1, 742, 182}";
}
);
layerId = "C36B7B90-196F-45C3-8412-B02CF16DA361";
width = 729;
}
);
leftKerningGroup = U;
rightKerningGroup = Uhorn;
unicode = 01AF;
},
{
glyphname = V;
lastChange = "2021-10-18 12:38:38 +0000";
layers = (
{
background = {
paths = (
{
closed = 1;
nodes = (
"272 -10 OFFCURVE",
"302 27 OFFCURVE",
"336 40 CURVE SMOOTH",
"399 65 OFFCURVE",
"367 62 OFFCURVE",
"384 93 CURVE SMOOTH",
"425 162 OFFCURVE",
"591 460 OFFCURVE",
"654 547 CURVE SMOOTH",
"713 627 OFFCURVE",
"769 614 OFFCURVE",
"783 615 CURVE",
"789 614 OFFCURVE",
"798 625 OFFCURVE",
"798 630 CURVE SMOOTH",
"798 632 OFFCURVE",
"797 633 OFFCURVE",
"794 633 CURVE SMOOTH",
"746 633 OFFCURVE",
"692 630 OFFCURVE",
"654 630 CURVE SMOOTH",
"621 630 OFFCURVE",
"585 632 OFFCURVE",
"508 634 CURVE",
"501 636 OFFCURVE",
"489 625 OFFCURVE",
"489 620 CURVE SMOOTH",
"489 619 OFFCURVE",
"490 618 OFFCURVE",
"492 618 CURVE SMOOTH",
"495 618 LINE SMOOTH",
"531 619 OFFCURVE",
"584 622 OFFCURVE",
"584 574 CURVE SMOOTH",
"584 557 OFFCURVE",
"577 534 OFFCURVE",
"561 502 CURVE SMOOTH",
"503 385 OFFCURVE",
"421 226 OFFCURVE",
"358 123 CURVE SMOOTH",
"350 110 OFFCURVE",
"344 105 OFFCURVE",
"339 105 CURVE SMOOTH",
"334 105 OFFCURVE",
"331 111 OFFCURVE",
"329 123 CURVE SMOOTH",
"311 232 OFFCURVE",
"278 501 OFFCURVE",
"277 575 CURVE SMOOTH",
"277 621 OFFCURVE",
"356 616 OFFCURVE",
"383 616 CURVE SMOOTH",
"390 616 OFFCURVE",
"394 622 OFFCURVE",
"394 627 CURVE SMOOTH",
"394 630 OFFCURVE",
"392 632 OFFCURVE",
"389 632 CURVE SMOOTH",
"349 630 OFFCURVE",
"306 628 OFFCURVE",
"263 628 CURVE SMOOTH",
"236 628 OFFCURVE",
"209 629 OFFCURVE",
"183 630 CURVE SMOOTH",
"153 631 OFFCURVE",
"137 630 OFFCURVE",
"69 633 CURVE SMOOTH",
"61 633 OFFCURVE",
"52 625 OFFCURVE",
"52 620 CURVE SMOOTH",
"52 618 OFFCURVE",
"54 616 OFFCURVE",
"58 616 CURVE SMOOTH",
"91 617 OFFCURVE",
"158 631 OFFCURVE",
"182 502 CURVE SMOOTH",
"210 352 OFFCURVE",
"224 190 OFFCURVE",
"237 38 CURVE SMOOTH",
"238 26 OFFCURVE",
"237 15 OFFCURVE",
"237 7 CURVE SMOOTH",
"237 -4 OFFCURVE",
"238 -11 OFFCURVE",
"247 -11 CURVE SMOOTH"
);
}
);
};
layerId = "C36B7B90-196F-45C3-8412-B02CF16DA361";
paths = (
{
closed = 1;
nodes = (
"272 -10 OFFCURVE",
"302 27 OFFCURVE",
"336 40 CURVE SMOOTH",
"399 65 OFFCURVE",
"367 62 OFFCURVE",
"384 93 CURVE SMOOTH",
"425 162 OFFCURVE",
"591 460 OFFCURVE",
"654 547 CURVE SMOOTH",
"713 627 OFFCURVE",
"769 614 OFFCURVE",
"783 615 CURVE",
"789 614 OFFCURVE",
"798 625 OFFCURVE",
"798 630 CURVE SMOOTH",
"798 632 OFFCURVE",
"797 633 OFFCURVE",
"794 633 CURVE SMOOTH",
"746 633 OFFCURVE",
"692 630 OFFCURVE",
"654 630 CURVE SMOOTH",
"621 630 OFFCURVE",
"585 632 OFFCURVE",
"508 634 CURVE",
"501 636 OFFCURVE",
"489 625 OFFCURVE",
"489 620 CURVE SMOOTH",
"489 619 OFFCURVE",
"490 618 OFFCURVE",
"492 618 CURVE SMOOTH",
"495 618 LINE SMOOTH",
"531 619 OFFCURVE",
"584 622 OFFCURVE",
"584 574 CURVE SMOOTH",
"584 557 OFFCURVE",
"577 534 OFFCURVE",
"561 502 CURVE SMOOTH",
"503 385 OFFCURVE",
"421 226 OFFCURVE",
"358 123 CURVE SMOOTH",
"350 110 OFFCURVE",
"344 105 OFFCURVE",
"339 105 CURVE SMOOTH",
"334 105 OFFCURVE",
"331 111 OFFCURVE",
"329 123 CURVE SMOOTH",
"311 232 OFFCURVE",
"278 501 OFFCURVE",
"277 575 CURVE SMOOTH",
"277 621 OFFCURVE",
"356 616 OFFCURVE",
"383 616 CURVE SMOOTH",
"390 616 OFFCURVE",
"394 622 OFFCURVE",
"394 627 CURVE SMOOTH",
"394 630 OFFCURVE",
"392 632 OFFCURVE",
"389 632 CURVE SMOOTH",
"349 630 OFFCURVE",
"306 628 OFFCURVE",
"263 628 CURVE SMOOTH",
"236 628 OFFCURVE",
"209 629 OFFCURVE",
"183 630 CURVE SMOOTH",
"153 631 OFFCURVE",
"137 630 OFFCURVE",
"69 633 CURVE SMOOTH",
"61 633 OFFCURVE",
"52 625 OFFCURVE",
"52 620 CURVE SMOOTH",
"52 618 OFFCURVE",
"54 616 OFFCURVE",
"58 616 CURVE SMOOTH",
"91 617 OFFCURVE",
"158 631 OFFCURVE",
"182 502 CURVE SMOOTH",
"210 352 OFFCURVE",
"224 190 OFFCURVE",
"237 38 CURVE SMOOTH",
"238 26 OFFCURVE",
"237 15 OFFCURVE",
"237 7 CURVE SMOOTH",
"237 -4 OFFCURVE",
"238 -11 OFFCURVE",
"247 -11 CURVE SMOOTH"
);
}
);
width = 588;
}
);
leftKerningGroup = V;
note = V;
rightKerningGroup = V;
unicode = 0056;
},
{
glyphname = W;
lastChange = "2021-10-18 12:38:38 +0000";
layers = (
{
anchors = (
{
name = bottom;
position = "{480, 0}";
},
{
name = top;
position = "{598, 630}";
}
);
background = {
paths = (
{
closed = 1;
nodes = (
"272 -6 OFFCURVE",
"303 30 OFFCURVE",
"336 43 CURVE SMOOTH",
"400 68 OFFCURVE",
"370 66 OFFCURVE",
"385 97 CURVE SMOOTH",
"409 146 OFFCURVE",
"498 300 OFFCURVE",
"569 412 CURVE",
"588 290 OFFCURVE",
"600 164 OFFCURVE",
"609 42 CURVE SMOOTH",
"610 30 OFFCURVE",
"610 19 OFFCURVE",
"610 11 CURVE SMOOTH",
"610 0 OFFCURVE",
"611 -7 OFFCURVE",
"620 -7 CURVE SMOOTH",
"644 -6 OFFCURVE",
"674 30 OFFCURVE",
"707 43 CURVE SMOOTH",
"772 68 OFFCURVE",
"742 66 OFFCURVE",
"757 97 CURVE SMOOTH",
"789 163 OFFCURVE",
"962 460 OFFCURVE",
"1026 547 CURVE SMOOTH",
"1084 627 OFFCURVE",
"1140 614 OFFCURVE",
"1155 615 CURVE",
"1160 614 OFFCURVE",
"1169 625 OFFCURVE",
"1169 631 CURVE SMOOTH",
"1169 632 OFFCURVE",
"1168 633 OFFCURVE",
"1166 633 CURVE SMOOTH",
"1111 633 OFFCURVE",
"1049 629 OFFCURVE",
"1012 630 CURVE SMOOTH",
"996 630 OFFCURVE",
"972 631 OFFCURVE",
"942 631 CURVE SMOOTH",
"918 631 OFFCURVE",
"889 630 OFFCURVE",
"858 628 CURVE",
"851 630 OFFCURVE",
"839 619 OFFCURVE",
"839 614 CURVE SMOOTH",
"839 613 OFFCURVE",
"840 612 OFFCURVE",
"842 612 CURVE SMOOTH",
"845 612 LINE SMOOTH",
"857 613 OFFCURVE",
"872 614 OFFCURVE",
"887 614 CURVE SMOOTH",
"921 614 OFFCURVE",
"956 607 OFFCURVE",
"956 570 CURVE SMOOTH",
"956 554 OFFCURVE",
"950 532 OFFCURVE",
"933 502 CURVE SMOOTH",
"867 384 OFFCURVE",
"794 229 OFFCURVE",
"731 126 CURVE SMOOTH",
"723 114 OFFCURVE",
"717 108 OFFCURVE",
"712 108 CURVE SMOOTH",
"707 108 OFFCURVE",
"703 115 OFFCURVE",
"701 127 CURVE SMOOTH",
"683 235 OFFCURVE",
"650 478 OFFCURVE",
"649 553 CURVE SMOOTH",
"648 598 OFFCURVE",
"745 610 OFFCURVE",
"778 615 CURVE SMOOTH",
"784 616 OFFCURVE",
"789 623 OFFCURVE",
"789 627 CURVE SMOOTH",
"789 629 OFFCURVE",
"788 630 OFFCURVE",
"786 630 CURVE SMOOTH",
"743 627 OFFCURVE",
"681 626 OFFCURVE",
"626 626 CURVE SMOOTH",
"598 626 OFFCURVE",
"572 626 OFFCURVE",
"550 627 CURVE SMOOTH",
"520 628 OFFCURVE",
"517 630 OFFCURVE",
"448 632 CURVE",
"443 633 OFFCURVE",
"439 627 OFFCURVE",
"439 622 CURVE SMOOTH",
"439 618 OFFCURVE",
"441 615 OFFCURVE",
"445 615 CURVE SMOOTH",
"447 615 LINE SMOOTH",
"521 613 OFFCURVE",
"537 584 OFFCURVE",
"547 527 CURVE SMOOTH",
"549 518 OFFCURVE",
"551 510 OFFCURVE",
"551 502 CURVE SMOOTH",
"551 489 OFFCURVE",
"547 475 OFFCURVE",
"533 450 CURVE SMOOTH",
"475 342 OFFCURVE",
"414 215 OFFCURVE",
"359 126 CURVE SMOOTH",
"351 114 OFFCURVE",
"345 108 OFFCURVE",
"341 108 CURVE SMOOTH",
"336 108 OFFCURVE",
"332 115 OFFCURVE",
"330 127 CURVE SMOOTH",
"312 235 OFFCURVE",
"278 501 OFFCURVE",
"277 575 CURVE SMOOTH",
"277 621 OFFCURVE",
"356 616 OFFCURVE",
"383 616 CURVE SMOOTH",
"390 616 OFFCURVE",
"394 622 OFFCURVE",
"394 627 CURVE SMOOTH",
"394 630 OFFCURVE",
"392 632 OFFCURVE",
"389 632 CURVE SMOOTH",
"349 630 OFFCURVE",
"306 628 OFFCURVE",
"263 628 CURVE SMOOTH",
"236 628 OFFCURVE",
"209 629 OFFCURVE",
"183 630 CURVE SMOOTH",
"153 631 OFFCURVE",
"137 630 OFFCURVE",
"69 633 CURVE SMOOTH",
"61 633 OFFCURVE",
"52 625 OFFCURVE",
"52 620 CURVE SMOOTH",
"52 618 OFFCURVE",
"54 616 OFFCURVE",
"58 616 CURVE SMOOTH",
"91 617 OFFCURVE",
"158 631 OFFCURVE",
"182 502 CURVE SMOOTH",
"210 352 OFFCURVE",
"225 194 OFFCURVE",
"237 42 CURVE SMOOTH",
"239 13 OFFCURVE",
"233 -7 OFFCURVE",
"248 -7 CURVE SMOOTH"
);
}
);
};
layerId = "C36B7B90-196F-45C3-8412-B02CF16DA361";
paths = (
{
closed = 1;
nodes = (
"272 -6 OFFCURVE",
"303 30 OFFCURVE",
"336 43 CURVE SMOOTH",
"400 68 OFFCURVE",
"370 66 OFFCURVE",
"385 97 CURVE SMOOTH",
"409 146 OFFCURVE",
"498 300 OFFCURVE",
"569 412 CURVE",
"588 290 OFFCURVE",
"600 164 OFFCURVE",
"609 42 CURVE SMOOTH",
"610 30 OFFCURVE",
"610 19 OFFCURVE",
"610 11 CURVE SMOOTH",
"610 0 OFFCURVE",
"611 -7 OFFCURVE",
"620 -7 CURVE SMOOTH",
"644 -6 OFFCURVE",
"674 30 OFFCURVE",
"707 43 CURVE SMOOTH",
"772 68 OFFCURVE",
"742 66 OFFCURVE",
"757 97 CURVE SMOOTH",
"789 163 OFFCURVE",
"962 460 OFFCURVE",
"1026 547 CURVE SMOOTH",
"1084 627 OFFCURVE",
"1140 614 OFFCURVE",
"1155 615 CURVE",
"1160 614 OFFCURVE",
"1169 625 OFFCURVE",
"1169 631 CURVE SMOOTH",
"1169 632 OFFCURVE",
"1168 633 OFFCURVE",
"1166 633 CURVE SMOOTH",
"1111 633 OFFCURVE",
"1049 629 OFFCURVE",
"1012 630 CURVE SMOOTH",
"996 630 OFFCURVE",
"972 631 OFFCURVE",
"942 631 CURVE SMOOTH",
"918 631 OFFCURVE",
"889 630 OFFCURVE",
"858 628 CURVE",
"851 630 OFFCURVE",
"839 619 OFFCURVE",
"839 614 CURVE SMOOTH",
"839 613 OFFCURVE",
"840 612 OFFCURVE",
"842 612 CURVE SMOOTH",
"845 612 LINE SMOOTH",
"857 612 OFFCURVE",
"872 614 OFFCURVE",
"887 614 CURVE SMOOTH",
"921 614 OFFCURVE",
"956 607 OFFCURVE",
"956 570 CURVE SMOOTH",
"956 554 OFFCURVE",
"950 532 OFFCURVE",
"933 502 CURVE SMOOTH",
"867 384 OFFCURVE",
"794 229 OFFCURVE",
"731 126 CURVE SMOOTH",
"723 114 OFFCURVE",
"717 108 OFFCURVE",
"712 108 CURVE SMOOTH",
"707 108 OFFCURVE",
"703 115 OFFCURVE",
"701 127 CURVE SMOOTH",
"683 235 OFFCURVE",
"650 478 OFFCURVE",
"649 553 CURVE SMOOTH",
"648 598 OFFCURVE",
"745 610 OFFCURVE",
"778 615 CURVE SMOOTH",
"784 616 OFFCURVE",
"789 623 OFFCURVE",
"789 627 CURVE SMOOTH",
"789 629 OFFCURVE",
"788 630 OFFCURVE",
"786 630 CURVE SMOOTH",
"743 627 OFFCURVE",
"681 626 OFFCURVE",
"626 626 CURVE SMOOTH",
"598 626 OFFCURVE",
"572 626 OFFCURVE",
"550 627 CURVE SMOOTH",
"520 628 OFFCURVE",
"517 630 OFFCURVE",
"448 632 CURVE",
"443 633 OFFCURVE",
"439 627 OFFCURVE",
"439 622 CURVE SMOOTH",
"439 618 OFFCURVE",
"441 615 OFFCURVE",
"445 615 CURVE SMOOTH",
"447 615 LINE SMOOTH",
"521 615 OFFCURVE",
"537 584 OFFCURVE",
"547 527 CURVE SMOOTH",
"549 518 OFFCURVE",
"551 510 OFFCURVE",
"551 502 CURVE SMOOTH",
"551 489 OFFCURVE",
"547 475 OFFCURVE",
"533 450 CURVE SMOOTH",
"475 342 OFFCURVE",
"414 215 OFFCURVE",
"359 126 CURVE SMOOTH",
"351 114 OFFCURVE",
"345 108 OFFCURVE",
"341 108 CURVE SMOOTH",
"336 108 OFFCURVE",
"332 115 OFFCURVE",
"330 127 CURVE SMOOTH",
"312 235 OFFCURVE",
"278 501 OFFCURVE",
"277 575 CURVE SMOOTH",
"277 621 OFFCURVE",
"356 616 OFFCURVE",
"383 616 CURVE SMOOTH",
"390 616 OFFCURVE",
"394 622 OFFCURVE",
"394 627 CURVE SMOOTH",
"394 630 OFFCURVE",
"392 632 OFFCURVE",
"389 632 CURVE SMOOTH",
"349 630 OFFCURVE",
"306 628 OFFCURVE",
"263 628 CURVE SMOOTH",
"236 628 OFFCURVE",
"209 629 OFFCURVE",
"183 630 CURVE SMOOTH",
"153 631 OFFCURVE",
"137 630 OFFCURVE",
"69 633 CURVE SMOOTH",
"61 633 OFFCURVE",
"52 625 OFFCURVE",
"52 620 CURVE SMOOTH",
"52 618 OFFCURVE",
"54 616 OFFCURVE",
"58 616 CURVE SMOOTH",
"91 617 OFFCURVE",
"158 631 OFFCURVE",
"182 502 CURVE SMOOTH",
"210 352 OFFCURVE",
"225 194 OFFCURVE",
"237 42 CURVE SMOOTH",
"239 13 OFFCURVE",
"233 -7 OFFCURVE",
"248 -7 CURVE SMOOTH"
);
}
);
width = 959;
}
);
leftKerningGroup = V;
leftMetricsKey = V;
note = W;
rightKerningGroup = V;
rightMetricsKey = V;
unicode = 0057;
},
{
glyphname = X;
lastChange = "2021-10-18 12:38:38 +0000";
layers = (
{
background = {
paths = (
{
closed = 1;
nodes = (
"375 9 LINE SMOOTH",
"402 11 OFFCURVE",
"434 11 OFFCURVE",
"463 11 CURVE SMOOTH",
"502 11 OFFCURVE",
"537 10 OFFCURVE",
"552 11 CURVE SMOOTH",
"587 13 OFFCURVE",
"624 13 OFFCURVE",
"657 13 CURVE SMOOTH",
"717 13 LINE SMOOTH",
"724 13 OFFCURVE",
"732 22 OFFCURVE",
"732 27 CURVE SMOOTH",
"732 29 OFFCURVE",
"731 30 OFFCURVE",
"728 30 CURVE SMOOTH",
"712 29 OFFCURVE",
"631 25 OFFCURVE",
"570 118 CURVE SMOOTH",
"524 188 OFFCURVE",
"488 268 OFFCURVE",
"449 348 CURVE",
"509 410 OFFCURVE",
"569 472 OFFCURVE",
"634 538 CURVE SMOOTH",
"683 588 OFFCURVE",
"740 611 OFFCURVE",
"764 615 CURVE SMOOTH",
"777 617 OFFCURVE",
"788 615 OFFCURVE",
"793 615 CURVE SMOOTH",
"798 614 OFFCURVE",
"807 625 OFFCURVE",
"807 631 CURVE SMOOTH",
"807 632 OFFCURVE",
"806 633 OFFCURVE",
"804 633 CURVE SMOOTH",
"755 633 OFFCURVE",
"701 630 OFFCURVE",
"663 630 CURVE SMOOTH",
"632 630 OFFCURVE",
"596 632 OFFCURVE",
"517 634 CURVE",
"511 635 OFFCURVE",
"499 626 OFFCURVE",
"499 621 CURVE SMOOTH",
"499 619 OFFCURVE",
"501 618 OFFCURVE",
"504 618 CURVE SMOOTH",
"505 618 LINE SMOOTH",
"530 619 OFFCURVE",
"596 625 OFFCURVE",
"596 586 CURVE SMOOTH",
"596 569 OFFCURVE",
"583 542 OFFCURVE",
"546 502 CURVE SMOOTH",
"509 461 OFFCURVE",
"472 421 OFFCURVE",
"435 381 CURVE",
"415 422 OFFCURVE",
"394 463 OFFCURVE",
"376 502 CURVE SMOOTH",
"362 531 OFFCURVE",
"357 554 OFFCURVE",
"357 570 CURVE SMOOTH",
"357 612 OFFCURVE",
"392 619 OFFCURVE",
"424 619 CURVE SMOOTH",
"435 619 OFFCURVE",
"445 618 OFFCURVE",
"453 618 CURVE",
"464 615 OFFCURVE",
"474 628 OFFCURVE",
"474 632 CURVE SMOOTH",
"474 633 OFFCURVE",
"473 634 OFFCURVE",
"472 634 CURVE SMOOTH",
"471 634 LINE SMOOTH",
"416 632 OFFCURVE",
"313 629 OFFCURVE",
"273 629 CURVE SMOOTH",
"309 629 OFFCURVE",
"141 631 OFFCURVE",
"117 633 CURVE SMOOTH",
"110 633 OFFCURVE",
"102 623 OFFCURVE",
"102 618 CURVE SMOOTH",
"102 616 OFFCURVE",
"103 615 OFFCURVE",
"106 615 CURVE SMOOTH",
"114 616 OFFCURVE",
"122 616 OFFCURVE",
"130 616 CURVE SMOOTH",
"165 616 OFFCURVE",
"198 607 OFFCURVE",
"224 579 CURVE SMOOTH",
"249 551 OFFCURVE",
"313 424 OFFCURVE",
"368 306 CURVE",
"300 235 OFFCURVE",
"227 165 OFFCURVE",
"154 98 CURVE SMOOTH",
"73 21 OFFCURVE",
"27 30 OFFCURVE",
"11 30 CURVE SMOOTH",
"3 30 OFFCURVE",
"-8 21 OFFCURVE",
"-8 17 CURVE SMOOTH",
"-8 16 OFFCURVE",
"-7 15 OFFCURVE",
"-5 15 CURVE SMOOTH",
"12 15 OFFCURVE",
"49 12 OFFCURVE",
"89 12 CURVE SMOOTH",
"100 12 OFFCURVE",
"110 13 OFFCURVE",
"120 13 CURVE SMOOTH",
"136 14 OFFCURVE",
"153 14 OFFCURVE",
"171 14 CURVE SMOOTH",
"213 14 OFFCURVE",
"258 12 OFFCURVE",
"301 11 CURVE",
"306 9 OFFCURVE",
"317 21 OFFCURVE",
"317 26 CURVE SMOOTH",
"317 27 OFFCURVE",
"316 28 OFFCURVE",
"314 28 CURVE SMOOTH",
"311 28 LINE SMOOTH",
"303 28 OFFCURVE",
"291 27 OFFCURVE",
"279 27 CURVE SMOOTH",
"247 27 OFFCURVE",
"209 32 OFFCURVE",
"209 61 CURVE SMOOTH",
"209 79 OFFCURVE",
"222 105 OFFCURVE",
"257 143 CURVE SMOOTH",
"298 188 OFFCURVE",
"343 232 OFFCURVE",
"382 274 CURVE",
"417 198 OFFCURVE",
"445 130 OFFCURVE",
"455 101 CURVE SMOOTH",
"459 89 OFFCURVE",
"461 79 OFFCURVE",
"461 71 CURVE SMOOTH",
"461 35 OFFCURVE",
"426 30 OFFCURVE",
"385 26 CURVE SMOOTH",
"376 26 OFFCURVE",
"371 18 OFFCURVE",
"371 13 CURVE SMOOTH",
"371 11 OFFCURVE",
"372 9 OFFCURVE",
"374 9 CURVE SMOOTH"
);
}
);
};
layerId = "C36B7B90-196F-45C3-8412-B02CF16DA361";
paths = (
{
closed = 1;
nodes = (
"375 9 LINE SMOOTH",
"402 11 OFFCURVE",
"434 11 OFFCURVE",
"463 11 CURVE SMOOTH",
"502 11 OFFCURVE",
"537 10 OFFCURVE",
"552 11 CURVE SMOOTH",
"587 13 OFFCURVE",
"624 13 OFFCURVE",
"657 13 CURVE SMOOTH",
"717 13 LINE SMOOTH",
"724 13 OFFCURVE",
"732 22 OFFCURVE",
"732 27 CURVE SMOOTH",
"732 29 OFFCURVE",
"731 30 OFFCURVE",
"728 30 CURVE SMOOTH",
"712 29 OFFCURVE",
"631 25 OFFCURVE",
"570 118 CURVE SMOOTH",
"524 188 OFFCURVE",
"488 268 OFFCURVE",
"449 348 CURVE",
"509 410 OFFCURVE",
"569 472 OFFCURVE",
"634 538 CURVE SMOOTH",
"683 588 OFFCURVE",
"740 611 OFFCURVE",
"764 615 CURVE SMOOTH",
"777 617 OFFCURVE",
"788 615 OFFCURVE",
"793 615 CURVE SMOOTH",
"798 614 OFFCURVE",
"807 625 OFFCURVE",
"807 631 CURVE SMOOTH",
"807 632 OFFCURVE",
"806 633 OFFCURVE",
"804 633 CURVE SMOOTH",
"755 633 OFFCURVE",
"701 630 OFFCURVE",
"663 630 CURVE SMOOTH",
"632 630 OFFCURVE",
"596 632 OFFCURVE",
"517 634 CURVE",
"511 635 OFFCURVE",
"499 626 OFFCURVE",
"499 621 CURVE SMOOTH",
"499 619 OFFCURVE",
"501 618 OFFCURVE",
"504 618 CURVE SMOOTH",
"505 618 LINE SMOOTH",
"530 619 OFFCURVE",
"596 625 OFFCURVE",
"596 586 CURVE SMOOTH",
"596 569 OFFCURVE",
"583 542 OFFCURVE",
"546 502 CURVE SMOOTH",
"509 461 OFFCURVE",
"472 421 OFFCURVE",
"435 381 CURVE",
"415 422 OFFCURVE",
"394 463 OFFCURVE",
"376 502 CURVE SMOOTH",
"362 531 OFFCURVE",
"357 554 OFFCURVE",
"357 570 CURVE SMOOTH",
"357 612 OFFCURVE",
"392 619 OFFCURVE",
"424 619 CURVE SMOOTH",
"435 619 OFFCURVE",
"445 618 OFFCURVE",
"453 618 CURVE",
"464 615 OFFCURVE",
"474 628 OFFCURVE",
"474 632 CURVE SMOOTH",
"474 633 OFFCURVE",
"473 634 OFFCURVE",
"472 634 CURVE SMOOTH",
"471 634 LINE SMOOTH",
"416 632 OFFCURVE",
"313 629 OFFCURVE",
"273 629 CURVE SMOOTH",
"309 629 OFFCURVE",
"141 631 OFFCURVE",
"117 633 CURVE SMOOTH",
"110 633 OFFCURVE",
"102 623 OFFCURVE",
"102 618 CURVE SMOOTH",
"102 616 OFFCURVE",
"103 615 OFFCURVE",
"106 615 CURVE SMOOTH",
"114 616 OFFCURVE",
"122 616 OFFCURVE",
"130 616 CURVE SMOOTH",
"165 616 OFFCURVE",
"198 607 OFFCURVE",
"224 579 CURVE SMOOTH",
"249 551 OFFCURVE",
"313 424 OFFCURVE",
"368 306 CURVE",
"300 235 OFFCURVE",
"227 165 OFFCURVE",
"154 98 CURVE SMOOTH",
"73 21 OFFCURVE",
"27 30 OFFCURVE",
"11 30 CURVE SMOOTH",
"3 30 OFFCURVE",
"-8 21 OFFCURVE",
"-8 17 CURVE SMOOTH",
"-8 16 OFFCURVE",
"-7 15 OFFCURVE",
"-5 15 CURVE SMOOTH",
"12 15 OFFCURVE",
"49 12 OFFCURVE",
"89 12 CURVE SMOOTH",
"100 12 OFFCURVE",
"110 13 OFFCURVE",
"120 13 CURVE SMOOTH",
"136 14 OFFCURVE",
"153 14 OFFCURVE",
"171 14 CURVE SMOOTH",
"213 14 OFFCURVE",
"258 12 OFFCURVE",
"301 11 CURVE",
"306 9 OFFCURVE",
"317 21 OFFCURVE",
"317 26 CURVE SMOOTH",
"317 27 OFFCURVE",
"316 28 OFFCURVE",
"314 28 CURVE SMOOTH",
"311 28 LINE SMOOTH",
"303 28 OFFCURVE",
"291 27 OFFCURVE",
"279 27 CURVE SMOOTH",
"247 27 OFFCURVE",
"209 32 OFFCURVE",
"209 61 CURVE SMOOTH",
"209 79 OFFCURVE",
"222 105 OFFCURVE",
"257 143 CURVE SMOOTH",
"298 188 OFFCURVE",
"343 232 OFFCURVE",
"382 274 CURVE",
"417 198 OFFCURVE",
"445 130 OFFCURVE",
"455 101 CURVE SMOOTH",
"459 89 OFFCURVE",
"461 79 OFFCURVE",
"461 71 CURVE SMOOTH",
"461 35 OFFCURVE",
"426 30 OFFCURVE",
"385 26 CURVE SMOOTH",
"376 26 OFFCURVE",
"371 18 OFFCURVE",
"371 13 CURVE SMOOTH",
"371 11 OFFCURVE",
"372 9 OFFCURVE",
"374 9 CURVE SMOOTH"
);
}
);
width = 698;
}
);
note = X;
unicode = 0058;
},
{
glyphname = Y;
lastChange = "2021-10-18 12:39:05 +0000";
layers = (
{
anchors = (
{
name = bottom;
position = "{287, 0}";
},
{
name = top;
position = "{431, 630}";
},
{
name = topleft;
position = "{20, 630}";
}
);
background = {
paths = (
{
closed = 1;
nodes = (
"87 13 LINE SMOOTH",
"151 12 OFFCURVE",
"232 15 OFFCURVE",
"262 16 CURVE SMOOTH",
"275 17 OFFCURVE",
"290 17 OFFCURVE",
"306 17 CURVE SMOOTH",
"368 17 OFFCURVE",
"445 13 OFFCURVE",
"497 13 CURVE SMOOTH",
"505 13 OFFCURVE",
"513 21 OFFCURVE",
"513 26 CURVE SMOOTH",
"513 28 OFFCURVE",
"512 29 OFFCURVE",
"509 29 CURVE SMOOTH",
"508 29 LINE SMOOTH",
"493 28 OFFCURVE",
"418 30 OFFCURVE",
"397 33 CURVE SMOOTH",
"386 35 OFFCURVE",
"361 47 OFFCURVE",
"365 79 CURVE SMOOTH",
"368 114 OFFCURVE",
"373 165 OFFCURVE",
"391 237 CURVE SMOOTH",
"395 253 OFFCURVE",
"401 266 OFFCURVE",
"409 280 CURVE SMOOTH",
"462 367 OFFCURVE",
"549 479 OFFCURVE",
"596 539 CURVE SMOOTH",
"658 618 OFFCURVE",
"721 614 OFFCURVE",
"734 615 CURVE",
"740 614 OFFCURVE",
"749 625 OFFCURVE",
"749 630 CURVE SMOOTH",
"749 632 OFFCURVE",
"748 633 OFFCURVE",
"745 633 CURVE SMOOTH",
"697 633 OFFCURVE",
"643 630 OFFCURVE",
"605 630 CURVE SMOOTH",
"574 630 OFFCURVE",
"537 632 OFFCURVE",
"459 634 CURVE",
"453 636 OFFCURVE",
"441 625 OFFCURVE",
"441 620 CURVE SMOOTH",
"441 619 OFFCURVE",
"442 618 OFFCURVE",
"444 618 CURVE SMOOTH",
"447 618 LINE SMOOTH",
"482 619 OFFCURVE",
"540 625 OFFCURVE",
"540 578 CURVE SMOOTH",
"540 560 OFFCURVE",
"532 536 OFFCURVE",
"513 502 CURVE SMOOTH",
"484 449 OFFCURVE",
"442 384 OFFCURVE",
"412 349 CURVE SMOOTH",
"407 343 OFFCURVE",
"399 334 OFFCURVE",
"392 334 CURVE SMOOTH",
"386 334 OFFCURVE",
"381 341 OFFCURVE",
"379 362 CURVE SMOOTH",
"354 617 OFFCURVE",
"308 641 OFFCURVE",
"279 641 CURVE SMOOTH",
"274 641 OFFCURVE",
"269 640 OFFCURVE",
"265 640 CURVE SMOOTH",
"200 634 OFFCURVE",
"135 626 OFFCURVE",
"69 623 CURVE SMOOTH",
"62 623 OFFCURVE",
"54 614 OFFCURVE",
"54 609 CURVE SMOOTH",
"54 607 OFFCURVE",
"55 606 OFFCURVE",
"58 606 CURVE SMOOTH",
"60 606 LINE SMOOTH",
"82 609 OFFCURVE",
"101 611 OFFCURVE",
"119 611 CURVE SMOOTH",
"171 611 OFFCURVE",
"207 594 OFFCURVE",
"239 535 CURVE SMOOTH",
"252 511 OFFCURVE",
"266 479 OFFCURVE",
"277 438 CURVE SMOOTH",
"287 403 OFFCURVE",
"303 345 OFFCURVE",
"307 283 CURVE SMOOTH",
"308 274 OFFCURVE",
"305 246 OFFCURVE",
"303 238 CURVE SMOOTH",
"297 206 OFFCURVE",
"287 174 OFFCURVE",
"278 142 CURVE SMOOTH",
"249 42 OFFCURVE",
"246 29 OFFCURVE",
"174 29 CURVE SMOOTH",
"155 29 OFFCURVE",
"130 30 OFFCURVE",
"98 30 CURVE",
"92 31 OFFCURVE",
"83 21 OFFCURVE",
"83 16 CURVE SMOOTH",
"83 14 OFFCURVE",
"84 13 OFFCURVE",
"86 13 CURVE SMOOTH"
);
}
);
};
layerId = "C36B7B90-196F-45C3-8412-B02CF16DA361";
paths = (
{
closed = 1;
nodes = (
"87 13 LINE SMOOTH",
"151 13 OFFCURVE",
"232 15 OFFCURVE",
"262 16 CURVE SMOOTH",
"275 17 OFFCURVE",
"290 17 OFFCURVE",
"306 17 CURVE SMOOTH",
"368 17 OFFCURVE",
"445 13 OFFCURVE",
"497 13 CURVE SMOOTH",
"505 13 OFFCURVE",
"513 21 OFFCURVE",
"513 26 CURVE SMOOTH",
"513 28 OFFCURVE",
"512 29 OFFCURVE",
"509 29 CURVE SMOOTH",
"508 29 LINE SMOOTH",
"493 29 OFFCURVE",
"418 30 OFFCURVE",
"397 33 CURVE SMOOTH",
"386 35 OFFCURVE",
"361 47 OFFCURVE",
"365 79 CURVE SMOOTH",
"368 114 OFFCURVE",
"373 165 OFFCURVE",
"391 237 CURVE SMOOTH",
"395 253 OFFCURVE",
"401 266 OFFCURVE",
"409 280 CURVE SMOOTH",
"462 367 OFFCURVE",
"549 479 OFFCURVE",
"596 539 CURVE SMOOTH",
"658 618 OFFCURVE",
"721 614 OFFCURVE",
"734 615 CURVE",
"740 614 OFFCURVE",
"749 625 OFFCURVE",
"749 630 CURVE SMOOTH",
"749 632 OFFCURVE",
"748 633 OFFCURVE",
"745 633 CURVE SMOOTH",
"697 633 OFFCURVE",
"643 630 OFFCURVE",
"605 630 CURVE SMOOTH",
"574 630 OFFCURVE",
"537 632 OFFCURVE",
"459 634 CURVE",
"453 636 OFFCURVE",
"441 625 OFFCURVE",
"441 620 CURVE SMOOTH",
"441 619 OFFCURVE",
"442 618 OFFCURVE",
"444 618 CURVE SMOOTH",
"447 618 LINE SMOOTH",
"482 618 OFFCURVE",
"540 625 OFFCURVE",
"540 578 CURVE SMOOTH",
"540 560 OFFCURVE",
"532 536 OFFCURVE",
"513 502 CURVE SMOOTH",
"484 449 OFFCURVE",
"442 384 OFFCURVE",
"412 349 CURVE SMOOTH",
"407 343 OFFCURVE",
"399 334 OFFCURVE",
"392 334 CURVE SMOOTH",
"386 334 OFFCURVE",
"381 341 OFFCURVE",
"379 362 CURVE SMOOTH",
"354 617 OFFCURVE",
"308 641 OFFCURVE",
"279 641 CURVE SMOOTH",
"274 641 OFFCURVE",
"269 640 OFFCURVE",
"265 640 CURVE SMOOTH",
"200 634 OFFCURVE",
"135 626 OFFCURVE",
"69 623 CURVE SMOOTH",
"62 623 OFFCURVE",
"54 614 OFFCURVE",
"54 609 CURVE SMOOTH",
"54 607 OFFCURVE",
"55 606 OFFCURVE",
"58 606 CURVE SMOOTH",
"60 606 LINE SMOOTH",
"82 606 OFFCURVE",
"101 611 OFFCURVE",
"119 611 CURVE SMOOTH",
"171 611 OFFCURVE",
"207 594 OFFCURVE",
"239 535 CURVE SMOOTH",
"252 511 OFFCURVE",
"266 479 OFFCURVE",
"277 438 CURVE SMOOTH",
"287 403 OFFCURVE",
"303 345 OFFCURVE",
"307 283 CURVE SMOOTH",
"308 274 OFFCURVE",
"305 246 OFFCURVE",
"303 238 CURVE SMOOTH",
"297 206 OFFCURVE",
"287 174 OFFCURVE",
"278 142 CURVE SMOOTH",
"249 42 OFFCURVE",
"246 29 OFFCURVE",
"174 29 CURVE SMOOTH",
"155 29 OFFCURVE",
"130 30 OFFCURVE",
"98 30 CURVE",
"92 31 OFFCURVE",
"83 21 OFFCURVE",
"83 16 CURVE SMOOTH",
"83 14 OFFCURVE",
"84 13 OFFCURVE",
"86 13 CURVE SMOOTH"
);
}
);
width = 606;
}
);
leftKerningGroup = Y;
note = Y;
rightKerningGroup = Y;
unicode = 0059;
},
{
glyphname = Z;
lastChange = "2021-10-18 12:39:05 +0000";
layers = (
{
anchors = (
{
name = bottom;
position = "{299, 0}";
},
{
name = center;
position = "{350, 342}";
},
{
name = top;
position = "{437, 630}";
}
);
background = {
paths = (
{
closed = 1;
nodes = (
"61 3 OFFCURVE",
"67 4 OFFCURVE",
"75 5 CURVE SMOOTH",
"117 12 OFFCURVE",
"172 14 OFFCURVE",
"224 14 CURVE SMOOTH",
"263 14 OFFCURVE",
"300 13 OFFCURVE",
"327 13 CURVE SMOOTH",
"406 13 OFFCURVE",
"463 7 OFFCURVE",
"497 7 CURVE SMOOTH",
"514 7 OFFCURVE",
"526 9 OFFCURVE",
"532 13 CURVE SMOOTH",
"579 43 OFFCURVE",
"600 155 OFFCURVE",
"612 184 CURVE SMOOTH",
"614 189 OFFCURVE",
"610 195 OFFCURVE",
"606 195 CURVE SMOOTH",
"605 195 OFFCURVE",
"604 194 OFFCURVE",
"603 192 CURVE SMOOTH",
"564 105 OFFCURVE",
"492 44 OFFCURVE",
"391 44 CURVE SMOOTH",
"308 44 OFFCURVE",
"240 55 OFFCURVE",
"240 87 CURVE SMOOTH",
"240 94 OFFCURVE",
"244 102 OFFCURVE",
"251 111 CURVE",
"251 111 OFFCURVE",
"431 386 OFFCURVE",
"587 546 CURVE SMOOTH",
"629 588 OFFCURVE",
"641 603 OFFCURVE",
"656 615 CURVE SMOOTH",
"661 619 OFFCURVE",
"663 622 OFFCURVE",
"663 624 CURVE SMOOTH",
"663 635 OFFCURVE",
"619 632 OFFCURVE",
"607 632 CURVE SMOOTH",
"579 631 OFFCURVE",
"546 631 OFFCURVE",
"512 631 CURVE SMOOTH",
"418 631 OFFCURVE",
"312 633 OFFCURVE",
"246 636 CURVE SMOOTH",
"197 638 OFFCURVE",
"184 621 OFFCURVE",
"182 572 CURVE SMOOTH",
"179 525 OFFCURVE",
"173 501 OFFCURVE",
"168 448 CURVE",
"166 439 OFFCURVE",
"183 440 OFFCURVE",
"185 457 CURVE SMOOTH",
"195 551 OFFCURVE",
"245 597 OFFCURVE",
"307 597 CURVE SMOOTH",
"337 596 OFFCURVE",
"368 598 OFFCURVE",
"395 598 CURVE SMOOTH",
"438 598 OFFCURVE",
"470 594 OFFCURVE",
"470 572 CURVE SMOOTH",
"470 563 OFFCURVE",
"465 551 OFFCURVE",
"453 535 CURVE SMOOTH",
"185 183 LINE SMOOTH",
"112 87 OFFCURVE",
"82 65 OFFCURVE",
"53 42 CURVE",
"46 38 OFFCURVE",
"36 25 OFFCURVE",
"36 15 CURVE SMOOTH",
"36 8 OFFCURVE",
"41 3 OFFCURVE",
"56 3 CURVE SMOOTH"
);
}
);
};
layerId = "C36B7B90-196F-45C3-8412-B02CF16DA361";
paths = (
{
closed = 1;
nodes = (
"61 3 OFFCURVE",
"67 4 OFFCURVE",
"75 5 CURVE SMOOTH",
"117 12 OFFCURVE",
"172 14 OFFCURVE",
"224 14 CURVE SMOOTH",
"263 14 OFFCURVE",
"300 13 OFFCURVE",
"327 13 CURVE SMOOTH",
"406 13 OFFCURVE",
"463 7 OFFCURVE",
"497 7 CURVE SMOOTH",
"514 7 OFFCURVE",
"526 9 OFFCURVE",
"532 13 CURVE SMOOTH",
"579 43 OFFCURVE",
"600 155 OFFCURVE",
"612 184 CURVE SMOOTH",
"614 189 OFFCURVE",
"610 195 OFFCURVE",
"606 195 CURVE SMOOTH",
"605 195 OFFCURVE",
"604 194 OFFCURVE",
"603 192 CURVE SMOOTH",
"564 105 OFFCURVE",
"492 44 OFFCURVE",
"391 44 CURVE SMOOTH",
"308 44 OFFCURVE",
"240 55 OFFCURVE",
"240 87 CURVE SMOOTH",
"240 94 OFFCURVE",
"244 102 OFFCURVE",
"251 111 CURVE",
"251 111 OFFCURVE",
"431 386 OFFCURVE",
"587 546 CURVE SMOOTH",
"629 588 OFFCURVE",
"641 603 OFFCURVE",
"656 615 CURVE SMOOTH",
"661 619 OFFCURVE",
"663 622 OFFCURVE",
"663 624 CURVE SMOOTH",
"663 631 OFFCURVE",
"645 632 OFFCURVE",
"628 632 CURVE SMOOTH",
"597 632 OFFCURVE",
"555 631 OFFCURVE",
"512 631 CURVE SMOOTH",
"418 631 OFFCURVE",
"312 633 OFFCURVE",
"246 636 CURVE SMOOTH",
"197 638 OFFCURVE",
"184 621 OFFCURVE",
"182 572 CURVE SMOOTH",
"179 525 OFFCURVE",
"173 501 OFFCURVE",
"168 448 CURVE",
"166 439 OFFCURVE",
"183 440 OFFCURVE",
"185 457 CURVE SMOOTH",
"195 551 OFFCURVE",
"245 597 OFFCURVE",
"307 597 CURVE SMOOTH",
"337 596 OFFCURVE",
"368 598 OFFCURVE",
"395 598 CURVE SMOOTH",
"438 598 OFFCURVE",
"470 594 OFFCURVE",
"470 572 CURVE SMOOTH",
"470 563 OFFCURVE",
"465 551 OFFCURVE",
"453 535 CURVE SMOOTH",
"185 183 LINE SMOOTH",
"112 87 OFFCURVE",
"82 65 OFFCURVE",
"53 42 CURVE",
"46 38 OFFCURVE",
"36 25 OFFCURVE",
"36 15 CURVE SMOOTH",
"36 8 OFFCURVE",
"41 3 OFFCURVE",
"56 3 CURVE SMOOTH"
);
}
);
width = 598;
}
);
leftKerningGroup = Z;
note = Z;
rightKerningGroup = Z;
unicode = 005A;
},
{
glyphname = A.ss01;
lastChange = "2021-10-20 13:46:36 +0000";
layers = (
{
anchors = (
{
name = bottom;
position = "{728, 0}";
},
{
name = ogonek;
position = "{1089, 50}";
},
{
name = top;
position = "{1108, 835}";
}
);
background = {
paths = (
{
closed = 1;
nodes = (
"348 -190 OFFCURVE",
"358 -189 OFFCURVE",
"366 -186 CURVE",
"366 -186 OFFCURVE",
"436 -150 OFFCURVE",
"477 -128 CURVE",
"471 -119 LINE",
"448 -129 OFFCURVE",
"427 -151 OFFCURVE",
"382 -151 CURVE SMOOTH",
"363 -151 OFFCURVE",
"339 -147 OFFCURVE",
"308 -136 CURVE SMOOTH",
"200 -97 OFFCURVE",
"151 -22 OFFCURVE",
"151 58 CURVE SMOOTH",
"151 153 OFFCURVE",
"219 255 OFFCURVE",
"337 312 CURVE SMOOTH",
"422 353 OFFCURVE",
"553 365 OFFCURVE",
"682 367 CURVE",
"652 320 OFFCURVE",
"622 272 OFFCURVE",
"582 213 CURVE SMOOTH",
"503 98 OFFCURVE",
"486 27 OFFCURVE",
"336 3 CURVE",
"333 -6 LINE",
"492 -2 OFFCURVE",
"625 188 OFFCURVE",
"737 367 CURVE",
"759 367 OFFCURVE",
"781 366 OFFCURVE",
"803 366 CURVE",
"825 349 OFFCURVE",
"838 333 OFFCURVE",
"853 309 CURVE",
"927 356 LINE",
"923 362 LINE",
"938 361 OFFCURVE",
"951 361 OFFCURVE",
"964 360 CURVE",
"958 313 OFFCURVE",
"954 266 OFFCURVE",
"954 222 CURVE SMOOTH",
"954 135 OFFCURVE",
"968 56 OFFCURVE",
"1005 -1 CURVE",
"1089 48 LINE",
"1097 109 OFFCURVE",
"1199 247 OFFCURVE",
"1241 277 CURVE",
"1234 286 LINE",
"1184 249 OFFCURVE",
"1114 161 OFFCURVE",
"1075 102 CURVE",
"1049 145 OFFCURVE",
"1039 210 OFFCURVE",
"1039 285 CURVE SMOOTH",
"1039 456 OFFCURVE",
"1095 678 OFFCURVE",
"1151 799 CURVE",
"1074 749 LINE",
"1034 663 OFFCURVE",
"988 521 OFFCURVE",
"966 377 CURVE",
"911 380 LINE",
"895 400 OFFCURVE",
"879 414 OFFCURVE",
"854 431 CURVE",
"784 386 LINE",
"772 386 OFFCURVE",
"761 386 OFFCURVE",
"749 387 CURVE",
"798 467 OFFCURVE",
"843 543 OFFCURVE",
"885 599 CURVE SMOOTH",
"933 663 OFFCURVE",
"967 714 OFFCURVE",
"1017 756 CURVE",
"1130 823 LINE",
"1124 833 LINE",
"1106 821 OFFCURVE",
"1073 808 OFFCURVE",
"1073 808 CURVE",
"1067 806 OFFCURVE",
"1055 806 OFFCURVE",
"1040 806 CURVE SMOOTH",
"965 806 OFFCURVE",
"797 822 OFFCURVE",
"701 831 CURVE SMOOTH",
"679 833 OFFCURVE",
"657 834 OFFCURVE",
"634 834 CURVE SMOOTH",
"526 834 OFFCURVE",
"415 812 OFFCURVE",
"340 764 CURVE SMOOTH",
"263 714 OFFCURVE",
"206 645 OFFCURVE",
"206 564 CURVE SMOOTH",
"206 536 OFFCURVE",
"212 507 OFFCURVE",
"227 477 CURVE SMOOTH",
"231 469 OFFCURVE",
"235 462 OFFCURVE",
"246 462 CURVE SMOOTH",
"247 462 OFFCURVE",
"250 463 OFFCURVE",
"252 463 CURVE",
"252 463 OFFCURVE",
"337 490 OFFCURVE",
"366 500 CURVE",
"364 508 LINE",
"353 505 OFFCURVE",
"342 502 OFFCURVE",
"332 502 CURVE SMOOTH",
"321 502 OFFCURVE",
"311 505 OFFCURVE",
"301 515 CURVE SMOOTH",
"290 526 OFFCURVE",
"278 552 OFFCURVE",
"273 580 CURVE SMOOTH",
"271 591 OFFCURVE",
"270 601 OFFCURVE",
"270 611 CURVE SMOOTH",
"270 670 OFFCURVE",
"303 716 OFFCURVE",
"349 748 CURVE SMOOTH",
"392 778 OFFCURVE",
"447 787 OFFCURVE",
"504 787 CURVE SMOOTH",
"558 787 OFFCURVE",
"616 779 OFFCURVE",
"669 775 CURVE SMOOTH",
"722 771 OFFCURVE",
"893 736 OFFCURVE",
"970 740 CURVE",
"912 692 OFFCURVE",
"860 621 OFFCURVE",
"810 554 CURVE SMOOTH",
"762 489 OFFCURVE",
"728 438 OFFCURVE",
"695 387 CURVE",
"554 386 OFFCURVE",
"414 373 OFFCURVE",
"294 325 CURVE SMOOTH",
"142 266 OFFCURVE",
"57 148 OFFCURVE",
"57 39 CURVE SMOOTH",
"57 -40 OFFCURVE",
"101 -114 OFFCURVE",
"196 -158 CURVE SMOOTH",
"233 -175 OFFCURVE",
"294 -190 OFFCURVE",
"336 -190 CURVE SMOOTH"
);
},
{
closed = 1;
nodes = (
"307 6 OFFCURVE",
"327 8 OFFCURVE",
"352 12 CURVE",
"352 22 LINE",
"288 16 OFFCURVE",
"255 40 OFFCURVE",
"255 80 CURVE SMOOTH",
"255 98 OFFCURVE",
"262 120 OFFCURVE",
"277 143 CURVE",
"269 157 LINE",
"267 146 OFFCURVE",
"261 137 OFFCURVE",
"254 126 CURVE SMOOTH",
"229 92 LINE SMOOTH",
"217 76 OFFCURVE",
"205 59 OFFCURVE",
"198 44 CURVE SMOOTH",
"196 39 OFFCURVE",
"195 36 OFFCURVE",
"195 33 CURVE SMOOTH",
"195 25 OFFCURVE",
"201 22 OFFCURVE",
"212 18 CURVE SMOOTH",
"238 11 OFFCURVE",
"260 6 OFFCURVE",
"289 6 CURVE SMOOTH"
);
}
);
};
layerId = "C36B7B90-196F-45C3-8412-B02CF16DA361";
paths = (
{
closed = 1;
nodes = (
"348 -190 OFFCURVE",
"358 -189 OFFCURVE",
"366 -186 CURVE",
"366 -186 OFFCURVE",
"436 -150 OFFCURVE",
"477 -128 CURVE",
"471 -119 LINE",
"448 -129 OFFCURVE",
"427 -151 OFFCURVE",
"382 -151 CURVE SMOOTH",
"363 -151 OFFCURVE",
"339 -147 OFFCURVE",
"308 -136 CURVE SMOOTH",
"200 -97 OFFCURVE",
"151 -22 OFFCURVE",
"151 58 CURVE SMOOTH",
"151 153 OFFCURVE",
"219 255 OFFCURVE",
"337 312 CURVE SMOOTH",
"422 353 OFFCURVE",
"553 365 OFFCURVE",
"682 367 CURVE",
"652 320 OFFCURVE",
"622 272 OFFCURVE",
"582 213 CURVE SMOOTH",
"503 98 OFFCURVE",
"486 27 OFFCURVE",
"336 3 CURVE",
"333 -6 LINE",
"492 -2 OFFCURVE",
"625 188 OFFCURVE",
"737 367 CURVE",
"759 367 OFFCURVE",
"781 366 OFFCURVE",
"803 366 CURVE",
"825 349 OFFCURVE",
"838 333 OFFCURVE",
"853 309 CURVE",
"927 356 LINE",
"923 362 LINE",
"938 361 OFFCURVE",
"951 361 OFFCURVE",
"964 360 CURVE",
"958 313 OFFCURVE",
"954 266 OFFCURVE",
"954 222 CURVE SMOOTH",
"954 135 OFFCURVE",
"968 56 OFFCURVE",
"1005 -1 CURVE",
"1089 48 LINE",
"1097 109 OFFCURVE",
"1199 247 OFFCURVE",
"1241 277 CURVE",
"1234 286 LINE",
"1184 249 OFFCURVE",
"1114 161 OFFCURVE",
"1075 102 CURVE",
"1049 145 OFFCURVE",
"1039 210 OFFCURVE",
"1039 285 CURVE SMOOTH",
"1039 456 OFFCURVE",
"1095 678 OFFCURVE",
"1151 799 CURVE",
"1074 749 LINE",
"1034 663 OFFCURVE",
"988 521 OFFCURVE",
"966 377 CURVE",
"911 380 LINE",
"895 400 OFFCURVE",
"879 414 OFFCURVE",
"854 431 CURVE",
"784 386 LINE",
"772 386 OFFCURVE",
"761 386 OFFCURVE",
"749 387 CURVE",
"798 467 OFFCURVE",
"843 543 OFFCURVE",
"885 599 CURVE SMOOTH",
"933 663 OFFCURVE",
"967 714 OFFCURVE",
"1017 756 CURVE",
"1130 823 LINE",
"1124 833 LINE",
"1106 821 OFFCURVE",
"1073 808 OFFCURVE",
"1073 808 CURVE",
"1067 806 OFFCURVE",
"1055 806 OFFCURVE",
"1040 806 CURVE SMOOTH",
"965 806 OFFCURVE",
"797 822 OFFCURVE",
"701 831 CURVE SMOOTH",
"679 833 OFFCURVE",
"657 834 OFFCURVE",
"634 834 CURVE SMOOTH",
"526 834 OFFCURVE",
"415 812 OFFCURVE",
"340 764 CURVE SMOOTH",
"263 714 OFFCURVE",
"206 645 OFFCURVE",
"206 564 CURVE SMOOTH",
"206 536 OFFCURVE",
"212 507 OFFCURVE",
"227 477 CURVE SMOOTH",
"231 469 OFFCURVE",
"235 462 OFFCURVE",
"246 462 CURVE SMOOTH",
"247 462 OFFCURVE",
"250 463 OFFCURVE",
"252 463 CURVE",
"252 463 OFFCURVE",
"337 490 OFFCURVE",
"366 500 CURVE",
"364 508 LINE",
"353 505 OFFCURVE",
"342 502 OFFCURVE",
"332 502 CURVE SMOOTH",
"321 502 OFFCURVE",
"311 505 OFFCURVE",
"301 515 CURVE SMOOTH",
"290 526 OFFCURVE",
"278 552 OFFCURVE",
"273 580 CURVE SMOOTH",
"271 591 OFFCURVE",
"270 601 OFFCURVE",
"270 611 CURVE SMOOTH",
"270 670 OFFCURVE",
"303 716 OFFCURVE",
"349 748 CURVE SMOOTH",
"392 778 OFFCURVE",
"447 787 OFFCURVE",
"504 787 CURVE SMOOTH",
"558 787 OFFCURVE",
"616 779 OFFCURVE",
"669 775 CURVE SMOOTH",
"722 771 OFFCURVE",
"893 736 OFFCURVE",
"970 740 CURVE",
"912 692 OFFCURVE",
"860 621 OFFCURVE",
"810 554 CURVE SMOOTH",
"762 489 OFFCURVE",
"728 438 OFFCURVE",
"695 387 CURVE",
"554 386 OFFCURVE",
"414 373 OFFCURVE",
"294 325 CURVE SMOOTH",
"142 266 OFFCURVE",
"57 148 OFFCURVE",
"57 39 CURVE SMOOTH",
"57 -40 OFFCURVE",
"101 -114 OFFCURVE",
"196 -158 CURVE SMOOTH",
"233 -175 OFFCURVE",
"294 -190 OFFCURVE",
"336 -190 CURVE SMOOTH"
);
},
{
closed = 1;
nodes = (
"307 6 OFFCURVE",
"327 8 OFFCURVE",
"352 12 CURVE",
"352 22 LINE",
"288 16 OFFCURVE",
"255 40 OFFCURVE",
"255 80 CURVE SMOOTH",
"255 98 OFFCURVE",
"262 120 OFFCURVE",
"277 143 CURVE",
"269 157 LINE",
"267 146 OFFCURVE",
"262 137 OFFCURVE",
"254 126 CURVE SMOOTH",
"229 92 LINE SMOOTH",
"217 76 OFFCURVE",
"205 59 OFFCURVE",
"198 44 CURVE SMOOTH",
"196 39 OFFCURVE",
"195 36 OFFCURVE",
"195 33 CURVE SMOOTH",
"195 25 OFFCURVE",
"201 22 OFFCURVE",
"212 18 CURVE SMOOTH",
"238 11 OFFCURVE",
"260 6 OFFCURVE",
"289 6 CURVE SMOOTH"
);
}
);
width = 1195;
}
);
note = A;
},
{
glyphname = Aacute.ss01;
lastChange = "2021-10-20 13:46:36 +0000";
layers = (
{
background = {
paths = (
{
closed = 1;
nodes = (
"347 -187 OFFCURVE",
"358 -186 OFFCURVE",
"366 -183 CURVE",
"366 -183 OFFCURVE",
"436 -148 OFFCURVE",
"477 -126 CURVE",
"471 -116 LINE",
"448 -126 OFFCURVE",
"427 -148 OFFCURVE",
"382 -148 CURVE SMOOTH",
"363 -148 OFFCURVE",
"339 -144 OFFCURVE",
"308 -133 CURVE SMOOTH",
"200 -94 OFFCURVE",
"151 -19 OFFCURVE",
"151 61 CURVE SMOOTH",
"151 155 OFFCURVE",
"219 257 OFFCURVE",
"337 314 CURVE SMOOTH",
"422 356 OFFCURVE",
"553 368 OFFCURVE",
"682 369 CURVE",
"652 323 OFFCURVE",
"622 275 OFFCURVE",
"582 216 CURVE SMOOTH",
"503 100 OFFCURVE",
"486 30 OFFCURVE",
"336 5 CURVE",
"333 -4 LINE",
"492 1 OFFCURVE",
"625 190 OFFCURVE",
"737 370 CURVE",
"759 369 OFFCURVE",
"781 369 OFFCURVE",
"803 368 CURVE",
"825 351 OFFCURVE",
"838 335 OFFCURVE",
"853 311 CURVE",
"927 359 LINE",
"923 364 LINE",
"938 364 OFFCURVE",
"951 363 OFFCURVE",
"964 363 CURVE",
"958 316 OFFCURVE",
"954 269 OFFCURVE",
"954 224 CURVE SMOOTH",
"954 137 OFFCURVE",
"968 58 OFFCURVE",
"1005 2 CURVE",
"1089 51 LINE",
"1097 112 OFFCURVE",
"1199 249 OFFCURVE",
"1241 280 CURVE",
"1234 288 LINE",
"1184 252 OFFCURVE",
"1114 164 OFFCURVE",
"1075 104 CURVE",
"1049 147 OFFCURVE",
"1039 213 OFFCURVE",
"1039 287 CURVE SMOOTH",
"1039 459 OFFCURVE",
"1095 680 OFFCURVE",
"1151 802 CURVE",
"1074 751 LINE",
"1034 666 OFFCURVE",
"988 523 OFFCURVE",
"966 380 CURVE",
"911 383 LINE",
"895 403 OFFCURVE",
"879 417 OFFCURVE",
"854 434 CURVE",
"784 388 LINE",
"772 389 OFFCURVE",
"761 389 OFFCURVE",
"749 389 CURVE",
"798 469 OFFCURVE",
"843 546 OFFCURVE",
"885 601 CURVE SMOOTH",
"933 665 OFFCURVE",
"967 717 OFFCURVE",
"1017 758 CURVE",
"1130 826 LINE",
"1124 836 LINE",
"1106 823 OFFCURVE",
"1072 810 OFFCURVE",
"1072 810 CURVE",
"1066 809 OFFCURVE",
"1055 808 OFFCURVE",
"1041 808 CURVE SMOOTH",
"967 808 OFFCURVE",
"797 825 OFFCURVE",
"701 833 CURVE SMOOTH",
"678 835 OFFCURVE",
"654 836 OFFCURVE",
"630 836 CURVE SMOOTH",
"524 836 OFFCURVE",
"414 814 OFFCURVE",
"340 767 CURVE SMOOTH",
"263 717 OFFCURVE",
"206 648 OFFCURVE",
"206 567 CURVE SMOOTH",
"206 539 OFFCURVE",
"212 510 OFFCURVE",
"227 480 CURVE SMOOTH",
"231 471 OFFCURVE",
"236 465 OFFCURVE",
"247 465 CURVE SMOOTH",
"252 465 LINE",
"252 465 OFFCURVE",
"337 493 OFFCURVE",
"366 502 CURVE",
"364 511 LINE",
"353 508 OFFCURVE",
"342 505 OFFCURVE",
"332 505 CURVE SMOOTH",
"321 505 OFFCURVE",
"311 508 OFFCURVE",
"301 518 CURVE SMOOTH",
"290 529 OFFCURVE",
"278 555 OFFCURVE",
"273 583 CURVE SMOOTH",
"271 594 OFFCURVE",
"270 604 OFFCURVE",
"270 614 CURVE SMOOTH",
"270 673 OFFCURVE",
"303 719 OFFCURVE",
"349 751 CURVE SMOOTH",
"392 781 OFFCURVE",
"446 790 OFFCURVE",
"502 790 CURVE SMOOTH",
"557 790 OFFCURVE",
"615 781 OFFCURVE",
"669 777 CURVE SMOOTH",
"722 773 OFFCURVE",
"893 738 OFFCURVE",
"970 742 CURVE",
"912 694 OFFCURVE",
"860 624 OFFCURVE",
"810 556 CURVE SMOOTH",
"762 492 OFFCURVE",
"728 441 OFFCURVE",
"695 390 CURVE",
"554 389 OFFCURVE",
"414 375 OFFCURVE",
"294 328 CURVE SMOOTH",
"142 268 OFFCURVE",
"57 150 OFFCURVE",
"57 42 CURVE SMOOTH",
"57 -37 OFFCURVE",
"101 -111 OFFCURVE",
"196 -155 CURVE SMOOTH",
"233 -173 OFFCURVE",
"293 -187 OFFCURVE",
"335 -187 CURVE SMOOTH"
);
},
{
closed = 1;
nodes = (
"307 9 OFFCURVE",
"327 11 OFFCURVE",
"352 15 CURVE",
"352 24 LINE",
"288 19 OFFCURVE",
"255 43 OFFCURVE",
"255 83 CURVE SMOOTH",
"255 101 OFFCURVE",
"262 123 OFFCURVE",
"277 146 CURVE",
"269 159 LINE",
"267 148 OFFCURVE",
"261 139 OFFCURVE",
"254 129 CURVE SMOOTH",
"247 118 OFFCURVE",
"238 107 OFFCURVE",
"229 95 CURVE SMOOTH",
"217 78 OFFCURVE",
"205 61 OFFCURVE",
"198 47 CURVE SMOOTH",
"196 42 OFFCURVE",
"195 39 OFFCURVE",
"195 36 CURVE SMOOTH",
"195 28 OFFCURVE",
"201 24 OFFCURVE",
"212 21 CURVE SMOOTH",
"238 14 OFFCURVE",
"260 9 OFFCURVE",
"289 9 CURVE SMOOTH"
);
},
{
closed = 1;
nodes = (
"1090 904 OFFCURVE",
"1171 934 OFFCURVE",
"1210 966 CURVE",
"1217 970 OFFCURVE",
"1191 984 OFFCURVE",
"1164 984 CURVE SMOOTH",
"1159 984 OFFCURVE",
"1153 983 OFFCURVE",
"1148 982 CURVE SMOOTH",
"1129 977 OFFCURVE",
"1086 932 OFFCURVE",
"1036 917 CURVE SMOOTH",
"1030 915 OFFCURVE",
"1027 912 OFFCURVE",
"1027 910 CURVE SMOOTH",
"1027 906 OFFCURVE",
"1038 903 OFFCURVE",
"1047 903 CURVE SMOOTH"
);
}
);
};
components = (
{
name = A.ss01;
},
{
name = acutecomb.case;
transform = "{1, 0, 0, 1, 1047, 375}";
}
);
layerId = "C36B7B90-196F-45C3-8412-B02CF16DA361";
width = 1195;
}
);
note = Aacute;
},
{
glyphname = Acircumflex.ss01;
lastChange = "2021-10-20 13:46:36 +0000";
layers = (
{
background = {
paths = (
{
closed = 1;
nodes = (
"347 -187 OFFCURVE",
"358 -186 OFFCURVE",
"366 -183 CURVE",
"366 -183 OFFCURVE",
"436 -148 OFFCURVE",
"477 -126 CURVE",
"471 -116 LINE",
"448 -126 OFFCURVE",
"427 -148 OFFCURVE",
"382 -148 CURVE SMOOTH",
"363 -148 OFFCURVE",
"339 -144 OFFCURVE",
"308 -133 CURVE SMOOTH",
"200 -94 OFFCURVE",
"151 -19 OFFCURVE",
"151 61 CURVE SMOOTH",
"151 155 OFFCURVE",
"219 257 OFFCURVE",
"337 314 CURVE SMOOTH",
"422 356 OFFCURVE",
"553 368 OFFCURVE",
"682 369 CURVE",
"652 323 OFFCURVE",
"622 275 OFFCURVE",
"582 216 CURVE SMOOTH",
"503 100 OFFCURVE",
"486 30 OFFCURVE",
"336 5 CURVE",
"333 -4 LINE",
"492 1 OFFCURVE",
"625 190 OFFCURVE",
"737 370 CURVE",
"759 369 OFFCURVE",
"781 369 OFFCURVE",
"803 368 CURVE",
"825 351 OFFCURVE",
"838 335 OFFCURVE",
"853 311 CURVE",
"927 359 LINE",
"923 364 LINE",
"938 364 OFFCURVE",
"951 363 OFFCURVE",
"964 363 CURVE",
"958 316 OFFCURVE",
"954 269 OFFCURVE",
"954 224 CURVE SMOOTH",
"954 137 OFFCURVE",
"968 58 OFFCURVE",
"1005 2 CURVE",
"1089 51 LINE",
"1097 112 OFFCURVE",
"1199 249 OFFCURVE",
"1241 280 CURVE",
"1234 288 LINE",
"1184 252 OFFCURVE",
"1114 164 OFFCURVE",
"1075 104 CURVE",
"1049 147 OFFCURVE",
"1039 213 OFFCURVE",
"1039 287 CURVE SMOOTH",
"1039 459 OFFCURVE",
"1095 680 OFFCURVE",
"1151 802 CURVE",
"1074 751 LINE",
"1034 666 OFFCURVE",
"988 523 OFFCURVE",
"966 380 CURVE",
"911 383 LINE",
"895 403 OFFCURVE",
"879 417 OFFCURVE",
"854 434 CURVE",
"784 388 LINE",
"772 389 OFFCURVE",
"761 389 OFFCURVE",
"749 389 CURVE",
"798 469 OFFCURVE",
"843 546 OFFCURVE",
"885 601 CURVE SMOOTH",
"933 665 OFFCURVE",
"967 717 OFFCURVE",
"1017 758 CURVE",
"1130 826 LINE",
"1124 836 LINE",
"1106 823 OFFCURVE",
"1072 810 OFFCURVE",
"1072 810 CURVE",
"1066 809 OFFCURVE",
"1055 808 OFFCURVE",
"1041 808 CURVE SMOOTH",
"967 808 OFFCURVE",
"797 825 OFFCURVE",
"701 833 CURVE SMOOTH",
"678 835 OFFCURVE",
"654 836 OFFCURVE",
"630 836 CURVE SMOOTH",
"524 836 OFFCURVE",
"414 814 OFFCURVE",
"340 767 CURVE SMOOTH",
"263 717 OFFCURVE",
"206 648 OFFCURVE",
"206 567 CURVE SMOOTH",
"206 539 OFFCURVE",
"212 510 OFFCURVE",
"227 480 CURVE SMOOTH",
"231 471 OFFCURVE",
"236 465 OFFCURVE",
"247 465 CURVE SMOOTH",
"252 465 LINE",
"252 465 OFFCURVE",
"337 493 OFFCURVE",
"366 502 CURVE",
"364 511 LINE",
"353 508 OFFCURVE",
"342 505 OFFCURVE",
"332 505 CURVE SMOOTH",
"321 505 OFFCURVE",
"311 508 OFFCURVE",
"301 518 CURVE SMOOTH",
"290 529 OFFCURVE",
"278 555 OFFCURVE",
"273 583 CURVE SMOOTH",
"271 594 OFFCURVE",
"270 604 OFFCURVE",
"270 614 CURVE SMOOTH",
"270 673 OFFCURVE",
"303 719 OFFCURVE",
"349 751 CURVE SMOOTH",
"392 781 OFFCURVE",
"446 790 OFFCURVE",
"502 790 CURVE SMOOTH",
"557 790 OFFCURVE",
"615 781 OFFCURVE",
"669 777 CURVE SMOOTH",
"722 773 OFFCURVE",
"893 738 OFFCURVE",
"970 742 CURVE",
"912 694 OFFCURVE",
"860 624 OFFCURVE",
"810 556 CURVE SMOOTH",
"762 492 OFFCURVE",
"728 441 OFFCURVE",
"695 390 CURVE",
"554 389 OFFCURVE",
"414 375 OFFCURVE",
"294 328 CURVE SMOOTH",
"142 268 OFFCURVE",
"57 150 OFFCURVE",
"57 42 CURVE SMOOTH",
"57 -37 OFFCURVE",
"101 -111 OFFCURVE",
"196 -155 CURVE SMOOTH",
"233 -173 OFFCURVE",
"293 -187 OFFCURVE",
"335 -187 CURVE SMOOTH"
);
},
{
closed = 1;
nodes = (
"307 9 OFFCURVE",
"327 11 OFFCURVE",
"352 15 CURVE",
"352 24 LINE",
"288 19 OFFCURVE",
"255 43 OFFCURVE",
"255 83 CURVE SMOOTH",
"255 101 OFFCURVE",
"262 123 OFFCURVE",
"277 146 CURVE",
"269 159 LINE",
"267 148 OFFCURVE",
"261 139 OFFCURVE",
"254 129 CURVE SMOOTH",
"247 118 OFFCURVE",
"238 107 OFFCURVE",
"229 95 CURVE SMOOTH",
"217 78 OFFCURVE",
"205 61 OFFCURVE",
"198 47 CURVE SMOOTH",
"196 42 OFFCURVE",
"195 39 OFFCURVE",
"195 36 CURVE SMOOTH",
"195 28 OFFCURVE",
"201 24 OFFCURVE",
"212 21 CURVE SMOOTH",
"238 14 OFFCURVE",
"260 9 OFFCURVE",
"289 9 CURVE SMOOTH"
);
},
{
closed = 1;
nodes = (
"976 883 OFFCURVE",
"994 889 OFFCURVE",
"1001 893 CURVE SMOOTH",
"1015 900 OFFCURVE",
"1074 941 OFFCURVE",
"1106 970 CURVE SMOOTH",
"1108 972 OFFCURVE",
"1111 972 OFFCURVE",
"1113 970 CURVE SMOOTH",
"1131 946 OFFCURVE",
"1161 909 OFFCURVE",
"1190 895 CURVE SMOOTH",
"1199 891 OFFCURVE",
"1247 907 OFFCURVE",
"1231 917 CURVE SMOOTH",
"1192 943 OFFCURVE",
"1156 981 OFFCURVE",
"1138 1014 CURVE SMOOTH",
"1134 1021 OFFCURVE",
"1128 1018 OFFCURVE",
"1123 1013 CURVE SMOOTH",
"1090 982 OFFCURVE",
"1021 922 OFFCURVE",
"979 894 CURVE SMOOTH",
"971 889 OFFCURVE",
"967 886 OFFCURVE",
"967 884 CURVE SMOOTH",
"967 883 OFFCURVE",
"968 883 OFFCURVE",
"970 883 CURVE SMOOTH"
);
}
);
};
components = (
{
name = A.ss01;
},
{
name = circumflexcomb.case;
transform = "{1, 0, 0, 1, 1017, 375}";
}
);
layerId = "C36B7B90-196F-45C3-8412-B02CF16DA361";
width = 1195;
}
);
note = Acircumflex;
},
{
glyphname = Adieresis.ss01;
lastChange = "2021-10-20 13:46:36 +0000";
layers = (
{
background = {
paths = (
{
closed = 1;
nodes = (
"347 -187 OFFCURVE",
"358 -186 OFFCURVE",
"366 -183 CURVE",
"366 -183 OFFCURVE",
"436 -148 OFFCURVE",
"477 -126 CURVE",
"471 -116 LINE",
"448 -126 OFFCURVE",
"427 -148 OFFCURVE",
"382 -148 CURVE SMOOTH",
"363 -148 OFFCURVE",
"339 -144 OFFCURVE",
"308 -133 CURVE SMOOTH",
"200 -94 OFFCURVE",
"151 -19 OFFCURVE",
"151 61 CURVE SMOOTH",
"151 155 OFFCURVE",
"219 257 OFFCURVE",
"337 314 CURVE SMOOTH",
"422 356 OFFCURVE",
"553 368 OFFCURVE",
"682 369 CURVE",
"652 323 OFFCURVE",
"622 275 OFFCURVE",
"582 216 CURVE SMOOTH",
"503 100 OFFCURVE",
"486 30 OFFCURVE",
"336 5 CURVE",
"333 -4 LINE",
"492 1 OFFCURVE",
"625 190 OFFCURVE",
"737 370 CURVE",
"759 369 OFFCURVE",
"781 369 OFFCURVE",
"803 368 CURVE",
"825 351 OFFCURVE",
"838 335 OFFCURVE",
"853 311 CURVE",
"927 359 LINE",
"923 364 LINE",
"938 364 OFFCURVE",
"951 363 OFFCURVE",
"964 363 CURVE",
"958 316 OFFCURVE",
"954 269 OFFCURVE",
"954 224 CURVE SMOOTH",
"954 137 OFFCURVE",
"968 58 OFFCURVE",
"1005 2 CURVE",
"1089 51 LINE",
"1097 112 OFFCURVE",
"1199 249 OFFCURVE",
"1241 280 CURVE",
"1234 288 LINE",
"1184 252 OFFCURVE",
"1114 164 OFFCURVE",
"1075 104 CURVE",
"1049 147 OFFCURVE",
"1039 213 OFFCURVE",
"1039 287 CURVE SMOOTH",
"1039 459 OFFCURVE",
"1095 680 OFFCURVE",
"1151 802 CURVE",
"1074 751 LINE",
"1034 666 OFFCURVE",
"988 523 OFFCURVE",
"966 380 CURVE",
"911 383 LINE",
"895 403 OFFCURVE",
"879 417 OFFCURVE",
"854 434 CURVE",
"784 388 LINE",
"772 389 OFFCURVE",
"761 389 OFFCURVE",
"749 389 CURVE",
"798 469 OFFCURVE",
"843 546 OFFCURVE",
"885 601 CURVE SMOOTH",
"933 665 OFFCURVE",
"967 717 OFFCURVE",
"1017 758 CURVE",
"1130 826 LINE",
"1124 836 LINE",
"1106 823 OFFCURVE",
"1072 810 OFFCURVE",
"1072 810 CURVE",
"1066 809 OFFCURVE",
"1055 808 OFFCURVE",
"1041 808 CURVE SMOOTH",
"967 808 OFFCURVE",
"797 825 OFFCURVE",
"701 833 CURVE SMOOTH",
"678 835 OFFCURVE",
"654 836 OFFCURVE",
"630 836 CURVE SMOOTH",
"524 836 OFFCURVE",
"414 814 OFFCURVE",
"340 767 CURVE SMOOTH",
"263 717 OFFCURVE",
"206 648 OFFCURVE",
"206 567 CURVE SMOOTH",
"206 539 OFFCURVE",
"212 510 OFFCURVE",
"227 480 CURVE SMOOTH",
"231 471 OFFCURVE",
"236 465 OFFCURVE",
"247 465 CURVE SMOOTH",
"252 465 LINE",
"252 465 OFFCURVE",
"337 493 OFFCURVE",
"366 502 CURVE",
"364 511 LINE",
"353 508 OFFCURVE",
"342 505 OFFCURVE",
"332 505 CURVE SMOOTH",
"321 505 OFFCURVE",
"311 508 OFFCURVE",
"301 518 CURVE SMOOTH",
"290 529 OFFCURVE",
"278 555 OFFCURVE",
"273 583 CURVE SMOOTH",
"271 594 OFFCURVE",
"270 604 OFFCURVE",
"270 614 CURVE SMOOTH",
"270 673 OFFCURVE",
"303 719 OFFCURVE",
"349 751 CURVE SMOOTH",
"392 781 OFFCURVE",
"446 790 OFFCURVE",
"502 790 CURVE SMOOTH",
"557 790 OFFCURVE",
"615 781 OFFCURVE",
"669 777 CURVE SMOOTH",
"722 773 OFFCURVE",
"893 738 OFFCURVE",
"970 742 CURVE",
"912 694 OFFCURVE",
"860 624 OFFCURVE",
"810 556 CURVE SMOOTH",
"762 492 OFFCURVE",
"728 441 OFFCURVE",
"695 390 CURVE",
"554 389 OFFCURVE",
"414 375 OFFCURVE",
"294 328 CURVE SMOOTH",
"142 268 OFFCURVE",
"57 150 OFFCURVE",
"57 42 CURVE SMOOTH",
"57 -37 OFFCURVE",
"101 -111 OFFCURVE",
"196 -155 CURVE SMOOTH",
"233 -173 OFFCURVE",
"293 -187 OFFCURVE",
"335 -187 CURVE SMOOTH"
);
},
{
closed = 1;
nodes = (
"307 9 OFFCURVE",
"327 11 OFFCURVE",
"352 15 CURVE",
"352 24 LINE",
"288 19 OFFCURVE",
"255 43 OFFCURVE",
"255 83 CURVE SMOOTH",
"255 101 OFFCURVE",
"262 123 OFFCURVE",
"277 146 CURVE",
"269 159 LINE",
"267 148 OFFCURVE",
"261 139 OFFCURVE",
"254 129 CURVE SMOOTH",
"247 118 OFFCURVE",
"238 107 OFFCURVE",
"229 95 CURVE SMOOTH",
"217 78 OFFCURVE",
"205 61 OFFCURVE",
"198 47 CURVE SMOOTH",
"196 42 OFFCURVE",
"195 39 OFFCURVE",
"195 36 CURVE SMOOTH",
"195 28 OFFCURVE",
"201 24 OFFCURVE",
"212 21 CURVE SMOOTH",
"238 14 OFFCURVE",
"260 9 OFFCURVE",
"289 9 CURVE SMOOTH"
);
},
{
closed = 1;
nodes = (
"969 907 LINE SMOOTH",
"985 909 OFFCURVE",
"1002 902 OFFCURVE",
"1017 910 CURVE SMOOTH",
"1027 915 OFFCURVE",
"1052 953 OFFCURVE",
"1058 969 CURVE SMOOTH",
"1060 974 OFFCURVE",
"1059 977 OFFCURVE",
"1056 974 CURVE SMOOTH",
"1052 970 OFFCURVE",
"1045 969 OFFCURVE",
"1034 969 CURVE SMOOTH",
"1023 969 OFFCURVE",
"1012 972 OFFCURVE",
"998 972 CURVE SMOOTH",
"977 972 OFFCURVE",
"961 949 OFFCURVE",
"947 922 CURVE SMOOTH",
"942 912 OFFCURVE",
"948 907 OFFCURVE",
"961 907 CURVE SMOOTH"
);
},
{
closed = 1;
nodes = (
"1153 906 OFFCURVE",
"1159 907 OFFCURVE",
"1165 910 CURVE SMOOTH",
"1176 915 OFFCURVE",
"1201 953 OFFCURVE",
"1206 969 CURVE SMOOTH",
"1208 974 OFFCURVE",
"1208 977 OFFCURVE",
"1204 974 CURVE SMOOTH",
"1200 970 OFFCURVE",
"1193 969 OFFCURVE",
"1182 969 CURVE SMOOTH",
"1171 969 OFFCURVE",
"1160 972 OFFCURVE",
"1147 972 CURVE SMOOTH",
"1125 972 OFFCURVE",
"1109 949 OFFCURVE",
"1095 922 CURVE SMOOTH",
"1090 912 OFFCURVE",
"1096 907 OFFCURVE",
"1109 907 CURVE SMOOTH",
"1117 907 LINE SMOOTH",
"1127 908 OFFCURVE",
"1138 906 OFFCURVE",
"1147 906 CURVE SMOOTH"
);
}
);
};
components = (
{
name = A.ss01;
},
{
name = dieresiscomb.case;
transform = "{1, 0, 0, 1, 1012, 375}";
}
);
layerId = "C36B7B90-196F-45C3-8412-B02CF16DA361";
width = 1195;
}
);
note = Adieresis;
},
